<svg width="1288" height="851" viewBox="0 0 1288 851" fill="none" xmlns="http://www.w3.org/2000/svg">
<path d="M711.886 834.468V843.582H712.852V833.558H709.842V834.468H711.886ZM714.714 840.852C714.714 842.574 716.156 843.75 718.284 843.75C720.412 843.75 721.854 842.574 721.854 840.866C721.854 839.606 721.084 838.598 719.922 838.234C720.916 837.856 721.476 837.03 721.476 835.98C721.476 834.426 720.202 833.376 718.298 833.376C716.38 833.376 715.064 834.426 715.064 835.966C715.064 837.002 715.638 837.828 716.646 838.234C715.456 838.64 714.714 839.62 714.714 840.852ZM716.016 835.994C716.016 834.944 716.912 834.272 718.284 834.272C719.642 834.272 720.524 834.944 720.524 836.022C720.524 837.128 719.642 837.842 718.284 837.842C716.912 837.842 716.016 837.1 716.016 835.994ZM715.708 840.768C715.708 839.536 716.716 838.738 718.27 838.738C719.852 838.738 720.86 839.536 720.86 840.768C720.86 842.014 719.824 842.84 718.298 842.84C716.744 842.84 715.708 842.014 715.708 840.768ZM724.188 843.736C724.664 843.736 725.07 843.344 725.07 842.882C725.07 842.406 724.664 842 724.188 842C723.712 842 723.306 842.406 723.306 842.882C723.306 843.344 723.712 843.736 724.188 843.736ZM725.72 833.558V834.482H731.516L727.554 843.582H728.59L732.538 834.482V833.558H725.72ZM736.462 843.75C738.562 843.75 739.99 842.322 739.99 840.306C739.99 838.43 738.702 836.932 736.616 836.932C735.832 836.932 735.104 837.184 734.544 837.632L735.3 834.482H739.416V833.558H734.572L733.368 838.598L734.166 838.85C734.712 838.248 735.552 837.828 736.476 837.828C738.058 837.828 738.968 838.934 738.968 840.334C738.968 841.818 737.988 842.826 736.476 842.826C735.048 842.826 734.166 841.958 734.166 840.516H733.158C733.158 842.49 734.446 843.75 736.462 843.75ZM746.15 835.854C746.15 834.412 745.128 833.362 743.7 833.362C742.272 833.362 741.236 834.412 741.236 835.854C741.236 837.296 742.272 838.332 743.7 838.332C745.128 838.332 746.15 837.296 746.15 835.854ZM751.232 833.558H750.21L742.608 843.582H743.616L751.232 833.558ZM745.31 835.854C745.31 836.834 744.638 837.534 743.7 837.534C742.748 837.534 742.076 836.834 742.076 835.854C742.076 834.86 742.734 834.174 743.7 834.174C744.652 834.174 745.31 834.86 745.31 835.854ZM752.618 841.286C752.618 839.844 751.596 838.794 750.168 838.794C748.74 838.794 747.704 839.844 747.704 841.286C747.704 842.728 748.74 843.764 750.168 843.764C751.596 843.764 752.618 842.728 752.618 841.286ZM751.778 841.286C751.778 842.266 751.106 842.952 750.168 842.952C749.216 842.952 748.544 842.266 748.544 841.286C748.544 840.292 749.202 839.606 750.168 839.606C751.12 839.606 751.778 840.292 751.778 841.286Z" fill="white"/>
<circle cx="1252.15" cy="152.46" r="151.87" stroke="url(#paint0_linear_1512_3038)"/>
<path d="M255.633 177.637V176.699H250.579L252.917 174.655C254.919 172.905 255.577 171.939 255.577 170.483C255.577 168.649 254.317 167.431 252.427 167.431C250.453 167.431 249.123 168.817 249.067 170.917H250.075C250.117 169.363 251.027 168.355 252.413 168.355C253.743 168.355 254.555 169.181 254.555 170.539C254.555 171.729 254.079 172.429 252.231 174.039L249.025 176.839V177.637H255.633ZM258.145 177.791C258.621 177.791 259.027 177.399 259.027 176.937C259.027 176.461 258.621 176.055 258.145 176.055C257.669 176.055 257.263 176.461 257.263 176.937C257.263 177.399 257.669 177.791 258.145 177.791ZM263.665 177.805C265.765 177.805 267.193 176.377 267.193 174.361C267.193 172.485 265.905 170.987 263.819 170.987C263.035 170.987 262.307 171.239 261.747 171.687L262.503 168.537H266.619V167.613H261.775L260.571 172.653L261.369 172.905C261.915 172.303 262.755 171.883 263.679 171.883C265.261 171.883 266.171 172.989 266.171 174.389C266.171 175.873 265.191 176.881 263.679 176.881C262.251 176.881 261.369 176.013 261.369 174.571H260.361C260.361 176.545 261.649 177.805 263.665 177.805ZM273.354 169.909C273.354 168.467 272.332 167.417 270.904 167.417C269.476 167.417 268.44 168.467 268.44 169.909C268.44 171.351 269.476 172.387 270.904 172.387C272.332 172.387 273.354 171.351 273.354 169.909ZM278.436 167.613H277.414L269.812 177.637H270.82L278.436 167.613ZM272.514 169.909C272.514 170.889 271.842 171.589 270.904 171.589C269.952 171.589 269.28 170.889 269.28 169.909C269.28 168.915 269.938 168.229 270.904 168.229C271.856 168.229 272.514 168.915 272.514 169.909ZM279.822 175.341C279.822 173.899 278.8 172.849 277.372 172.849C275.944 172.849 274.908 173.899 274.908 175.341C274.908 176.783 275.944 177.819 277.372 177.819C278.8 177.819 279.822 176.783 279.822 175.341ZM278.982 175.341C278.982 176.321 278.31 177.007 277.372 177.007C276.42 177.007 275.748 176.321 275.748 175.341C275.748 174.347 276.406 173.661 277.372 173.661C278.324 173.661 278.982 174.347 278.982 175.341Z" fill="white"/>
<path d="M109.48 236.707V235.769H104.426L106.764 233.725C108.766 231.975 109.424 231.009 109.424 229.553C109.424 227.719 108.164 226.501 106.274 226.501C104.3 226.501 102.97 227.887 102.914 229.987H103.922C103.964 228.433 104.874 227.425 106.26 227.425C107.59 227.425 108.402 228.251 108.402 229.609C108.402 230.799 107.926 231.499 106.078 233.109L102.872 235.909V236.707H109.48ZM111.992 236.861C112.468 236.861 112.874 236.469 112.874 236.007C112.874 235.531 112.468 235.125 111.992 235.125C111.516 235.125 111.11 235.531 111.11 236.007C111.11 236.469 111.516 236.861 111.992 236.861ZM117.513 236.875C119.613 236.875 121.041 235.447 121.041 233.431C121.041 231.555 119.753 230.057 117.667 230.057C116.883 230.057 116.155 230.309 115.595 230.757L116.351 227.607H120.467V226.683H115.623L114.419 231.723L115.217 231.975C115.763 231.373 116.603 230.953 117.527 230.953C119.109 230.953 120.019 232.059 120.019 233.459C120.019 234.943 119.039 235.951 117.527 235.951C116.099 235.951 115.217 235.083 115.217 233.641H114.209C114.209 235.615 115.497 236.875 117.513 236.875ZM127.201 228.979C127.201 227.537 126.179 226.487 124.751 226.487C123.323 226.487 122.287 227.537 122.287 228.979C122.287 230.421 123.323 231.457 124.751 231.457C126.179 231.457 127.201 230.421 127.201 228.979ZM132.283 226.683H131.261L123.659 236.707H124.667L132.283 226.683ZM126.361 228.979C126.361 229.959 125.689 230.659 124.751 230.659C123.799 230.659 123.127 229.959 123.127 228.979C123.127 227.985 123.785 227.299 124.751 227.299C125.703 227.299 126.361 227.985 126.361 228.979ZM133.669 234.411C133.669 232.969 132.647 231.919 131.219 231.919C129.791 231.919 128.755 232.969 128.755 234.411C128.755 235.853 129.791 236.889 131.219 236.889C132.647 236.889 133.669 235.853 133.669 234.411ZM132.829 234.411C132.829 235.391 132.157 236.077 131.219 236.077C130.267 236.077 129.595 235.391 129.595 234.411C129.595 233.417 130.253 232.731 131.219 232.731C132.171 232.731 132.829 233.417 132.829 234.411Z" fill="white"/>
<path d="M159.578 313.359V312.421H154.524L156.862 310.377C158.864 308.627 159.522 307.661 159.522 306.205C159.522 304.371 158.262 303.153 156.372 303.153C154.398 303.153 153.068 304.539 153.012 306.639H154.02C154.062 305.085 154.972 304.077 156.358 304.077C157.688 304.077 158.5 304.903 158.5 306.261C158.5 307.451 158.024 308.151 156.176 309.761L152.97 312.561V313.359H159.578ZM162.09 313.513C162.566 313.513 162.972 313.121 162.972 312.659C162.972 312.183 162.566 311.777 162.09 311.777C161.614 311.777 161.208 312.183 161.208 312.659C161.208 313.121 161.614 313.513 162.09 313.513ZM167.611 313.527C169.711 313.527 171.139 312.099 171.139 310.083C171.139 308.207 169.851 306.709 167.765 306.709C166.981 306.709 166.253 306.961 165.693 307.409L166.449 304.259H170.565V303.335H165.721L164.517 308.375L165.315 308.627C165.861 308.025 166.701 307.605 167.625 307.605C169.207 307.605 170.117 308.711 170.117 310.111C170.117 311.595 169.137 312.603 167.625 312.603C166.197 312.603 165.315 311.735 165.315 310.293H164.307C164.307 312.267 165.595 313.527 167.611 313.527ZM177.299 305.631C177.299 304.189 176.277 303.139 174.849 303.139C173.421 303.139 172.385 304.189 172.385 305.631C172.385 307.073 173.421 308.109 174.849 308.109C176.277 308.109 177.299 307.073 177.299 305.631ZM182.381 303.335H181.359L173.757 313.359H174.765L182.381 303.335ZM176.459 305.631C176.459 306.611 175.787 307.311 174.849 307.311C173.897 307.311 173.225 306.611 173.225 305.631C173.225 304.637 173.883 303.951 174.849 303.951C175.801 303.951 176.459 304.637 176.459 305.631ZM183.767 311.063C183.767 309.621 182.745 308.571 181.317 308.571C179.889 308.571 178.853 309.621 178.853 311.063C178.853 312.505 179.889 313.541 181.317 313.541C182.745 313.541 183.767 312.505 183.767 311.063ZM182.927 311.063C182.927 312.043 182.255 312.729 181.317 312.729C180.365 312.729 179.693 312.043 179.693 311.063C179.693 310.069 180.351 309.383 181.317 309.383C182.269 309.383 182.927 310.069 182.927 311.063Z" fill="white"/>
<path d="M139.066 372.528V371.632H137.89V364.632H136.546L131.646 371.632V372.528H136.91V374.656H137.89V372.528H139.066ZM132.738 371.632L136.91 365.668V371.632H132.738ZM141.328 374.81C141.804 374.81 142.21 374.418 142.21 373.956C142.21 373.48 141.804 373.074 141.328 373.074C140.852 373.074 140.446 373.48 140.446 373.956C140.446 374.418 140.852 374.81 141.328 374.81ZM146.358 369.28C148.15 369.28 149.13 370.134 149.13 371.506C149.13 372.962 148.164 373.914 146.666 373.914C145.252 373.914 144.356 373.046 144.356 371.604H143.362C143.362 373.606 144.692 374.824 146.666 374.824C148.696 374.824 150.152 373.522 150.152 371.534C150.152 369.714 148.808 368.524 146.932 368.426L149.928 365.444V364.632H143.852V365.528H148.654L145.56 368.58V369.28H146.358ZM151.487 371.926C151.487 373.648 152.929 374.824 155.057 374.824C157.185 374.824 158.627 373.648 158.627 371.94C158.627 370.68 157.857 369.672 156.695 369.308C157.689 368.93 158.249 368.104 158.249 367.054C158.249 365.5 156.975 364.45 155.071 364.45C153.153 364.45 151.837 365.5 151.837 367.04C151.837 368.076 152.411 368.902 153.419 369.308C152.229 369.714 151.487 370.694 151.487 371.926ZM152.789 367.068C152.789 366.018 153.685 365.346 155.057 365.346C156.415 365.346 157.297 366.018 157.297 367.096C157.297 368.202 156.415 368.916 155.057 368.916C153.685 368.916 152.789 368.174 152.789 367.068ZM152.481 371.842C152.481 370.61 153.489 369.812 155.043 369.812C156.625 369.812 157.633 370.61 157.633 371.842C157.633 373.088 156.597 373.914 155.071 373.914C153.517 373.914 152.481 373.088 152.481 371.842ZM164.932 366.928C164.932 365.486 163.91 364.436 162.482 364.436C161.054 364.436 160.018 365.486 160.018 366.928C160.018 368.37 161.054 369.406 162.482 369.406C163.91 369.406 164.932 368.37 164.932 366.928ZM170.014 364.632H168.992L161.39 374.656H162.398L170.014 364.632ZM164.092 366.928C164.092 367.908 163.42 368.608 162.482 368.608C161.53 368.608 160.858 367.908 160.858 366.928C160.858 365.934 161.516 365.248 162.482 365.248C163.434 365.248 164.092 365.934 164.092 366.928ZM171.4 372.36C171.4 370.918 170.378 369.868 168.95 369.868C167.522 369.868 166.486 370.918 166.486 372.36C166.486 373.802 167.522 374.838 168.95 374.838C170.378 374.838 171.4 373.802 171.4 372.36ZM170.56 372.36C170.56 373.34 169.888 374.026 168.95 374.026C167.998 374.026 167.326 373.34 167.326 372.36C167.326 371.366 167.984 370.68 168.95 370.68C169.902 370.68 170.56 371.366 170.56 372.36Z" fill="white"/>
<path d="M2.70869 447.616C1.77069 448.904 1.44869 449.716 1.44869 450.878C1.44869 452.88 3.03069 454.434 5.04669 454.434C7.04869 454.434 8.60269 452.936 8.60269 450.878C8.60269 448.918 7.21669 447.392 5.13069 447.392C4.66869 447.392 4.23469 447.49 3.75869 447.728L6.39069 444.242H5.21469L2.70869 447.616ZM2.47069 450.892C2.47069 449.366 3.52069 448.274 5.04669 448.274C6.53069 448.274 7.59469 449.366 7.59469 450.892C7.59469 452.418 6.53069 453.524 5.04669 453.524C3.52069 453.524 2.47069 452.418 2.47069 450.892ZM10.7051 454.42C11.1811 454.42 11.5871 454.028 11.5871 453.566C11.5871 453.09 11.1811 452.684 10.7051 452.684C10.2291 452.684 9.82309 453.09 9.82309 453.566C9.82309 454.028 10.2291 454.42 10.7051 454.42ZM19.7732 454.266V453.328H14.7192L17.0572 451.284C19.0592 449.534 19.7172 448.568 19.7172 447.112C19.7172 445.278 18.4572 444.06 16.5672 444.06C14.5932 444.06 13.2632 445.446 13.2072 447.546H14.2152C14.2572 445.992 15.1672 444.984 16.5532 444.984C17.8832 444.984 18.6952 445.81 18.6952 447.168C18.6952 448.358 18.2192 449.058 16.3712 450.668L13.1652 453.468V454.266H19.7732ZM24.3745 454.434C26.4745 454.434 27.9025 453.006 27.9025 450.99C27.9025 449.114 26.6145 447.616 24.5285 447.616C23.7445 447.616 23.0165 447.868 22.4565 448.316L23.2125 445.166H27.3285V444.242H22.4845L21.2805 449.282L22.0785 449.534C22.6245 448.932 23.4645 448.512 24.3885 448.512C25.9705 448.512 26.8805 449.618 26.8805 451.018C26.8805 452.502 25.9005 453.51 24.3885 453.51C22.9605 453.51 22.0785 452.642 22.0785 451.2H21.0705C21.0705 453.174 22.3585 454.434 24.3745 454.434ZM34.0626 446.538C34.0626 445.096 33.0406 444.046 31.6126 444.046C30.1846 444.046 29.1486 445.096 29.1486 446.538C29.1486 447.98 30.1846 449.016 31.6126 449.016C33.0406 449.016 34.0626 447.98 34.0626 446.538ZM39.1446 444.242H38.1226L30.5206 454.266H31.5286L39.1446 444.242ZM33.2226 446.538C33.2226 447.518 32.5506 448.218 31.6126 448.218C30.6606 448.218 29.9886 447.518 29.9886 446.538C29.9886 445.544 30.6466 444.858 31.6126 444.858C32.5646 444.858 33.2226 445.544 33.2226 446.538ZM40.5306 451.97C40.5306 450.528 39.5086 449.478 38.0806 449.478C36.6526 449.478 35.6166 450.528 35.6166 451.97C35.6166 453.412 36.6526 454.448 38.0806 454.448C39.5086 454.448 40.5306 453.412 40.5306 451.97ZM39.6906 451.97C39.6906 452.95 39.0186 453.636 38.0806 453.636C37.1286 453.636 36.4566 452.95 36.4566 451.97C36.4566 450.976 37.1146 450.29 38.0806 450.29C39.0326 450.29 39.6906 450.976 39.6906 451.97Z" fill="white"/>
<path d="M2.70869 648.799C1.77069 650.087 1.44869 650.899 1.44869 652.061C1.44869 654.063 3.03069 655.617 5.04669 655.617C7.04869 655.617 8.60269 654.119 8.60269 652.061C8.60269 650.101 7.21669 648.575 5.13069 648.575C4.66869 648.575 4.23469 648.673 3.75869 648.911L6.39069 645.425H5.21469L2.70869 648.799ZM2.47069 652.075C2.47069 650.549 3.52069 649.457 5.04669 649.457C6.53069 649.457 7.59469 650.549 7.59469 652.075C7.59469 653.601 6.53069 654.707 5.04669 654.707C3.52069 654.707 2.47069 653.601 2.47069 652.075ZM10.7051 655.603C11.1811 655.603 11.5871 655.211 11.5871 654.749C11.5871 654.273 11.1811 653.867 10.7051 653.867C10.2291 653.867 9.82309 654.273 9.82309 654.749C9.82309 655.211 10.2291 655.603 10.7051 655.603ZM19.7732 655.449V654.511H14.7192L17.0572 652.467C19.0592 650.717 19.7172 649.751 19.7172 648.295C19.7172 646.461 18.4572 645.243 16.5672 645.243C14.5932 645.243 13.2632 646.629 13.2072 648.729H14.2152C14.2572 647.175 15.1672 646.167 16.5532 646.167C17.8832 646.167 18.6952 646.993 18.6952 648.351C18.6952 649.541 18.2192 650.241 16.3712 651.851L13.1652 654.651V655.449H19.7732ZM24.3745 655.617C26.4745 655.617 27.9025 654.189 27.9025 652.173C27.9025 650.297 26.6145 648.799 24.5285 648.799C23.7445 648.799 23.0165 649.051 22.4565 649.499L23.2125 646.349H27.3285V645.425H22.4845L21.2805 650.465L22.0785 650.717C22.6245 650.115 23.4645 649.695 24.3885 649.695C25.9705 649.695 26.8805 650.801 26.8805 652.201C26.8805 653.685 25.9005 654.693 24.3885 654.693C22.9605 654.693 22.0785 653.825 22.0785 652.383H21.0705C21.0705 654.357 22.3585 655.617 24.3745 655.617ZM34.0626 647.721C34.0626 646.279 33.0406 645.229 31.6126 645.229C30.1846 645.229 29.1486 646.279 29.1486 647.721C29.1486 649.163 30.1846 650.199 31.6126 650.199C33.0406 650.199 34.0626 649.163 34.0626 647.721ZM39.1446 645.425H38.1226L30.5206 655.449H31.5286L39.1446 645.425ZM33.2226 647.721C33.2226 648.701 32.5506 649.401 31.6126 649.401C30.6606 649.401 29.9886 648.701 29.9886 647.721C29.9886 646.727 30.6466 646.041 31.6126 646.041C32.5646 646.041 33.2226 646.727 33.2226 647.721ZM40.5306 653.153C40.5306 651.711 39.5086 650.661 38.0806 650.661C36.6526 650.661 35.6166 651.711 35.6166 653.153C35.6166 654.595 36.6526 655.631 38.0806 655.631C39.5086 655.631 40.5306 654.595 40.5306 653.153ZM39.6906 653.153C39.6906 654.133 39.0186 654.819 38.0806 654.819C37.1286 654.819 36.4566 654.133 36.4566 653.153C36.4566 652.159 37.1146 651.473 38.0806 651.473C39.0326 651.473 39.6906 652.159 39.6906 653.153Z" fill="white"/>
<path d="M172.861 769.073C171.923 770.361 171.601 771.173 171.601 772.335C171.601 774.337 173.183 775.891 175.199 775.891C177.201 775.891 178.755 774.393 178.755 772.335C178.755 770.375 177.369 768.849 175.283 768.849C174.821 768.849 174.387 768.947 173.911 769.185L176.543 765.699H175.367L172.861 769.073ZM172.623 772.349C172.623 770.823 173.673 769.731 175.199 769.731C176.683 769.731 177.747 770.823 177.747 772.349C177.747 773.875 176.683 774.981 175.199 774.981C173.673 774.981 172.623 773.875 172.623 772.349ZM180.857 775.877C181.333 775.877 181.739 775.485 181.739 775.023C181.739 774.547 181.333 774.141 180.857 774.141C180.381 774.141 179.975 774.547 179.975 775.023C179.975 775.485 180.381 775.877 180.857 775.877ZM188.829 772.335C189.781 771.061 190.089 770.249 190.089 769.087C190.089 767.071 188.507 765.517 186.491 765.517C184.489 765.517 182.935 767.029 182.935 769.073C182.935 771.033 184.321 772.559 186.407 772.559C186.883 772.559 187.317 772.475 187.779 772.223L185.147 775.723H186.323L188.829 772.335ZM189.081 769.073C189.081 770.585 188.017 771.677 186.491 771.677C185.007 771.677 183.943 770.585 183.943 769.073C183.943 767.547 185.007 766.441 186.491 766.441C188.017 766.441 189.081 767.547 189.081 769.073ZM196.313 767.995C196.313 766.553 195.291 765.503 193.863 765.503C192.435 765.503 191.399 766.553 191.399 767.995C191.399 769.437 192.435 770.473 193.863 770.473C195.291 770.473 196.313 769.437 196.313 767.995ZM201.395 765.699H200.373L192.771 775.723H193.779L201.395 765.699ZM195.473 767.995C195.473 768.975 194.801 769.675 193.863 769.675C192.911 769.675 192.239 768.975 192.239 767.995C192.239 767.001 192.897 766.315 193.863 766.315C194.815 766.315 195.473 767.001 195.473 767.995ZM202.781 773.427C202.781 771.985 201.759 770.935 200.331 770.935C198.903 770.935 197.867 771.985 197.867 773.427C197.867 774.869 198.903 775.905 200.331 775.905C201.759 775.905 202.781 774.869 202.781 773.427ZM201.941 773.427C201.941 774.407 201.269 775.093 200.331 775.093C199.379 775.093 198.707 774.407 198.707 773.427C198.707 772.433 199.365 771.747 200.331 771.747C201.283 771.747 201.941 772.433 201.941 773.427Z" fill="white"/>
<path d="M1041.65 738.847V747.961H1042.61V737.937H1039.6V738.847H1041.65ZM1051.03 747.961V747.023H1045.97L1048.31 744.979C1050.31 743.229 1050.97 742.263 1050.97 740.807C1050.97 738.973 1049.71 737.755 1047.82 737.755C1045.85 737.755 1044.52 739.141 1044.46 741.241H1045.47C1045.51 739.687 1046.42 738.679 1047.81 738.679C1049.14 738.679 1049.95 739.505 1049.95 740.863C1049.95 742.053 1049.47 742.753 1047.63 744.363L1044.42 747.163V747.961H1051.03ZM1053.54 748.115C1054.02 748.115 1054.42 747.723 1054.42 747.261C1054.42 746.785 1054.02 746.379 1053.54 746.379C1053.06 746.379 1052.66 746.785 1052.66 747.261C1052.66 747.723 1053.06 748.115 1053.54 748.115ZM1059.06 748.129C1061.16 748.129 1062.59 746.701 1062.59 744.685C1062.59 742.809 1061.3 741.311 1059.21 741.311C1058.43 741.311 1057.7 741.563 1057.14 742.011L1057.9 738.861H1062.01V737.937H1057.17L1055.97 742.977L1056.76 743.229C1057.31 742.627 1058.15 742.207 1059.07 742.207C1060.66 742.207 1061.57 743.313 1061.57 744.713C1061.57 746.197 1060.59 747.205 1059.07 747.205C1057.65 747.205 1056.76 746.337 1056.76 744.895H1055.76C1055.76 746.869 1057.04 748.129 1059.06 748.129ZM1068.75 740.233C1068.75 738.791 1067.73 737.741 1066.3 737.741C1064.87 737.741 1063.83 738.791 1063.83 740.233C1063.83 741.675 1064.87 742.711 1066.3 742.711C1067.73 742.711 1068.75 741.675 1068.75 740.233ZM1073.83 737.937H1072.81L1065.21 747.961H1066.21L1073.83 737.937ZM1067.91 740.233C1067.91 741.213 1067.24 741.913 1066.3 741.913C1065.35 741.913 1064.67 741.213 1064.67 740.233C1064.67 739.239 1065.33 738.553 1066.3 738.553C1067.25 738.553 1067.91 739.239 1067.91 740.233ZM1075.22 745.665C1075.22 744.223 1074.19 743.173 1072.77 743.173C1071.34 743.173 1070.3 744.223 1070.3 745.665C1070.3 747.107 1071.34 748.143 1072.77 748.143C1074.19 748.143 1075.22 747.107 1075.22 745.665ZM1074.38 745.665C1074.38 746.645 1073.7 747.331 1072.77 747.331C1071.81 747.331 1071.14 746.645 1071.14 745.665C1071.14 744.671 1071.8 743.985 1072.77 743.985C1073.72 743.985 1074.38 744.671 1074.38 745.665Z" fill="white"/>
<path d="M1028.7 354.058V363.172H1029.67V353.148H1026.66V354.058H1028.7ZM1038.08 363.172V362.234H1033.03L1035.37 360.19C1037.37 358.44 1038.03 357.474 1038.03 356.018C1038.03 354.184 1036.77 352.966 1034.88 352.966C1032.9 352.966 1031.57 354.352 1031.52 356.452H1032.52C1032.57 354.898 1033.48 353.89 1034.86 353.89C1036.19 353.89 1037 354.716 1037 356.074C1037 357.264 1036.53 357.964 1034.68 359.574L1031.47 362.374V363.172H1038.08ZM1040.59 363.326C1041.07 363.326 1041.48 362.934 1041.48 362.472C1041.48 361.996 1041.07 361.59 1040.59 361.59C1040.12 361.59 1039.71 361.996 1039.71 362.472C1039.71 362.934 1040.12 363.326 1040.59 363.326ZM1046.11 363.34C1048.21 363.34 1049.64 361.912 1049.64 359.896C1049.64 358.02 1048.35 356.522 1046.27 356.522C1045.48 356.522 1044.76 356.774 1044.2 357.222L1044.95 354.072H1049.07V353.148H1044.22L1043.02 358.188L1043.82 358.44C1044.36 357.838 1045.2 357.418 1046.13 357.418C1047.71 357.418 1048.62 358.524 1048.62 359.924C1048.62 361.408 1047.64 362.416 1046.13 362.416C1044.7 362.416 1043.82 361.548 1043.82 360.106H1042.81C1042.81 362.08 1044.1 363.34 1046.11 363.34ZM1055.8 355.444C1055.8 354.002 1054.78 352.952 1053.35 352.952C1051.92 352.952 1050.89 354.002 1050.89 355.444C1050.89 356.886 1051.92 357.922 1053.35 357.922C1054.78 357.922 1055.8 356.886 1055.8 355.444ZM1060.88 353.148H1059.86L1052.26 363.172H1053.27L1060.88 353.148ZM1054.96 355.444C1054.96 356.424 1054.29 357.124 1053.35 357.124C1052.4 357.124 1051.73 356.424 1051.73 355.444C1051.73 354.45 1052.39 353.764 1053.35 353.764C1054.3 353.764 1054.96 354.45 1054.96 355.444ZM1062.27 360.876C1062.27 359.434 1061.25 358.384 1059.82 358.384C1058.39 358.384 1057.36 359.434 1057.36 360.876C1057.36 362.318 1058.39 363.354 1059.82 363.354C1061.25 363.354 1062.27 362.318 1062.27 360.876ZM1061.43 360.876C1061.43 361.856 1060.76 362.542 1059.82 362.542C1058.87 362.542 1058.2 361.856 1058.2 360.876C1058.2 359.882 1058.85 359.196 1059.82 359.196C1060.77 359.196 1061.43 359.882 1061.43 360.876Z" fill="white"/>
<path d="M722.463 145.355V144.417H717.409L719.747 142.373C721.749 140.623 722.407 139.657 722.407 138.201C722.407 136.367 721.147 135.149 719.257 135.149C717.283 135.149 715.953 136.535 715.897 138.635H716.905C716.947 137.081 717.857 136.073 719.243 136.073C720.573 136.073 721.385 136.899 721.385 138.257C721.385 139.447 720.909 140.147 719.061 141.757L715.855 144.557V145.355H722.463ZM727.064 145.523C729.164 145.523 730.592 144.095 730.592 142.079C730.592 140.203 729.304 138.705 727.218 138.705C726.434 138.705 725.706 138.957 725.146 139.405L725.902 136.255H730.018V135.331H725.174L723.97 140.371L724.768 140.623C725.314 140.021 726.154 139.601 727.078 139.601C728.66 139.601 729.57 140.707 729.57 142.107C729.57 143.591 728.59 144.599 727.078 144.599C725.65 144.599 724.768 143.731 724.768 142.289H723.76C723.76 144.263 725.048 145.523 727.064 145.523ZM736.752 137.627C736.752 136.185 735.73 135.135 734.302 135.135C732.874 135.135 731.838 136.185 731.838 137.627C731.838 139.069 732.874 140.105 734.302 140.105C735.73 140.105 736.752 139.069 736.752 137.627ZM741.834 135.331H740.812L733.21 145.355H734.218L741.834 135.331ZM735.912 137.627C735.912 138.607 735.24 139.307 734.302 139.307C733.35 139.307 732.678 138.607 732.678 137.627C732.678 136.633 733.336 135.947 734.302 135.947C735.254 135.947 735.912 136.633 735.912 137.627ZM743.22 143.059C743.22 141.617 742.198 140.567 740.77 140.567C739.342 140.567 738.306 141.617 738.306 143.059C738.306 144.501 739.342 145.537 740.77 145.537C742.198 145.537 743.22 144.501 743.22 143.059ZM742.38 143.059C742.38 144.039 741.708 144.725 740.77 144.725C739.818 144.725 739.146 144.039 739.146 143.059C739.146 142.065 739.804 141.379 740.77 141.379C741.722 141.379 742.38 142.065 742.38 143.059Z" fill="white"/>
<path d="M255.795 147.042C258.715 147.042 260.635 145.062 260.635 142.242C260.635 139.382 258.735 137.462 255.795 137.462H250.015V152.082H252.575V147.042H255.795ZM255.295 139.742C256.995 139.742 257.955 140.622 257.955 142.222C257.955 143.822 257.015 144.762 255.255 144.762H252.575V139.742H255.295ZM268.628 142.162C268.228 142.062 267.888 142.022 267.548 142.022C266.228 142.022 265.288 142.682 264.868 143.662L264.728 142.222H262.428V152.082H264.868V147.282C264.868 145.362 265.968 144.422 267.728 144.422H268.628V142.162ZM274.368 152.342C276.948 152.342 278.748 151.042 279.168 148.882H276.908C276.628 149.822 275.748 150.342 274.408 150.342C272.788 150.342 271.868 149.462 271.688 147.722L279.128 147.702V146.962C279.128 143.882 277.248 141.902 274.288 141.902C271.388 141.902 269.368 144.042 269.368 147.142C269.368 150.202 271.428 152.342 274.368 152.342ZM274.308 143.902C275.768 143.902 276.708 144.802 276.708 146.162H271.748C271.988 144.682 272.868 143.902 274.308 143.902ZM285.991 141.542C285.991 143.782 287.291 145.202 289.771 145.742L292.091 146.262C293.291 146.522 293.791 147.102 293.791 148.082C293.791 149.302 292.711 150.042 291.011 150.042C289.371 150.042 288.371 149.302 288.351 148.062H285.791C285.851 150.682 287.891 152.342 291.011 152.342C294.231 152.342 296.351 150.582 296.351 147.862C296.351 145.682 295.131 144.402 292.631 143.862L290.331 143.362C289.111 143.082 288.551 142.502 288.551 141.462C288.551 140.242 289.571 139.482 291.151 139.482C292.591 139.482 293.491 140.222 293.551 141.482H296.111C296.031 138.842 294.151 137.202 291.191 137.202C288.111 137.202 285.991 138.982 285.991 141.542ZM302.727 152.342C305.307 152.342 307.107 151.042 307.527 148.882H305.267C304.987 149.822 304.107 150.342 302.767 150.342C301.147 150.342 300.227 149.462 300.047 147.722L307.487 147.702V146.962C307.487 143.882 305.607 141.902 302.647 141.902C299.747 141.902 297.727 144.042 297.727 147.142C297.727 150.202 299.787 152.342 302.727 152.342ZM302.667 143.902C304.127 143.902 305.067 144.802 305.067 146.162H300.107C300.347 144.682 301.227 143.902 302.667 143.902ZM313.86 152.342C316.44 152.342 318.24 151.042 318.66 148.882H316.4C316.12 149.822 315.24 150.342 313.9 150.342C312.28 150.342 311.36 149.462 311.18 147.722L318.62 147.702V146.962C318.62 143.882 316.74 141.902 313.78 141.902C310.88 141.902 308.86 144.042 308.86 147.142C308.86 150.202 310.92 152.342 313.86 152.342ZM313.8 143.902C315.26 143.902 316.2 144.802 316.2 146.162H311.24C311.48 144.682 312.36 143.902 313.8 143.902ZM324.633 152.342C326.133 152.342 327.413 151.682 328.013 150.542L328.173 152.082H330.413V137.202H327.993V143.462C327.373 142.482 326.153 141.902 324.773 141.902C321.793 141.902 319.993 144.102 319.993 147.182C319.993 150.242 321.773 152.342 324.633 152.342ZM325.173 150.102C323.473 150.102 322.433 148.862 322.433 147.102C322.433 145.342 323.473 144.082 325.173 144.082C326.873 144.082 327.973 145.322 327.973 147.102C327.973 148.882 326.873 150.102 325.173 150.102Z" fill="white"/>
<path d="M108.611 204.472C111.531 204.472 113.451 202.492 113.451 199.672C113.451 196.812 111.551 194.892 108.611 194.892H102.831V209.512H105.391V204.472H108.611ZM108.111 197.172C109.811 197.172 110.771 198.052 110.771 199.652C110.771 201.252 109.831 202.192 108.071 202.192H105.391V197.172H108.111ZM121.944 199.632V204.812C121.944 206.692 121.204 207.592 119.664 207.592C118.304 207.592 117.564 206.832 117.564 204.952V199.632H115.124V205.812C115.124 208.232 116.464 209.772 118.744 209.772C120.064 209.772 121.344 209.132 121.944 208.192L122.124 209.512H124.384V199.632H121.944ZM129.165 209.512L129.325 207.972C129.905 209.112 131.165 209.772 132.645 209.772C135.485 209.772 137.345 207.672 137.345 204.632C137.345 201.512 135.625 199.312 132.805 199.312C131.305 199.312 129.985 199.972 129.345 201.072V194.632H126.905V209.512H129.165ZM129.365 204.532C129.365 202.752 130.465 201.512 132.145 201.512C133.865 201.512 134.885 202.772 134.885 204.532C134.885 206.292 133.865 207.532 132.145 207.532C130.465 207.532 129.365 206.312 129.365 204.532ZM141.747 209.512V194.632H139.327V209.512H141.747ZM145.527 197.652C146.327 197.652 146.987 196.992 146.987 196.172C146.987 195.352 146.327 194.712 145.527 194.712C144.687 194.712 144.027 195.352 144.027 196.172C144.027 196.992 144.687 197.652 145.527 197.652ZM144.307 209.512H146.747V199.632H144.307V209.512ZM148.688 204.552C148.688 207.692 150.648 209.772 153.648 209.772C156.228 209.772 158.148 208.192 158.448 205.892H155.988C155.728 206.972 154.868 207.572 153.648 207.572C152.088 207.572 151.128 206.412 151.128 204.552C151.128 202.692 152.168 201.512 153.728 201.512C154.888 201.512 155.708 202.092 155.988 203.212H158.428C158.168 200.832 156.328 199.332 153.628 199.332C150.708 199.332 148.688 201.492 148.688 204.552ZM165.175 198.972C165.175 201.212 166.475 202.632 168.955 203.172L171.275 203.692C172.475 203.952 172.975 204.532 172.975 205.512C172.975 206.732 171.895 207.472 170.195 207.472C168.555 207.472 167.555 206.732 167.535 205.492H164.975C165.035 208.112 167.075 209.772 170.195 209.772C173.415 209.772 175.535 208.012 175.535 205.292C175.535 203.112 174.315 201.832 171.815 201.292L169.515 200.792C168.295 200.512 167.735 199.932 167.735 198.892C167.735 197.672 168.755 196.912 170.335 196.912C171.775 196.912 172.675 197.652 172.735 198.912H175.295C175.215 196.272 173.335 194.632 170.375 194.632C167.295 194.632 165.175 196.412 165.175 198.972ZM180.43 209.772C181.97 209.772 183.31 209.072 183.73 208.052L183.91 209.512H186.05V203.512C186.05 200.772 184.41 199.332 181.75 199.332C179.07 199.332 177.31 200.732 177.31 202.872H179.39C179.39 201.832 180.19 201.232 181.63 201.232C182.87 201.232 183.67 201.772 183.67 203.112V203.332L180.71 203.552C178.37 203.732 177.05 204.872 177.05 206.692C177.05 208.552 178.33 209.772 180.43 209.772ZM181.23 207.932C180.13 207.932 179.53 207.492 179.53 206.592C179.53 205.792 180.11 205.292 181.63 205.152L183.69 204.992V205.512C183.69 207.032 182.73 207.932 181.23 207.932ZM190.908 209.512V194.632H188.488V209.512H190.908ZM197.887 209.772C200.467 209.772 202.267 208.472 202.687 206.312H200.427C200.147 207.252 199.267 207.772 197.927 207.772C196.307 207.772 195.387 206.892 195.207 205.152L202.647 205.132V204.392C202.647 201.312 200.767 199.332 197.807 199.332C194.907 199.332 192.887 201.472 192.887 204.572C192.887 207.632 194.947 209.772 197.887 209.772ZM197.827 201.332C199.287 201.332 200.227 202.232 200.227 203.592H195.267C195.507 202.112 196.387 201.332 197.827 201.332Z" fill="white"/>
<path d="M156.52 265.81H153.96V280.43H162.64V278.07H156.52V265.81ZM165.582 268.57C166.382 268.57 167.042 267.91 167.042 267.09C167.042 266.27 166.382 265.63 165.582 265.63C164.742 265.63 164.082 266.27 164.082 267.09C164.082 267.91 164.742 268.57 165.582 268.57ZM164.362 280.43H166.802V270.55H164.362V280.43ZM168.743 275.37C168.743 278.45 170.423 280.69 173.363 280.69C174.823 280.69 176.123 280.11 176.743 279.11V285.01H179.163V270.55H176.923L176.763 272.05C176.163 270.91 174.863 270.25 173.363 270.25C170.583 270.25 168.743 272.27 168.743 275.37ZM171.183 275.49C171.183 273.73 172.223 272.47 173.923 272.47C175.623 272.47 176.723 273.71 176.723 275.49C176.723 277.27 175.623 278.49 173.923 278.49C172.223 278.49 171.183 277.25 171.183 275.49ZM188.405 270.55V275.73C188.405 277.61 187.665 278.51 186.125 278.51C184.765 278.51 184.025 277.75 184.025 275.87V270.55H181.585V276.73C181.585 279.15 182.925 280.69 185.205 280.69C186.525 280.69 187.805 280.05 188.405 279.11L188.585 280.43H190.845V270.55H188.405ZM194.585 268.57C195.385 268.57 196.045 267.91 196.045 267.09C196.045 266.27 195.385 265.63 194.585 265.63C193.745 265.63 193.085 266.27 193.085 267.09C193.085 267.91 193.745 268.57 194.585 268.57ZM193.365 280.43H195.805V270.55H193.365V280.43ZM202.386 280.69C203.886 280.69 205.166 280.03 205.766 278.89L205.926 280.43H208.166V265.55H205.746V271.81C205.126 270.83 203.906 270.25 202.526 270.25C199.546 270.25 197.746 272.45 197.746 275.53C197.746 278.59 199.526 280.69 202.386 280.69ZM202.926 278.45C201.226 278.45 200.186 277.21 200.186 275.45C200.186 273.69 201.226 272.43 202.926 272.43C204.626 272.43 205.726 273.67 205.726 275.45C205.726 277.23 204.626 278.45 202.926 278.45ZM211.929 268.57C212.729 268.57 213.389 267.91 213.389 267.09C213.389 266.27 212.729 265.63 211.929 265.63C211.089 265.63 210.429 266.27 210.429 267.09C210.429 267.91 211.089 268.57 211.929 268.57ZM210.709 280.43H213.149V270.55H210.709V280.43ZM219.03 280.43V272.59H220.95V270.55H219.03V267.47H216.59V270.55H214.69V272.59H216.59V280.43H219.03ZM221.607 285.01C222.147 285.15 222.747 285.23 223.427 285.23C225.047 285.23 226.087 284.47 226.827 282.63L231.667 270.55H229.147L226.467 277.75L223.927 270.55H221.347L225.327 280.85L225.047 281.59C224.627 282.75 224.027 282.97 223.067 282.97H221.607V285.01Z" fill="white"/>
<path d="M4.90469 626.875V621.635C4.90469 619.815 4.88469 618.435 4.74469 617.555L8.44469 626.875H10.8047L14.5247 617.535C14.3847 618.575 14.3847 619.435 14.3847 622.375V626.875H16.8647V612.255H14.3447L9.62469 623.895L4.90469 612.255H2.42469V626.875H4.90469ZM22.6805 627.135C24.2205 627.135 25.5605 626.435 25.9805 625.415L26.1605 626.875H28.3005V620.875C28.3005 618.135 26.6605 616.695 24.0005 616.695C21.3205 616.695 19.5605 618.095 19.5605 620.235H21.6405C21.6405 619.195 22.4405 618.595 23.8805 618.595C25.1205 618.595 25.9205 619.135 25.9205 620.475V620.695L22.9605 620.915C20.6205 621.095 19.3005 622.235 19.3005 624.055C19.3005 625.915 20.5805 627.135 22.6805 627.135ZM23.4805 625.295C22.3805 625.295 21.7805 624.855 21.7805 623.955C21.7805 623.155 22.3605 622.655 23.8805 622.515L25.9405 622.355V622.875C25.9405 624.395 24.9805 625.295 23.4805 625.295ZM36.8975 616.955C36.4975 616.855 36.1575 616.815 35.8175 616.815C34.4975 616.815 33.5575 617.475 33.1375 618.455L32.9975 617.015H30.6975V626.875H33.1375V622.075C33.1375 620.155 34.2375 619.215 35.9975 619.215H36.8975V616.955ZM41.0091 626.875V624.215L42.4491 622.715L45.0291 626.875H47.8291L44.1491 620.915L47.9091 616.995H44.8491L41.0091 621.135V611.995H38.5891V626.875H41.0091ZM53.2816 627.135C55.8616 627.135 57.6616 625.835 58.0816 623.675H55.8216C55.5416 624.615 54.6616 625.135 53.3216 625.135C51.7016 625.135 50.7816 624.255 50.6016 622.515L58.0416 622.495V621.755C58.0416 618.675 56.1616 616.695 53.2016 616.695C50.3016 616.695 48.2816 618.835 48.2816 621.935C48.2816 624.995 50.3416 627.135 53.2816 627.135ZM53.2216 618.695C54.6816 618.695 55.6216 619.595 55.6216 620.955H50.6616C50.9016 619.475 51.7816 618.695 53.2216 618.695ZM63.2567 626.875V619.035H65.1767V616.995H63.2567V613.915H60.8167V616.995H58.9167V619.035H60.8167V626.875H63.2567ZM67.9136 615.015C68.7136 615.015 69.3736 614.355 69.3736 613.535C69.3736 612.715 68.7136 612.075 67.9136 612.075C67.0736 612.075 66.4136 612.715 66.4136 613.535C66.4136 614.355 67.0736 615.015 67.9136 615.015ZM66.6936 626.875H69.1336V616.995H66.6936V626.875ZM74.0945 626.875V621.555C74.0945 619.955 75.0145 618.915 76.5145 618.915C77.7745 618.915 78.5945 619.715 78.5945 621.375V626.875H81.0345V620.795C81.0345 618.235 79.7545 616.695 77.2745 616.695C75.9345 616.695 74.7345 617.275 74.1145 618.275L73.9145 616.995H71.6545V626.875H74.0945ZM82.8719 621.715C82.8719 624.575 84.7119 626.675 87.5119 626.675C88.9319 626.675 90.1519 626.095 90.7719 625.175V626.815C90.7719 628.455 89.6919 629.515 88.0119 629.515C86.5119 629.515 85.5319 628.755 85.3719 627.475H82.9319C83.2319 630.115 85.1719 631.735 88.0119 631.735C91.2119 631.735 93.1919 629.675 93.1919 626.375V616.995H90.9319L90.7919 618.355C90.2119 617.295 89.0519 616.675 87.5719 616.675C84.7519 616.675 82.8719 618.835 82.8719 621.715ZM85.3319 621.655C85.3319 620.035 86.3719 618.815 87.9919 618.815C89.6919 618.815 90.7119 619.975 90.7119 621.655C90.7119 623.375 89.6719 624.555 87.9919 624.555C86.3919 624.555 85.3319 623.315 85.3319 621.655Z" fill="white"/>
<path d="M178.357 739.515C181.277 739.515 183.197 737.535 183.197 734.715C183.197 731.855 181.297 729.935 178.357 729.935H172.577V744.555H175.137V739.515H178.357ZM177.857 732.215C179.557 732.215 180.517 733.095 180.517 734.695C180.517 736.295 179.577 737.235 177.817 737.235H175.137V732.215H177.857ZM191.19 734.635C190.79 734.535 190.45 734.495 190.11 734.495C188.79 734.495 187.85 735.155 187.43 736.135L187.29 734.695H184.99V744.555H187.43V739.755C187.43 737.835 188.53 736.895 190.29 736.895H191.19V734.635ZM194.062 732.695C194.862 732.695 195.522 732.035 195.522 731.215C195.522 730.395 194.862 729.755 194.062 729.755C193.222 729.755 192.562 730.395 192.562 731.215C192.562 732.035 193.222 732.695 194.062 732.695ZM192.842 744.555H195.282V734.675H192.842V744.555ZM200.603 744.555H203.003L207.123 734.675H204.603L202.803 739.215C202.383 740.295 202.023 741.335 201.883 741.955C201.763 741.415 201.423 740.395 201.003 739.215L199.283 734.675H196.683L200.603 744.555ZM210.977 744.815C212.517 744.815 213.857 744.115 214.277 743.095L214.457 744.555H216.597V738.555C216.597 735.815 214.957 734.375 212.297 734.375C209.617 734.375 207.857 735.775 207.857 737.915H209.937C209.937 736.875 210.737 736.275 212.177 736.275C213.417 736.275 214.217 736.815 214.217 738.155V738.375L211.257 738.595C208.917 738.775 207.597 739.915 207.597 741.735C207.597 743.595 208.877 744.815 210.977 744.815ZM211.777 742.975C210.677 742.975 210.077 742.535 210.077 741.635C210.077 740.835 210.657 740.335 212.177 740.195L214.237 740.035V740.555C214.237 742.075 213.277 742.975 211.777 742.975ZM222.218 744.555V736.715H224.138V734.675H222.218V731.595H219.778V734.675H217.878V736.715H219.778V744.555H222.218ZM229.977 744.815C232.557 744.815 234.357 743.515 234.777 741.355H232.517C232.237 742.295 231.357 742.815 230.017 742.815C228.397 742.815 227.477 741.935 227.297 740.195L234.737 740.175V739.435C234.737 736.355 232.857 734.375 229.897 734.375C226.997 734.375 224.977 736.515 224.977 739.615C224.977 742.675 227.037 744.815 229.977 744.815ZM229.917 736.375C231.377 736.375 232.317 737.275 232.317 738.635H227.357C227.597 737.155 228.477 736.375 229.917 736.375Z" fill="white"/>
<path d="M654.017 810.371L655.197 806.991H660.657L661.837 810.371H664.537L659.257 795.751H656.637L651.357 810.371H654.017ZM657.617 800.111C657.757 799.711 657.877 799.271 657.937 798.991C657.977 799.291 658.117 799.731 658.237 800.111L659.917 804.831H655.957L657.617 800.111ZM664.981 805.411C664.981 808.551 666.941 810.631 669.941 810.631C672.521 810.631 674.441 809.051 674.741 806.751H672.281C672.021 807.831 671.161 808.431 669.941 808.431C668.381 808.431 667.421 807.271 667.421 805.411C667.421 803.551 668.461 802.371 670.021 802.371C671.181 802.371 672.001 802.951 672.281 804.071H674.721C674.461 801.691 672.621 800.191 669.921 800.191C667.001 800.191 664.981 802.351 664.981 805.411ZM675.977 805.311C675.977 808.391 677.657 810.631 680.597 810.631C682.057 810.631 683.357 810.051 683.977 809.051V814.951H686.397V800.491H684.157L683.997 801.991C683.397 800.851 682.097 800.191 680.597 800.191C677.817 800.191 675.977 802.211 675.977 805.311ZM678.417 805.431C678.417 803.671 679.457 802.411 681.157 802.411C682.857 802.411 683.957 803.651 683.957 805.431C683.957 807.211 682.857 808.431 681.157 808.431C679.457 808.431 678.417 807.191 678.417 805.431ZM695.64 800.491V805.671C695.64 807.551 694.9 808.451 693.36 808.451C692 808.451 691.26 807.691 691.26 805.811V800.491H688.82V806.671C688.82 809.091 690.16 810.631 692.44 810.631C693.76 810.631 695.04 809.991 695.64 809.051L695.82 810.371H698.08V800.491H695.64ZM699.645 807.371C699.645 809.311 701.205 810.631 703.665 810.631C706.105 810.631 707.805 809.391 707.805 807.391C707.805 805.871 706.965 805.111 705.305 804.731L703.525 804.311C702.685 804.111 702.245 803.751 702.245 803.191C702.245 802.451 702.805 802.011 703.765 802.011C704.705 802.011 705.265 802.551 705.285 803.391H707.605C707.585 801.471 706.085 800.191 703.865 800.191C701.585 800.191 699.945 801.351 699.945 803.291C699.945 804.871 700.805 805.711 702.585 806.111L704.365 806.531C705.245 806.731 705.505 807.091 705.505 807.591C705.505 808.311 704.885 808.771 703.745 808.771C702.625 808.771 701.985 808.231 701.965 807.371H699.645ZM710.882 798.511C711.682 798.511 712.342 797.851 712.342 797.031C712.342 796.211 711.682 795.571 710.882 795.571C710.042 795.571 709.382 796.211 709.382 797.031C709.382 797.851 710.042 798.511 710.882 798.511ZM709.662 810.371H712.102V800.491H709.662V810.371ZM717.983 810.371V802.531H719.903V800.491H717.983V797.411H715.543V800.491H713.643V802.531H715.543V810.371H717.983ZM722.64 798.511C723.44 798.511 724.1 797.851 724.1 797.031C724.1 796.211 723.44 795.571 722.64 795.571C721.8 795.571 721.14 796.211 721.14 797.031C721.14 797.851 721.8 798.511 722.64 798.511ZM721.42 810.371H723.86V800.491H721.42V810.371ZM725.801 805.411C725.801 808.491 728.021 810.611 731.081 810.611C734.141 810.611 736.361 808.491 736.361 805.411C736.361 802.331 734.141 800.211 731.081 800.211C728.021 800.211 725.801 802.331 725.801 805.411ZM728.241 805.411C728.241 803.611 729.401 802.391 731.081 802.391C732.761 802.391 733.921 803.611 733.921 805.411C733.921 807.211 732.761 808.431 731.081 808.431C729.401 808.431 728.241 807.211 728.241 805.411ZM740.735 810.371V805.051C740.735 803.451 741.655 802.411 743.155 802.411C744.415 802.411 745.235 803.211 745.235 804.871V810.371H747.675V804.291C747.675 801.731 746.395 800.191 743.915 800.191C742.575 800.191 741.375 800.771 740.755 801.771L740.555 800.491H738.295V810.371H740.735ZM749.195 807.371C749.195 809.311 750.755 810.631 753.215 810.631C755.655 810.631 757.355 809.391 757.355 807.391C757.355 805.871 756.515 805.111 754.855 804.731L753.075 804.311C752.235 804.111 751.795 803.751 751.795 803.191C751.795 802.451 752.355 802.011 753.315 802.011C754.255 802.011 754.815 802.551 754.835 803.391H757.155C757.135 801.471 755.635 800.191 753.415 800.191C751.135 800.191 749.495 801.351 749.495 803.291C749.495 804.871 750.355 805.711 752.135 806.111L753.915 806.531C754.795 806.731 755.055 807.091 755.055 807.591C755.055 808.311 754.435 808.771 753.295 808.771C752.175 808.771 751.535 808.231 751.515 807.371H749.195Z" fill="white"/>
<path d="M896.759 715.055L897.939 711.675H903.399L904.579 715.055H907.279L901.999 700.435H899.379L894.099 715.055H896.759ZM900.359 704.795C900.499 704.395 900.619 703.955 900.679 703.675C900.719 703.975 900.859 704.415 900.979 704.795L902.659 709.515H898.699L900.359 704.795ZM912.363 715.315C913.863 715.315 915.143 714.655 915.743 713.515L915.903 715.055H918.143V700.175H915.723V706.435C915.103 705.455 913.883 704.875 912.503 704.875C909.523 704.875 907.723 707.075 907.723 710.155C907.723 713.215 909.503 715.315 912.363 715.315ZM912.903 713.075C911.203 713.075 910.163 711.835 910.163 710.075C910.163 708.315 911.203 707.055 912.903 707.055C914.603 707.055 915.703 708.295 915.703 710.075C915.703 711.855 914.603 713.075 912.903 713.075ZM923.486 715.055H925.886L930.006 705.175H927.486L925.686 709.715C925.266 710.795 924.906 711.835 924.766 712.455C924.646 711.915 924.306 710.895 923.886 709.715L922.166 705.175H919.566L923.486 715.055ZM932.628 703.195C933.428 703.195 934.088 702.535 934.088 701.715C934.088 700.895 933.428 700.255 932.628 700.255C931.788 700.255 931.128 700.895 931.128 701.715C931.128 702.535 931.788 703.195 932.628 703.195ZM931.408 715.055H933.848V705.175H931.408V715.055ZM935.609 712.055C935.609 713.995 937.169 715.315 939.629 715.315C942.069 715.315 943.769 714.075 943.769 712.075C943.769 710.555 942.929 709.795 941.269 709.415L939.489 708.995C938.649 708.795 938.209 708.435 938.209 707.875C938.209 707.135 938.769 706.695 939.729 706.695C940.669 706.695 941.229 707.235 941.249 708.075H943.569C943.549 706.155 942.049 704.875 939.829 704.875C937.549 704.875 935.909 706.035 935.909 707.975C935.909 709.555 936.769 710.395 938.549 710.795L940.329 711.215C941.209 711.415 941.469 711.775 941.469 712.275C941.469 712.995 940.849 713.455 939.709 713.455C938.589 713.455 937.949 712.915 937.929 712.055H935.609ZM945.047 710.095C945.047 713.175 947.267 715.295 950.327 715.295C953.387 715.295 955.607 713.175 955.607 710.095C955.607 707.015 953.387 704.895 950.327 704.895C947.267 704.895 945.047 707.015 945.047 710.095ZM947.487 710.095C947.487 708.295 948.647 707.075 950.327 707.075C952.007 707.075 953.167 708.295 953.167 710.095C953.167 711.895 952.007 713.115 950.327 713.115C948.647 713.115 947.487 711.895 947.487 710.095ZM963.741 705.135C963.341 705.035 963.001 704.995 962.661 704.995C961.341 704.995 960.401 705.655 959.981 706.635L959.841 705.195H957.541V715.055H959.981V710.255C959.981 708.335 961.081 707.395 962.841 707.395H963.741V705.135ZM964.633 712.055C964.633 713.995 966.193 715.315 968.653 715.315C971.093 715.315 972.793 714.075 972.793 712.075C972.793 710.555 971.953 709.795 970.293 709.415L968.513 708.995C967.673 708.795 967.233 708.435 967.233 707.875C967.233 707.135 967.793 706.695 968.753 706.695C969.693 706.695 970.253 707.235 970.273 708.075H972.593C972.573 706.155 971.073 704.875 968.853 704.875C966.573 704.875 964.933 706.035 964.933 707.975C964.933 709.555 965.793 710.395 967.573 710.795L969.353 711.215C970.233 711.415 970.493 711.775 970.493 712.275C970.493 712.995 969.873 713.455 968.733 713.455C967.613 713.455 966.973 712.915 966.953 712.055H964.633ZM989.796 715.055H992.636L990.256 712.375C990.996 711.215 991.396 709.755 991.396 708.055H989.016C989.016 709.015 988.876 709.855 988.616 710.555L985.676 707.255C987.496 706.035 988.276 704.875 988.276 703.415C988.276 701.515 986.796 700.195 984.656 700.195C982.496 700.195 980.916 701.595 980.916 703.535C980.916 704.635 981.356 705.535 982.496 706.855C980.256 707.935 979.096 709.395 979.096 711.175C979.096 713.635 981.236 715.315 984.416 715.315C986.176 715.315 987.656 714.835 988.816 713.955L989.796 715.055ZM983.236 703.515C983.236 702.655 983.776 702.135 984.656 702.135C985.496 702.135 986.016 702.635 986.016 703.495C986.016 704.495 985.516 705.315 984.496 705.915C983.556 704.835 983.236 704.235 983.236 703.515ZM981.676 710.935C981.676 709.795 982.296 708.955 983.676 708.175L987.396 712.355C986.696 712.915 985.796 713.215 984.696 713.215C982.816 713.215 981.676 712.355 981.676 710.935ZM1004.89 710.015C1007.81 710.015 1009.73 708.035 1009.73 705.215C1009.73 702.355 1007.83 700.435 1004.89 700.435H999.112V715.055H1001.67V710.015H1004.89ZM1004.39 702.715C1006.09 702.715 1007.05 703.595 1007.05 705.195C1007.05 706.795 1006.11 707.735 1004.35 707.735H1001.67V702.715H1004.39ZM1014.08 715.315C1015.62 715.315 1016.96 714.615 1017.38 713.595L1017.56 715.055H1019.7V709.055C1019.7 706.315 1018.06 704.875 1015.4 704.875C1012.72 704.875 1010.96 706.275 1010.96 708.415H1013.04C1013.04 707.375 1013.84 706.775 1015.28 706.775C1016.52 706.775 1017.32 707.315 1017.32 708.655V708.875L1014.36 709.095C1012.02 709.275 1010.7 710.415 1010.7 712.235C1010.7 714.095 1011.98 715.315 1014.08 715.315ZM1014.88 713.475C1013.78 713.475 1013.18 713.035 1013.18 712.135C1013.18 711.335 1013.76 710.835 1015.28 710.695L1017.34 710.535V711.055C1017.34 712.575 1016.38 713.475 1014.88 713.475ZM1028.29 705.135C1027.89 705.035 1027.55 704.995 1027.21 704.995C1025.89 704.995 1024.95 705.655 1024.53 706.635L1024.39 705.195H1022.09V715.055H1024.53V710.255C1024.53 708.335 1025.63 707.395 1027.39 707.395H1028.29V705.135ZM1033.69 715.055V707.215H1035.61V705.175H1033.69V702.095H1031.25V705.175H1029.35V707.215H1031.25V715.055H1033.69ZM1039.57 715.055V709.735C1039.57 708.135 1040.49 707.095 1041.99 707.095C1043.25 707.095 1044.07 707.895 1044.07 709.555V715.055H1046.51V708.975C1046.51 706.415 1045.23 704.875 1042.75 704.875C1041.41 704.875 1040.21 705.455 1039.59 706.455L1039.39 705.175H1037.13V715.055H1039.57ZM1053.33 715.315C1055.91 715.315 1057.71 714.015 1058.13 711.855H1055.87C1055.59 712.795 1054.71 713.315 1053.37 713.315C1051.75 713.315 1050.83 712.435 1050.65 710.695L1058.09 710.675V709.935C1058.09 706.855 1056.21 704.875 1053.25 704.875C1050.35 704.875 1048.33 707.015 1048.33 710.115C1048.33 713.175 1050.39 715.315 1053.33 715.315ZM1053.27 706.875C1054.73 706.875 1055.67 707.775 1055.67 709.135H1050.71C1050.95 707.655 1051.83 706.875 1053.27 706.875ZM1066.24 705.135C1065.84 705.035 1065.5 704.995 1065.16 704.995C1063.84 704.995 1062.9 705.655 1062.48 706.635L1062.34 705.195H1060.04V715.055H1062.48V710.255C1062.48 708.335 1063.58 707.395 1065.34 707.395H1066.24V705.135ZM1067.13 712.055C1067.13 713.995 1068.69 715.315 1071.15 715.315C1073.59 715.315 1075.29 714.075 1075.29 712.075C1075.29 710.555 1074.45 709.795 1072.79 709.415L1071.01 708.995C1070.17 708.795 1069.73 708.435 1069.73 707.875C1069.73 707.135 1070.29 706.695 1071.25 706.695C1072.19 706.695 1072.75 707.235 1072.77 708.075H1075.09C1075.07 706.155 1073.57 704.875 1071.35 704.875C1069.07 704.875 1067.43 706.035 1067.43 707.975C1067.43 709.555 1068.29 710.395 1070.07 710.795L1071.85 711.215C1072.73 711.415 1072.99 711.775 1072.99 712.275C1072.99 712.995 1072.37 713.455 1071.23 713.455C1070.11 713.455 1069.47 712.915 1069.45 712.055H1067.13Z" fill="white"/>
<path d="M1013.48 323.224H1017.76V335.484H1020.32V323.224H1024.6V320.864H1013.48V323.224ZM1028.94 335.744C1031.52 335.744 1033.32 334.444 1033.74 332.284H1031.48C1031.2 333.224 1030.32 333.744 1028.98 333.744C1027.36 333.744 1026.44 332.864 1026.26 331.124L1033.7 331.104V330.364C1033.7 327.284 1031.82 325.304 1028.86 325.304C1025.96 325.304 1023.94 327.444 1023.94 330.544C1023.94 333.604 1026 335.744 1028.94 335.744ZM1028.88 327.304C1030.34 327.304 1031.28 328.204 1031.28 329.564H1026.32C1026.56 328.084 1027.44 327.304 1028.88 327.304ZM1038.49 335.744C1040.03 335.744 1041.37 335.044 1041.79 334.024L1041.97 335.484H1044.11V329.484C1044.11 326.744 1042.47 325.304 1039.81 325.304C1037.13 325.304 1035.37 326.704 1035.37 328.844H1037.45C1037.45 327.804 1038.25 327.204 1039.69 327.204C1040.93 327.204 1041.73 327.744 1041.73 329.084V329.304L1038.77 329.524C1036.43 329.704 1035.11 330.844 1035.11 332.664C1035.11 334.524 1036.39 335.744 1038.49 335.744ZM1039.29 333.904C1038.19 333.904 1037.59 333.464 1037.59 332.564C1037.59 331.764 1038.17 331.264 1039.69 331.124L1041.75 330.964V331.484C1041.75 333.004 1040.79 333.904 1039.29 333.904ZM1048.95 335.484V329.884C1048.95 328.284 1049.89 327.524 1051.05 327.524C1052.21 327.524 1052.95 328.264 1052.95 329.644V335.484H1055.39V329.884C1055.39 328.264 1056.29 327.504 1057.47 327.504C1058.63 327.504 1059.39 328.244 1059.39 329.664V335.484H1061.81V329.024C1061.81 326.744 1060.49 325.304 1058.09 325.304C1056.59 325.304 1055.43 326.044 1054.93 327.184C1054.41 326.044 1053.37 325.304 1051.87 325.304C1050.45 325.304 1049.45 325.944 1048.95 326.764L1048.75 325.604H1046.51V335.484H1048.95Z" fill="white"/>
<path d="M662.699 103.638H666.979V115.898H669.539V103.638H673.819V101.278H662.699V103.638ZM680.425 105.978C680.025 105.878 679.685 105.838 679.345 105.838C678.025 105.838 677.085 106.498 676.665 107.478L676.525 106.038H674.225V115.898H676.665V111.098C676.665 109.178 677.765 108.238 679.525 108.238H680.425V105.978ZM686.164 116.158C688.744 116.158 690.544 114.858 690.964 112.698H688.704C688.424 113.638 687.544 114.158 686.204 114.158C684.584 114.158 683.664 113.278 683.484 111.538L690.924 111.518V110.778C690.924 107.698 689.044 105.718 686.084 105.718C683.184 105.718 681.164 107.858 681.164 110.958C681.164 114.018 683.224 116.158 686.164 116.158ZM686.104 107.718C687.564 107.718 688.504 108.618 688.504 109.978H683.544C683.784 108.498 684.664 107.718 686.104 107.718ZM695.72 116.158C697.26 116.158 698.6 115.458 699.02 114.438L699.2 115.898H701.34V109.898C701.34 107.158 699.7 105.718 697.04 105.718C694.36 105.718 692.6 107.118 692.6 109.258H694.68C694.68 108.218 695.48 107.618 696.92 107.618C698.16 107.618 698.96 108.158 698.96 109.498V109.718L696 109.938C693.66 110.118 692.34 111.258 692.34 113.078C692.34 114.938 693.62 116.158 695.72 116.158ZM696.52 114.318C695.42 114.318 694.82 113.878 694.82 112.978C694.82 112.178 695.4 111.678 696.92 111.538L698.98 111.378V111.898C698.98 113.418 698.02 114.318 696.52 114.318ZM702.977 112.898C702.977 114.838 704.537 116.158 706.997 116.158C709.437 116.158 711.137 114.918 711.137 112.918C711.137 111.398 710.297 110.638 708.637 110.258L706.857 109.838C706.017 109.638 705.577 109.278 705.577 108.718C705.577 107.978 706.137 107.538 707.097 107.538C708.037 107.538 708.597 108.078 708.617 108.918H710.937C710.917 106.998 709.417 105.718 707.197 105.718C704.917 105.718 703.277 106.878 703.277 108.818C703.277 110.398 704.137 111.238 705.917 111.638L707.697 112.058C708.577 112.258 708.837 112.618 708.837 113.118C708.837 113.838 708.217 114.298 707.077 114.298C705.957 114.298 705.317 113.758 705.297 112.898H702.977ZM719.694 106.018V111.198C719.694 113.078 718.954 113.978 717.414 113.978C716.054 113.978 715.314 113.218 715.314 111.338V106.018H712.874V112.198C712.874 114.618 714.214 116.158 716.494 116.158C717.814 116.158 719.094 115.518 719.694 114.578L719.874 115.898H722.134V106.018H719.694ZM730.855 105.978C730.455 105.878 730.115 105.838 729.775 105.838C728.455 105.838 727.515 106.498 727.095 107.478L726.955 106.038H724.655V115.898H727.095V111.098C727.095 109.178 728.195 108.238 729.955 108.238H730.855V105.978ZM731.939 120.478C732.479 120.618 733.079 120.698 733.759 120.698C735.379 120.698 736.419 119.938 737.159 118.098L741.999 106.018H739.479L736.799 113.218L734.259 106.018H731.679L735.659 116.318L735.379 117.058C734.959 118.218 734.359 118.438 733.399 118.438H731.939V120.478Z" fill="white"/>
<path d="M2.32469 421.058C2.32469 424.498 4.56469 426.638 8.10469 426.638C11.6647 426.638 13.9047 424.478 13.9047 421.058V411.778H11.3447V420.898C11.3447 422.978 10.1847 424.158 8.10469 424.158C6.02469 424.158 4.88469 422.998 4.88469 420.898V411.778H2.32469V421.058ZM15.7969 423.398C15.7969 425.338 17.3569 426.658 19.8169 426.658C22.2569 426.658 23.9569 425.418 23.9569 423.418C23.9569 421.898 23.1169 421.138 21.4569 420.758L19.6769 420.338C18.8369 420.138 18.3969 419.778 18.3969 419.218C18.3969 418.478 18.9569 418.038 19.9169 418.038C20.8569 418.038 21.4169 418.578 21.4369 419.418H23.7569C23.7369 417.498 22.2369 416.218 20.0169 416.218C17.7369 416.218 16.0969 417.378 16.0969 419.318C16.0969 420.898 16.9569 421.738 18.7369 422.138L20.5169 422.558C21.3969 422.758 21.6569 423.118 21.6569 423.618C21.6569 424.338 21.0369 424.798 19.8969 424.798C18.7769 424.798 18.1369 424.258 18.1169 423.398H15.7969ZM30.2347 426.658C32.8147 426.658 34.6147 425.358 35.0347 423.198H32.7747C32.4947 424.138 31.6147 424.658 30.2747 424.658C28.6547 424.658 27.7347 423.778 27.5547 422.038L34.9947 422.018V421.278C34.9947 418.198 33.1147 416.218 30.1547 416.218C27.2547 416.218 25.2347 418.358 25.2347 421.458C25.2347 424.518 27.2947 426.658 30.2347 426.658ZM30.1747 418.218C31.6347 418.218 32.5747 419.118 32.5747 420.478H27.6147C27.8547 418.998 28.7347 418.218 30.1747 418.218ZM43.1475 416.478C42.7475 416.378 42.4075 416.338 42.0675 416.338C40.7475 416.338 39.8075 416.998 39.3875 417.978L39.2475 416.538H36.9475V426.398H39.3875V421.598C39.3875 419.678 40.4875 418.738 42.2475 418.738H43.1475V416.478ZM53.1097 426.398V420.938H56.2497L58.7297 426.398H61.5297L58.7497 420.398C60.4697 419.698 61.3897 418.298 61.3897 416.338C61.3897 413.458 59.4497 411.778 56.1297 411.778H50.5497V426.398H53.1097ZM53.1097 414.058H56.1297C57.7497 414.058 58.7097 414.878 58.7097 416.338C58.7097 417.818 57.7497 418.678 56.1297 418.678H53.1097V414.058ZM67.305 426.658C69.885 426.658 71.685 425.358 72.105 423.198H69.845C69.565 424.138 68.685 424.658 67.345 424.658C65.725 424.658 64.805 423.778 64.625 422.038L72.065 422.018V421.278C72.065 418.198 70.185 416.218 67.225 416.218C64.325 416.218 62.305 418.358 62.305 421.458C62.305 424.518 64.365 426.658 67.305 426.658ZM67.245 418.218C68.705 418.218 69.645 419.118 69.645 420.478H64.685C64.925 418.998 65.805 418.218 67.245 418.218ZM75.7681 426.398H78.1481L79.5081 422.158C80.0081 420.538 80.1881 419.838 80.2881 419.378C80.3681 419.878 80.5881 420.818 80.9881 422.118L82.3481 426.398H84.6281L88.0481 416.518H85.4681L84.1481 420.758C83.9681 421.378 83.6481 422.558 83.4881 423.298C83.3681 422.638 82.9681 421.158 82.8481 420.758L81.5281 416.518H79.0481L77.6881 420.758C77.3681 421.738 77.1881 422.358 77.0081 423.318C76.8281 422.398 76.6281 421.538 76.4081 420.758L75.1081 416.518H72.5681L75.7681 426.398ZM91.9773 426.658C93.5173 426.658 94.8573 425.958 95.2773 424.938L95.4573 426.398H97.5973V420.398C97.5973 417.658 95.9573 416.218 93.2973 416.218C90.6173 416.218 88.8573 417.618 88.8573 419.758H90.9373C90.9373 418.718 91.7373 418.118 93.1773 418.118C94.4173 418.118 95.2173 418.658 95.2173 419.998V420.218L92.2573 420.438C89.9173 420.618 88.5973 421.758 88.5973 423.578C88.5973 425.438 89.8773 426.658 91.9773 426.658ZM92.7773 424.818C91.6773 424.818 91.0773 424.378 91.0773 423.478C91.0773 422.678 91.6573 422.178 93.1773 422.038L95.2373 421.878V422.398C95.2373 423.918 94.2773 424.818 92.7773 424.818ZM106.194 416.478C105.794 416.378 105.454 416.338 105.114 416.338C103.794 416.338 102.854 416.998 102.434 417.978L102.294 416.538H99.9944V426.398H102.434V421.598C102.434 419.678 103.534 418.738 105.294 418.738H106.194V416.478ZM111.574 426.658C113.074 426.658 114.354 425.998 114.954 424.858L115.114 426.398H117.354V411.518H114.934V417.778C114.314 416.798 113.094 416.218 111.714 416.218C108.734 416.218 106.934 418.418 106.934 421.498C106.934 424.558 108.714 426.658 111.574 426.658ZM112.114 424.418C110.414 424.418 109.374 423.178 109.374 421.418C109.374 419.658 110.414 418.398 112.114 418.398C113.814 418.398 114.914 419.638 114.914 421.418C114.914 423.198 113.814 424.418 112.114 424.418ZM119.137 423.398C119.137 425.338 120.697 426.658 123.157 426.658C125.597 426.658 127.297 425.418 127.297 423.418C127.297 421.898 126.457 421.138 124.797 420.758L123.017 420.338C122.177 420.138 121.737 419.778 121.737 419.218C121.737 418.478 122.297 418.038 123.257 418.038C124.197 418.038 124.757 418.578 124.777 419.418H127.097C127.077 417.498 125.577 416.218 123.357 416.218C121.077 416.218 119.437 417.378 119.437 419.318C119.437 420.898 120.297 421.738 122.077 422.138L123.857 422.558C124.737 422.758 124.997 423.118 124.997 423.618C124.997 424.338 124.377 424.798 123.237 424.798C122.117 424.798 121.477 424.258 121.457 423.398H119.137Z" fill="white"/>
<path d="M131.866 337.308C131.866 339.548 133.166 340.968 135.646 341.508L137.966 342.028C139.166 342.288 139.666 342.868 139.666 343.848C139.666 345.068 138.586 345.808 136.886 345.808C135.246 345.808 134.246 345.068 134.226 343.828H131.666C131.726 346.448 133.766 348.108 136.886 348.108C140.106 348.108 142.226 346.348 142.226 343.628C142.226 341.448 141.006 340.168 138.506 339.628L136.206 339.128C134.986 338.848 134.426 338.268 134.426 337.228C134.426 336.008 135.446 335.248 137.026 335.248C138.466 335.248 139.366 335.988 139.426 337.248H141.986C141.906 334.608 140.026 332.968 137.066 332.968C133.986 332.968 131.866 334.748 131.866 337.308ZM148.602 348.108C151.182 348.108 152.982 346.808 153.402 344.648H151.142C150.862 345.588 149.982 346.108 148.642 346.108C147.022 346.108 146.102 345.228 145.922 343.488L153.362 343.468V342.728C153.362 339.648 151.482 337.668 148.522 337.668C145.622 337.668 143.602 339.808 143.602 342.908C143.602 345.968 145.662 348.108 148.602 348.108ZM148.542 339.668C150.002 339.668 150.942 340.568 150.942 341.928H145.982C146.222 340.448 147.102 339.668 148.542 339.668ZM159.735 348.108C162.315 348.108 164.115 346.808 164.535 344.648H162.275C161.995 345.588 161.115 346.108 159.775 346.108C158.155 346.108 157.235 345.228 157.055 343.488L164.495 343.468V342.728C164.495 339.648 162.615 337.668 159.655 337.668C156.755 337.668 154.735 339.808 154.735 342.908C154.735 345.968 156.795 348.108 159.735 348.108ZM159.675 339.668C161.135 339.668 162.075 340.568 162.075 341.928H157.115C157.355 340.448 158.235 339.668 159.675 339.668ZM170.508 348.108C172.008 348.108 173.288 347.448 173.888 346.308L174.048 347.848H176.288V332.968H173.868V339.228C173.248 338.248 172.028 337.668 170.648 337.668C167.668 337.668 165.868 339.868 165.868 342.948C165.868 346.008 167.648 348.108 170.508 348.108ZM171.048 345.868C169.348 345.868 168.308 344.628 168.308 342.868C168.308 341.108 169.348 339.848 171.048 339.848C172.748 339.848 173.848 341.088 173.848 342.868C173.848 344.648 172.748 345.868 171.048 345.868Z" fill="white"/>
<path d="M626.478 420.671C552.265 356.358 455.647 373.462 419.416 390.589L410.484 454.25C491.378 411.036 582.037 454.236 617.06 481.135L626.478 420.671Z" fill="#FF6683"/>
<path d="M808.922 321.198C678.693 169.504 378.165 194.309 249.367 225.316L419.666 390.606C515.835 351.68 597.598 394.422 626.458 420.659L808.922 321.198Z" fill="#FF849B"/>
<path d="M617.117 480.426L626.533 421.312L808.434 321.918L809.631 374.23L617.117 480.426Z" fill="#870804" stroke="#870804"/>
<path d="M249.436 225.293L248.305 308.835L410.478 454.268L419.644 390.587L249.436 225.293Z" fill="#FF6683"/>
<path d="M362.409 365.513C360.861 365.416 351.018 373.399 346.703 377.23L394.838 406.143L405.639 397.542L362.409 365.513Z" fill="#4E0202"/>
<path d="M402.253 455.482C401.286 455.675 396.218 458.989 393.879 460.803L394.737 406.095L405.595 397.301C404.829 416.493 403.22 455.288 402.253 455.482Z" fill="#460101"/>
<path d="M381.124 354.035C378.318 354.713 367.171 362.141 362.332 365.488L405.636 397.542C408.152 394.639 415.263 391.285 418.207 390.076L381.124 354.035Z" fill="#300101"/>
<path d="M409.442 451.309C408.377 451.793 403.805 454.51 402.273 455.478L405.469 397.416C407.21 394.706 414.981 391.336 418.166 390.006L409.442 451.309Z" fill="#290202"/>
<path d="M393.895 460.806C393.024 461.387 387.997 465.692 385.658 467.587L384.703 416.535L394.743 405.891L393.895 460.806Z" fill="#630202"/>
<path d="M346.719 377.223L394.74 406.011L384.701 416.534L332.645 392.184C337.773 385.797 344.179 379.319 346.719 377.223Z" fill="#6F0101"/>
<path d="M332.771 392.176C324.288 400.659 316.36 416.602 313.641 423.196L371.518 438.264C376.249 427.986 382.462 419.434 384.977 416.443L332.771 392.176Z" fill="#800000"/>
<path d="M385.664 467.608C385.028 467.926 378.117 475.088 374.742 478.63L371.465 438.316C372.418 433.55 380.666 421.833 384.671 416.57C385.267 433.45 386.299 467.29 385.664 467.608Z" fill="#700404"/>
<path d="M371.479 438.223L284.321 415.215C278.586 460.573 285.904 484.137 289.07 492.626L368.768 485.94C363.842 459.198 368.547 442.973 371.479 438.223Z" fill="#5A0104"/>
<path d="M374.748 478.543C373.129 480.242 369.002 485.351 369.002 486.322C369.002 487.536 361.882 455.916 371.086 438.882L371.469 438.266L374.748 478.543Z" fill="#520306"/>
<path d="M289.086 492.654C281.124 468.572 282.533 431.28 284.475 415.42C268.745 474.071 273.389 526.765 277.677 545.782L289.086 492.654Z" fill="#520306"/>
<path d="M529.387 440.77C436.092 420.557 383.207 462.15 368.426 485.473C394.431 644.769 586.641 593.669 652.484 541.84C650.325 516.572 622.682 460.984 529.387 440.77Z" fill="black"/>
<path d="M289.069 492.582L277.406 545.831C281.265 563.931 296.859 605.745 317.979 613.999L355.606 579.77L331.782 560.872C306.113 534.908 292.614 504.363 289.069 492.582Z" fill="#700408"/>
<path d="M334.822 563.702C309.827 542.927 293.804 507.568 289.07 492.623L369.307 485.867C371.032 500.354 389.764 523.186 398.73 532.255L334.822 563.702Z" fill="#860206"/>
<path d="M624.364 418.82L615.305 479.673C623.689 486.061 636.674 504.489 642.33 513.139L663.205 488.713C663.205 451.584 636.507 426.472 624.364 418.82Z" fill="#FF4B6D"/>
<path d="M864.796 509.11C868.965 427.517 809.574 360.497 779.796 337.047L625.68 419.168C657.245 445.075 664.032 476.509 662.915 488.917L864.796 509.11Z" fill="#FF617F"/>
<path d="M864.725 509.023L854.598 581.295L652.902 558.907L662.283 488.748L864.725 509.023Z" fill="#DC193E"/>
<path d="M642.293 513.087L649.494 529.265C659.082 518.731 661.377 497.893 661.377 488.953L642.293 513.087Z" fill="#DC193E"/>
<path d="M719.037 661.114L709.673 721.979L689.215 704.223L609.598 562.795L719.037 661.114Z" fill="#DC1C40"/>
<path d="M661.377 488.355C659.471 532.696 626.412 556.694 610.121 563.151L718.94 661.07C806.162 616.69 828.087 537.295 827.987 504.914L661.377 488.355Z" fill="#EF3558"/>
<path d="M718.889 660.89L709.352 721.978C801.132 676.207 830.212 571.897 824.253 531.967C808.344 600.338 747.694 647.978 718.889 660.89Z" fill="#DC1C40"/>
<path d="M396.611 692.638C362.538 681.888 320.147 649.607 303.211 634.81L310.561 571.215C333.838 598.724 391.27 627.587 416.134 634.578L396.611 692.638Z" fill="#591105"/>
<path d="M398.248 663.249L395.039 721.394C560.113 760.112 659.531 725.897 688.605 703.949L698.078 642.887C611.629 691.393 454.729 677.207 398.248 663.249Z" fill="#990611"/>
<path d="M456.625 567.823L398.711 663.503C542.551 699.656 665.199 665.676 698.179 642.51L609.546 563.055C556.261 590.117 484.943 577.573 456.625 567.823Z" fill="#B60210"/>
<path d="M397.309 530.797L310.609 571.385C329.957 596.595 388.532 627.365 416.315 634.874L456.672 567.796C423.824 554.677 403.291 537.884 397.309 530.797Z" fill="#9E0208"/>
<path d="M530.306 195.356L534.389 195.356L534.389 191.273L530.306 191.273L530.306 195.356ZM598.311 127.352V126.852H598.103L597.957 126.998L598.311 127.352ZM532.701 193.668L598.664 127.705L597.957 126.998L531.994 192.961L532.701 193.668ZM598.311 127.852H742.891V126.852H598.311V127.852Z" fill="white"/>
<path d="M850.361 412.243L854.444 412.243L854.444 408.16L850.361 408.16L850.361 412.243ZM918.365 344.238V343.738H918.158L918.012 343.885L918.365 344.238ZM852.756 410.555L918.719 344.592L918.012 343.885L852.049 409.848L852.756 410.555ZM918.365 344.738H1062.95V343.738H918.365V344.738Z" fill="white"/>
<path d="M806.142 659.031L810.225 659.031L810.225 663.113L806.142 663.113L806.142 659.031ZM874.146 727.035V727.535H873.939L873.793 727.389L874.146 727.035ZM808.537 660.719L874.5 726.682L873.793 727.389L807.83 661.426L808.537 660.719ZM874.146 726.535H1075.89V727.535H874.146V726.535Z" fill="white"/>
<path d="M544.142 754.347L548.225 754.347L548.225 758.43L544.142 758.43L544.142 754.347ZM612.146 822.352V822.852H611.939L611.793 822.705L612.146 822.352ZM546.537 756.035L612.5 821.998L611.793 822.705L545.83 756.742L546.537 756.035ZM612.146 821.852H756.727V822.852H612.146V821.852Z" fill="white"/>
<path d="M348.744 685.004L344.662 685.004L344.662 689.086L348.744 689.086L348.744 685.004ZM280.74 753.008V753.508H280.947L281.094 753.361L280.74 753.008ZM346.35 686.691L280.387 752.654L281.094 753.361L347.057 687.398L346.35 686.691ZM280.74 752.508H170.959V753.508H280.74V752.508Z" fill="white"/>
<path d="M275.444 566.871L271.361 566.871L271.361 570.953L275.444 570.953L275.444 566.871ZM207.439 634.875V635.375H207.647L207.793 635.229L207.439 634.875ZM273.049 568.558L207.086 634.521L207.793 635.229L273.756 569.266L273.049 568.558ZM207.439 634.375H0.80426V635.375H207.439V634.375Z" fill="white"/>
<path d="M269.037 487.023L264.955 487.023L264.955 482.94L269.037 482.94L269.037 487.023ZM217.472 435.457V434.957H217.679L217.826 435.103L217.472 435.457ZM266.643 485.335L217.118 435.811L217.826 435.103L267.35 484.628L266.643 485.335ZM217.472 435.957H1.36261V434.957H217.472V435.957Z" fill="white"/>
<path d="M340.94 424.782L336.857 424.782L336.857 420.699L340.94 420.699L340.94 424.782ZM272.936 356.777V356.277H273.143L273.289 356.424L272.936 356.777ZM338.545 423.094L272.582 357.131L273.289 356.424L339.252 422.387L338.545 423.094ZM272.936 357.277H131.088V356.277H272.936V357.277Z" fill="white"/>
<path d="M357.297 392.347L353.266 391.699L353.914 387.668L357.945 388.317L357.297 392.347ZM285.953 293.645V293.145L286.209 293.145L286.358 293.352L285.953 293.645ZM355.2 390.301L285.548 293.938L286.358 293.352L356.011 389.715L355.2 390.301ZM285.953 294.145L152.341 294.145V293.145L285.953 293.145V294.145Z" fill="white"/>
<path d="M374.882 388.078L371.129 386.472L372.735 382.719L376.488 384.325L374.882 388.078ZM307.846 220.707V220.207H308.184L308.31 220.521L307.846 220.707ZM373.344 385.584L307.382 220.893L308.31 220.521L374.273 385.212L373.344 385.584ZM307.846 221.207H101.211V220.207H307.846V221.207Z" fill="white"/>
<defs>
<linearGradient id="paint0_linear_1512_3038" x1="1099.78" y1="152.46" x2="1404.52" y2="152.46" gradientUnits="userSpaceOnUse">
<stop stop-color="#DF0305"/>
<stop offset="1" stop-color="#FF0071"/>
</linearGradient>
</defs>
</svg>
