<svg width="166" height="166" viewBox="0 0 166 166" fill="none" xmlns="http://www.w3.org/2000/svg">
<circle cx="83.2388" cy="82.8223" r="82.5317" fill="url(#paint0_linear_740_3860)"/>
<circle cx="83.2388" cy="82.8223" r="82.5317" fill="url(#paint1_linear_740_3860)" fill-opacity="0.6"/>
<circle cx="83.2388" cy="82.8223" r="77.0317" stroke="black" stroke-opacity="0.3" stroke-width="11"/>
<circle cx="83.2388" cy="82.8223" r="82.5317" fill="url(#paint2_linear_740_3860)"/>
<circle cx="83.2388" cy="82.8223" r="82.5317" fill="url(#paint3_linear_740_3860)" fill-opacity="0.8"/>
<circle cx="83.2388" cy="82.8223" r="77.0317" stroke="black" stroke-opacity="0.3" stroke-width="11"/>
<mask id="path-5-outside-1_740_3860" maskUnits="userSpaceOnUse" x="33.9453" y="43.1035" width="99" height="80" fill="black">
<rect fill="white" x="33.9453" y="43.1035" width="99" height="80"/>
<path fill-rule="evenodd" clip-rule="evenodd" d="M108.348 45.1035H127.53L98.3874 77.9688H118.297V90.4794H98.849L126.776 120.541H106.3L85.5009 94.8921L84.9606 90.4794H81.1194L80.7591 94.8921L61.4687 120.541H40.3463L67.0575 90.4794H47.6055V77.9688H66.4521L38.9453 45.1035H58.559L80.2203 73.2309L80.9818 77.9688H85.0396L85.7165 73.2309L108.348 45.1035Z"/>
</mask>
<path fill-rule="evenodd" clip-rule="evenodd" d="M108.348 45.1035H127.53L98.3874 77.9688H118.297V90.4794H98.849L126.776 120.541H106.3L85.5009 94.8921L84.9606 90.4794H81.1194L80.7591 94.8921L61.4687 120.541H40.3463L67.0575 90.4794H47.6055V77.9688H66.4521L38.9453 45.1035H58.559L80.2203 73.2309L80.9818 77.9688H85.0396L85.7165 73.2309L108.348 45.1035Z" fill="url(#paint4_linear_740_3860)"/>
<path d="M127.53 45.1035L129.027 46.4304L131.977 43.1035H127.53V45.1035ZM108.348 45.1035V43.1035H107.39L106.789 43.8498L108.348 45.1035ZM98.3874 77.9688L96.8909 76.6418L93.9408 79.9688H98.3874V77.9688ZM118.297 77.9688H120.297V75.9688H118.297V77.9688ZM118.297 90.4794V92.4794H120.297V90.4794H118.297ZM98.849 90.4794V88.4794H94.2612L97.3837 91.8406L98.849 90.4794ZM126.776 120.541V122.541H131.364L128.241 119.18L126.776 120.541ZM106.3 120.541L104.747 121.801L105.347 122.541H106.3V120.541ZM85.5009 94.8921L83.5157 95.1352L83.5856 95.7056L83.9475 96.1519L85.5009 94.8921ZM84.9606 90.4794L86.9458 90.2363L86.7306 88.4794H84.9606V90.4794ZM81.1194 90.4794V88.4794H79.276L79.126 90.3167L81.1194 90.4794ZM80.7591 94.8921L82.3575 96.0943L82.7054 95.6317L82.7525 95.0549L80.7591 94.8921ZM61.4687 120.541V122.541H62.4671L63.0671 121.743L61.4687 120.541ZM40.3463 120.541L38.8512 119.212L35.8937 122.541H40.3463V120.541ZM67.0575 90.4794L68.5526 91.8078L71.5101 88.4794H67.0575V90.4794ZM47.6055 90.4794H45.6055V92.4794H47.6055V90.4794ZM47.6055 77.9688V75.9688H45.6055V77.9688H47.6055ZM66.4521 77.9688V79.9688H70.7341L67.9858 76.6851L66.4521 77.9688ZM38.9453 45.1035V43.1035H34.6633L37.4116 46.3872L38.9453 45.1035ZM58.559 45.1035L60.1436 43.8832L59.5431 43.1035H58.559V45.1035ZM80.2203 73.2309L82.195 72.9135L82.1145 72.4126L81.8049 72.0106L80.2203 73.2309ZM80.9818 77.9688L79.0071 78.2861L79.2775 79.9688H80.9818V77.9688ZM85.0396 77.9688V79.9688H86.7742L87.0195 78.2516L85.0396 77.9688ZM85.7165 73.2309L84.1582 71.9771L83.8142 72.4047L83.7366 72.948L85.7165 73.2309ZM127.53 43.1035H108.348V47.1035H127.53V43.1035ZM99.8838 79.2957L129.027 46.4304L126.034 43.7766L96.8909 76.6418L99.8838 79.2957ZM98.3874 79.9688H118.297V75.9688H98.3874V79.9688ZM116.297 77.9688V90.4794H120.297V77.9688H116.297ZM118.297 88.4794H98.849V92.4794H118.297V88.4794ZM128.241 119.18L100.314 89.1182L97.3837 91.8406L125.311 121.902L128.241 119.18ZM106.3 122.541H126.776V118.541H106.3V122.541ZM83.9475 96.1519L104.747 121.801L107.854 119.281L87.0543 93.6324L83.9475 96.1519ZM82.9754 90.7225L83.5157 95.1352L87.4861 94.6491L86.9458 90.2363L82.9754 90.7225ZM84.9606 88.4794H81.1194V92.4794H84.9606V88.4794ZM82.7525 95.0549L83.1127 90.6421L79.126 90.3167L78.7658 94.7294L82.7525 95.0549ZM63.0671 121.743L82.3575 96.0943L79.1608 93.69L59.8704 119.339L63.0671 121.743ZM40.3463 122.541H61.4687V118.541H40.3463V122.541ZM65.5625 89.1509L38.8512 119.212L41.8414 121.869L68.5526 91.8078L65.5625 89.1509ZM67.0575 88.4794H47.6055V92.4794H67.0575V88.4794ZM49.6055 90.4794V77.9688H45.6055V90.4794H49.6055ZM47.6055 79.9688H66.4521V75.9688H47.6055V79.9688ZM37.4116 46.3872L64.9184 79.2524L67.9858 76.6851L40.479 43.8199L37.4116 46.3872ZM58.559 43.1035H38.9453V47.1035H58.559V43.1035ZM81.8049 72.0106L60.1436 43.8832L56.9744 46.3238L78.6357 74.4512L81.8049 72.0106ZM82.9564 77.6514L82.195 72.9135L78.2456 73.5482L79.0071 78.2861L82.9564 77.6514ZM80.9818 79.9688H85.0396V75.9688H80.9818V79.9688ZM83.7366 72.948L83.0597 77.6859L87.0195 78.2516L87.6964 73.5137L83.7366 72.948ZM106.789 43.8498L84.1582 71.9771L87.2747 74.4846L109.906 46.3573L106.789 43.8498Z" fill="url(#paint5_linear_740_3860)" fill-opacity="0.29" mask="url(#path-5-outside-1_740_3860)"/>
<defs>
<linearGradient id="paint0_linear_740_3860" x1="0.707031" y1="82.8223" x2="165.77" y2="82.8223" gradientUnits="userSpaceOnUse">
<stop stop-color="#DF0305"/>
<stop offset="1" stop-color="#FF0071"/>
</linearGradient>
<linearGradient id="paint1_linear_740_3860" x1="83.2388" y1="0.290527" x2="83.2388" y2="165.354" gradientUnits="userSpaceOnUse">
<stop/>
<stop offset="1" stop-opacity="0"/>
</linearGradient>
<linearGradient id="paint2_linear_740_3860" x1="0.707031" y1="82.8223" x2="165.77" y2="82.8223" gradientUnits="userSpaceOnUse">
<stop stop-color="#DF0305"/>
<stop offset="1" stop-color="#FF0071"/>
</linearGradient>
<linearGradient id="paint3_linear_740_3860" x1="83.2388" y1="160.479" x2="56.147" y2="9.52556" gradientUnits="userSpaceOnUse">
<stop/>
<stop offset="1" stop-opacity="0"/>
</linearGradient>
<linearGradient id="paint4_linear_740_3860" x1="83.2378" y1="45.1035" x2="83.2378" y2="120.541" gradientUnits="userSpaceOnUse">
<stop stop-color="white"/>
<stop offset="1" stop-color="white" stop-opacity="0.13"/>
</linearGradient>
<linearGradient id="paint5_linear_740_3860" x1="83.2378" y1="45.1035" x2="83.2378" y2="120.541" gradientUnits="userSpaceOnUse">
<stop stop-color="white"/>
<stop offset="1" stop-color="white" stop-opacity="0"/>
</linearGradient>
</defs>
</svg>
