<svg width="21" height="21" viewBox="0 0 21 21" fill="none" xmlns="http://www.w3.org/2000/svg">
<path fill-rule="evenodd" clip-rule="evenodd" d="M0.566407 2.32256C0.566407 1.87182 0.745462 1.43955 1.06418 1.12082C1.3829 0.802104 1.81518 0.623049 2.26592 0.623049H19.2074C19.4308 0.622684 19.652 0.666381 19.8585 0.751638C20.065 0.836894 20.2526 0.962036 20.4106 1.1199C20.5687 1.27776 20.694 1.46525 20.7795 1.67162C20.865 1.87799 20.9089 2.09919 20.9088 2.32256V19.2641C20.909 19.4875 20.8652 19.7087 20.7799 19.9152C20.6945 20.1217 20.5693 20.3093 20.4113 20.4673C20.2534 20.6253 20.0658 20.7507 19.8594 20.8361C19.653 20.9216 19.4318 20.9655 19.2083 20.9654H2.26592C2.04266 20.9654 1.82158 20.9214 1.61533 20.836C1.40908 20.7505 1.22168 20.6252 1.06386 20.4673C0.906029 20.3094 0.780863 20.1219 0.695509 19.9156C0.610155 19.7093 0.566285 19.4882 0.566407 19.265V2.32256ZM8.61829 8.37904H11.3728V9.76232C11.7704 8.96712 12.7875 8.25144 14.316 8.25144C17.2462 8.25144 17.9406 9.83537 17.9406 12.7416V18.1249H14.9753V13.4036C14.9753 11.7485 14.5777 10.8146 13.568 10.8146C12.1671 10.8146 11.5846 11.8215 11.5846 13.4036V18.1249H8.61829V8.37904ZM3.53269 17.9982H6.49898V8.25144H3.53269V17.9973V17.9982ZM6.9234 5.07248C6.92899 5.32646 6.8838 5.57899 6.79047 5.81527C6.69714 6.05154 6.55756 6.2668 6.37992 6.44839C6.20227 6.62999 5.99014 6.77428 5.75598 6.87279C5.52182 6.97129 5.27034 7.02204 5.0163 7.02204C4.76226 7.02204 4.51078 6.97129 4.27662 6.87279C4.04246 6.77428 3.83033 6.62999 3.65268 6.44839C3.47504 6.2668 3.33546 6.05154 3.24213 5.81527C3.1488 5.57899 3.10361 5.32646 3.1092 5.07248C3.12018 4.57396 3.32593 4.09955 3.68238 3.75086C4.03884 3.40217 4.51766 3.20692 5.0163 3.20692C5.51494 3.20692 5.99376 3.40217 6.35022 3.75086C6.70667 4.09955 6.91242 4.57396 6.9234 5.07248Z" fill="white"/>
</svg>
