<svg width="74" height="55" viewBox="0 0 74 55" fill="none" xmlns="http://www.w3.org/2000/svg">
<path fill-rule="evenodd" clip-rule="evenodd" d="M3.4043 0.851562C2.69153 0.851562 2.00795 1.13471 1.50395 1.63871C0.999943 2.14272 0.716797 2.82629 0.716797 3.53906V8.91406C0.716797 9.62683 0.999943 10.3104 1.50395 10.8144C2.00795 11.3184 2.69153 11.6016 3.4043 11.6016H8.7793C9.49207 11.6016 10.1756 11.3184 10.6796 10.8144C11.1837 10.3104 11.4668 9.62683 11.4668 8.91406V3.53906C11.4668 2.82629 11.1837 2.14272 10.6796 1.63871C10.1756 1.13471 9.49207 0.851562 8.7793 0.851562H3.4043ZM8.7793 3.53906H3.4043V8.91406H8.7793V3.53906Z" fill="white"/>
<path d="M19.5293 6.22656C19.5293 5.51379 19.8124 4.83022 20.3164 4.32621C20.8205 3.82221 21.504 3.53906 22.2168 3.53906H70.5918C71.3046 3.53906 71.9881 3.82221 72.4921 4.32621C72.9962 4.83022 73.2793 5.51379 73.2793 6.22656C73.2793 6.93933 72.9962 7.62291 72.4921 8.12691C71.9881 8.63092 71.3046 8.91406 70.5918 8.91406H22.2168C21.504 8.91406 20.8205 8.63092 20.3164 8.12691C19.8124 7.62291 19.5293 6.93933 19.5293 6.22656ZM22.2168 25.0391C21.504 25.0391 20.8205 25.3222 20.3164 25.8262C19.8124 26.3302 19.5293 27.0138 19.5293 27.7266C19.5293 28.4393 19.8124 29.1229 20.3164 29.6269C20.8205 30.1309 21.504 30.4141 22.2168 30.4141H70.5918C71.3046 30.4141 71.9881 30.1309 72.4921 29.6269C72.9962 29.1229 73.2793 28.4393 73.2793 27.7266C73.2793 27.0138 72.9962 26.3302 72.4921 25.8262C71.9881 25.3222 71.3046 25.0391 70.5918 25.0391H22.2168ZM22.2168 46.5391C21.504 46.5391 20.8205 46.8222 20.3164 47.3262C19.8124 47.8302 19.5293 48.5138 19.5293 49.2266C19.5293 49.9393 19.8124 50.6229 20.3164 51.1269C20.8205 51.6309 21.504 51.9141 22.2168 51.9141H70.5918C71.3046 51.9141 71.9881 51.6309 72.4921 51.1269C72.9962 50.6229 73.2793 49.9393 73.2793 49.2266C73.2793 48.5138 72.9962 47.8302 72.4921 47.3262C71.9881 46.8222 71.3046 46.5391 70.5918 46.5391H22.2168Z" fill="white"/>
<path fill-rule="evenodd" clip-rule="evenodd" d="M0.716797 25.0391C0.716797 24.3263 0.999943 23.6427 1.50395 23.1387C2.00795 22.6347 2.69153 22.3516 3.4043 22.3516H8.7793C9.49207 22.3516 10.1756 22.6347 10.6796 23.1387C11.1837 23.6427 11.4668 24.3263 11.4668 25.0391V30.4141C11.4668 31.1268 11.1837 31.8104 10.6796 32.3144C10.1756 32.8184 9.49207 33.1016 8.7793 33.1016H3.4043C2.69153 33.1016 2.00795 32.8184 1.50395 32.3144C0.999943 31.8104 0.716797 31.1268 0.716797 30.4141V25.0391ZM3.4043 25.0391H8.7793V30.4141H3.4043V25.0391ZM3.4043 43.8516C2.69153 43.8516 2.00795 44.1347 1.50395 44.6387C0.999943 45.1427 0.716797 45.8263 0.716797 46.5391V51.9141C0.716797 52.6268 0.999943 53.3104 1.50395 53.8144C2.00795 54.3184 2.69153 54.6016 3.4043 54.6016H8.7793C9.49207 54.6016 10.1756 54.3184 10.6796 53.8144C11.1837 53.3104 11.4668 52.6268 11.4668 51.9141V46.5391C11.4668 45.8263 11.1837 45.1427 10.6796 44.6387C10.1756 44.1347 9.49207 43.8516 8.7793 43.8516H3.4043ZM8.7793 46.5391H3.4043V51.9141H8.7793V46.5391Z" fill="white"/>
</svg>
