<svg width="1163" height="283" viewBox="0 0 1163 283" fill="none" xmlns="http://www.w3.org/2000/svg">
<g opacity="0.8">
<path d="M566.233 202.445L562.211 202.656L567.133 296.575L571.155 296.365L566.233 202.445Z" fill="url(#paint0_radial_2272_1532)" fill-opacity="0.6"/>
<path d="M531.394 205.325L527.416 205.956L542.144 298.844L546.123 298.213L531.394 205.325Z" fill="url(#paint1_radial_2272_1532)" fill-opacity="0.6"/>
<path d="M497.373 212.992L493.482 214.035L517.824 304.878L521.714 303.836L497.373 212.992Z" fill="url(#paint2_radial_2272_1532)" fill-opacity="0.6"/>
<path d="M464.337 223.012L460.576 224.455L494.264 312.262L498.025 310.82L464.337 223.012Z" fill="url(#paint3_radial_2272_1532)" fill-opacity="0.6"/>
<path d="M432.452 237.073L428.863 238.902L471.574 322.692L475.163 320.863L432.452 237.073Z" fill="url(#paint4_radial_2272_1532)" fill-opacity="0.6"/>
<path d="M402.342 254.785L398.963 256.978L450.157 335.871L453.536 333.678L402.342 254.785Z" fill="url(#paint5_radial_2272_1532)" fill-opacity="0.6"/>
<path d="M373.751 274.426L370.621 276.961L429.819 350.04L432.949 347.504L373.751 274.426Z" fill="url(#paint6_radial_2272_1532)" fill-opacity="0.6"/>
<path d="M792.484 276.986L789.354 274.452L730.168 347.541L733.298 350.075L792.484 276.986Z" fill="url(#paint7_radial_2272_1532)" fill-opacity="0.6"/>
<path d="M764.177 256.82L760.799 254.626L709.577 333.502L712.955 335.696L764.177 256.82Z" fill="url(#paint8_radial_2272_1532)" fill-opacity="0.6"/>
<path d="M734.362 238.625L730.773 236.797L688.092 320.602L691.681 322.43L734.362 238.625Z" fill="url(#paint9_radial_2272_1532)" fill-opacity="0.6"/>
<path d="M702.389 224.908L698.629 223.465L664.925 311.266L668.686 312.71L702.389 224.908Z" fill="url(#paint10_radial_2272_1532)" fill-opacity="0.6"/>
<path d="M669.658 213.344L665.768 212.301L641.426 303.145L645.317 304.187L669.658 213.344Z" fill="url(#paint11_radial_2272_1532)" fill-opacity="0.6"/>
<path d="M635.635 206.204L631.656 205.573L616.928 298.46L620.906 299.091L635.635 206.204Z" fill="url(#paint12_radial_2272_1532)" fill-opacity="0.6"/>
<path d="M600.977 202.3L596.955 202.089L592.033 296.008L596.055 296.219L600.977 202.3Z" fill="url(#paint13_radial_2272_1532)" fill-opacity="0.6"/>
<path d="M581.463 1005.93C511.615 1005.87 442.653 990.295 379.558 960.333C316.463 930.37 260.81 886.767 216.62 832.674C172.431 778.581 140.807 715.349 124.034 647.544C107.26 579.739 105.756 509.055 119.63 440.599C133.504 372.142 162.409 307.621 204.258 251.697C246.106 195.773 299.854 149.843 361.617 117.223C423.38 84.6033 491.617 66.1092 561.399 63.0766C631.181 60.044 700.766 72.5486 765.126 99.687C836.363 129.731 899.119 176.833 947.863 236.845C996.608 296.857 1029.85 367.936 1044.65 443.82C1059.45 519.704 1055.36 598.064 1032.75 671.996C1010.13 745.929 969.68 813.164 914.956 867.779C871.228 911.666 819.249 946.467 762.013 970.177C704.777 993.888 643.415 1006.04 581.463 1005.93ZM581.463 63.4372C465.042 63.5409 352.81 106.884 266.539 185.057C180.267 263.231 126.107 370.662 114.564 486.511C103.022 602.359 134.92 718.365 204.071 812.025C273.221 905.684 374.695 970.32 488.806 993.393C602.917 1016.47 721.531 996.332 821.637 936.897C921.743 877.461 996.205 782.961 1030.58 671.729C1064.95 560.496 1056.78 440.462 1007.66 334.912C958.534 229.361 871.958 145.819 764.723 100.493C706.757 75.9191 644.422 63.315 581.463 63.4372V63.4372Z" fill="url(#paint14_radial_2272_1532)" fill-opacity="0.6"/>
<path d="M581.663 1024.86C560.321 1024.83 539.001 1023.49 517.824 1020.83V1019.63C538.933 1022.28 560.186 1023.63 581.462 1023.65V1023.65L581.663 1024.86ZM645.704 1020.63V1019.42C666.9 1016.75 687.892 1012.64 708.536 1007.14V1007.14C687.92 1013.05 666.928 1017.56 645.704 1020.63V1020.63ZM454.791 1008.35C434.237 1002.95 414.056 996.223 394.375 988.209V987.001C414.032 995.081 434.217 1001.81 454.791 1007.14V1008.35ZM769.354 988.209V987.001L772.375 985.792C791.024 977.894 809.181 968.883 826.749 958.806V958.806C809.094 968.909 790.872 977.987 772.174 985.994L769.354 988.209ZM336.376 960.015C317.94 949.234 300.185 937.33 283.21 924.369C300.185 937.33 317.94 949.234 336.376 960.015V960.015ZM880.116 923.966C896.93 910.848 912.936 896.725 928.046 881.675V881.675C912.963 896.566 896.954 910.489 880.116 923.362V923.966ZM235.683 882.077C220.25 866.595 205.853 850.113 192.587 832.738C205.587 849.527 219.645 865.469 234.676 880.467V880.467L235.683 882.077ZM970.74 832.738H969.128C982.089 815.763 993.993 798.008 1004.77 779.571V779.571C994.556 797.99 983.188 815.747 970.74 832.738V832.738ZM156.74 779.773C146.557 762.092 137.477 743.797 129.553 724.995L128.345 722.377H129.352L130.56 725.197C138.485 743.933 147.565 762.16 157.747 779.773H156.74ZM1034.78 721.773H1033.57C1041.68 702.127 1048.41 681.94 1053.71 661.357H1054.92C1049.54 681.981 1042.81 702.23 1034.78 721.974V721.773ZM108.408 661.357C102.933 640.695 98.7628 619.709 95.9219 598.524H97.1302C99.9517 619.646 104.122 640.566 109.616 661.155L108.408 661.357ZM1068.61 597.92H1067.4C1070.23 576.69 1071.64 555.296 1071.63 533.878V533.878H1072.84C1072.61 555.448 1070.93 576.978 1067.81 598.322L1068.61 597.92ZM92.9012 534.483H91.6927C91.3877 513.016 92.5318 491.553 95.1165 470.24H96.3248C93.5001 491.2 92.0871 512.326 92.0955 533.476L92.9012 534.483ZM1066.6 470.24C1063.79 449.034 1059.55 428.042 1053.91 407.407H1055.12C1060.59 428.069 1064.76 449.055 1067.61 470.24H1066.6ZM108.609 409.824H107.401C112.821 389.277 119.548 369.097 127.54 349.407H128.748C120.736 368.54 114.008 388.185 108.609 408.213V409.824ZM1033.37 347.796C1032.92 347.118 1032.58 346.37 1032.36 345.581C1024.36 326.158 1015.15 307.257 1004.77 288.991V288.991C1015.21 306.67 1024.43 325.039 1032.36 343.97L1033.37 346.387V347.796ZM157.344 291.81H156.337C166.998 273.235 178.907 255.405 191.983 238.443H192.99C179.969 254.882 168.06 272.173 157.344 290.199V291.81ZM969.128 235.825C956.273 219.1 942.348 203.224 927.442 188.297V188.297V187.29C942.358 202.266 956.346 218.138 969.33 234.818L969.128 235.825ZM235.079 188.297C250.079 173.33 266.021 159.339 282.807 146.409V147.416C266.139 159.973 250.329 173.631 235.482 188.297H235.079ZM879.512 145.2C862.535 132.305 844.779 120.468 826.346 109.756V108.749C844.863 119.505 862.686 131.41 879.713 144.395L879.512 145.2ZM336.98 110.36C354.748 100.15 373.106 91.0047 391.958 82.9716H394.576L391.958 84.1799C372.846 91.9118 354.218 100.789 336.175 110.763L336.98 110.36ZM767.743 81.9646C748.095 73.8621 727.908 67.133 707.328 61.8258V60.6175C727.845 66.1354 748.019 72.86 767.743 80.7563V81.9646ZM453.784 61.8258V60.6175C474.513 55.1422 495.565 50.972 516.817 48.1315V49.3398C495.685 52.103 474.762 56.2743 454.186 61.8258H453.784ZM644.294 49.1384C623.319 46.4873 602.2 45.1421 581.059 45.1107V45.1107V43.9023C602.201 43.927 623.32 45.2722 644.294 47.9301V49.1384Z" fill="url(#paint15_radial_2272_1532)" fill-opacity="0.6"/>
<path d="M515.005 1064.53C491.984 1061.69 469.177 1057.32 446.736 1051.44V1050.24C469.177 1056.11 491.984 1060.48 515.005 1063.33V1063.33V1064.53ZM584.685 1068.56V1067.35C607.921 1067.15 631.123 1065.54 654.163 1062.52V1063.73C631.143 1066.95 607.928 1068.56 584.685 1068.56V1068.56ZM380.077 1029.29C358.423 1020.55 337.366 1010.39 317.044 998.883V997.674C337.208 1009.22 358.133 1019.38 379.675 1028.08L380.077 1029.29ZM722.432 1049.43V1048.22H725.856C747.071 1042.11 767.915 1034.78 788.285 1026.27V1027.48C767.847 1035.99 746.935 1043.32 725.655 1049.43H722.432ZM259.246 960.015C240.649 945.982 223.021 930.709 206.483 914.3C223.021 930.709 240.649 945.982 259.246 960.015V960.015ZM851.722 995.258C871.532 983.168 890.567 969.85 908.714 955.383V955.383C890.488 969.994 871.315 983.383 851.319 995.459L851.722 995.258ZM160.165 862.14C146.018 843.773 133.036 824.536 121.297 804.543V804.543C132.99 824.501 145.974 843.673 160.165 861.939V862.14ZM961.879 909.869H960.872C977.231 893.355 992.501 875.798 1006.59 857.307V857.307C992.589 875.757 977.526 893.375 961.477 910.071L961.879 909.869ZM89.0757 741.912C80.4427 721.451 73.1112 700.465 67.1248 679.079L66.1178 676.058H67.5273V679.28C73.5458 700.59 80.877 721.508 89.4785 741.912H89.0757ZM1045.86 798.905H1044.65C1056.15 778.719 1066.31 757.797 1075.06 736.273H1076.27C1067.55 757.811 1057.39 778.736 1045.86 798.905V798.905ZM52.2221 607.586C49.0358 584.493 47.3541 561.218 47.1875 537.906H48.3958C48.5625 561.151 50.2443 584.36 53.4304 607.385L52.2221 607.586ZM1098.22 669.815H1097.01C1102.87 647.292 1107.31 624.423 1110.3 601.343V600.336H1111.71C1108.78 623.774 1104.28 646.987 1098.22 669.815V669.815ZM52.625 468.428H51.4164C54.2436 445.469 58.617 422.728 64.5066 400.359H65.7149C59.9215 422.75 55.5496 445.485 52.625 468.428V468.428ZM1114.53 530.656C1114.38 507.411 1112.7 484.202 1109.49 461.178H1110.1C1113.29 484.27 1114.97 507.546 1115.13 530.858L1114.53 530.656ZM87.4646 333.901H86.2563C94.9627 312.294 105.122 291.302 116.665 271.068H117.874C106.407 291.242 96.3152 312.167 87.6658 333.699L87.4646 333.901ZM1094.39 392.907C1094.39 392.907 1094.39 391.095 1094.39 390.088C1088.34 368.632 1080.94 347.579 1072.24 327.053H1073.45C1082.12 347.66 1089.51 368.778 1095.6 390.289C1095.69 391.227 1095.69 392.171 1095.6 393.109L1094.39 392.907ZM155.331 212.867C169.474 194.359 184.741 176.738 201.046 160.103V161.11C185.12 177.38 170.19 194.597 156.338 212.665L155.331 212.867ZM1040.02 264.825C1028.71 245.269 1016.2 226.436 1002.56 208.436V208.436H1003.57C1017.64 226.599 1030.56 245.635 1042.23 265.429L1040.02 264.825ZM254.212 113.784V112.777C272.51 98.6315 291.68 85.65 311.606 73.9093V74.9162C291.745 86.6583 272.642 99.6399 254.413 113.784H254.212ZM955.637 154.062C939.099 137.652 921.471 122.379 902.874 108.347V107.34C921.422 121.432 939.046 136.702 955.637 153.055V154.062ZM374.036 43.2983V42.09C394.573 33.4207 415.624 26.0225 437.069 19.9374H440.09V21.1457H437.271C415.757 27.223 394.639 34.6212 374.036 43.2983V43.2983ZM844.673 70.8884C824.488 59.3846 803.566 49.226 782.043 40.4789V39.2706C803.649 47.9771 824.641 58.1368 844.875 69.6801L844.673 70.8884ZM508.158 7.04857V5.03469C531.252 1.85564 554.527 0.1739 577.838 0V1.40971C554.513 1.76901 531.237 3.65266 508.158 7.04857V7.04857ZM715.787 19.3332C693.523 13.6253 670.924 9.32051 648.121 6.4444V5.23608C670.994 8.18008 693.661 12.552 715.988 18.3263L715.787 19.3332Z" fill="url(#paint16_radial_2272_1532)" fill-opacity="0.6"/>
<path d="M744.987 148.02C693.225 126.219 637.627 114.989 581.462 114.989C525.297 114.989 469.699 126.219 417.938 148.02V146.006C469.981 124.205 525.842 112.978 582.268 112.978C638.693 112.978 694.554 124.205 746.598 146.006L744.987 148.02Z" fill="url(#paint17_radial_2272_1532)" fill-opacity="0.6"/>
<path d="M868.436 265.429C865.617 262.207 862.395 258.985 859.374 255.964C844.763 241.305 829.005 227.837 812.25 215.686L813.458 214.075C830.273 226.229 846.098 239.697 860.784 254.353L870.047 263.818L868.436 265.429Z" fill="url(#paint18_radial_2272_1532)" fill-opacity="0.6"/>
<path d="M581.462 930.209C528.73 931.399 476.293 922.04 427.228 902.682C378.164 883.325 333.462 854.358 295.747 817.485C258.033 780.611 228.066 736.573 207.607 687.957C187.148 639.341 176.609 587.128 176.609 534.382C176.609 481.637 187.148 429.423 207.607 380.807C228.066 332.191 258.033 288.153 295.747 251.279C333.462 214.406 378.164 185.44 427.228 166.082C476.293 146.724 528.73 137.365 581.462 138.555V140.569C496.996 140.57 414.768 167.721 346.91 218.017C279.052 268.313 229.158 339.089 204.589 419.903C180.02 500.717 182.078 587.288 210.459 666.843C238.84 746.398 292.042 814.723 362.214 861.737C432.385 908.752 515.81 931.965 600.18 927.952C684.55 923.939 765.395 892.913 830.788 839.451C896.181 785.989 942.657 712.922 963.36 631.033C984.063 549.143 977.895 462.768 945.767 384.65L940.532 428.15C947.411 451.204 951.998 474.882 954.226 498.837C956.542 522.746 956.542 546.824 954.226 570.733C951.998 594.622 947.411 618.233 940.532 641.218H938.518C945.397 618.37 949.984 594.893 952.212 571.135C956.987 523.316 952.404 475.024 938.719 428.956V428.956L944.962 377.803L946.372 381.227C971.904 441.415 982.119 506.993 976.101 572.096C970.084 637.198 948.022 699.793 911.89 754.281C875.758 808.769 826.682 853.451 769.054 884.328C711.425 915.205 647.042 931.315 581.663 931.216L581.462 930.209Z" fill="url(#paint19_radial_2272_1532)" fill-opacity="0.6"/>
<path d="M872.462 338.13C834.251 281.813 780.625 237.695 718 211.054V209.242C739.126 218.1 759.356 228.957 778.416 241.665C815.99 267.087 848.328 299.494 873.671 337.123L872.462 338.13Z" fill="url(#paint20_radial_2272_1532)" fill-opacity="0.6"/>
<path d="M870.853 300.067L869.04 297.852C837.605 259.28 798.609 227.548 754.452 204.61C732.997 193.321 710.463 184.213 687.189 177.422V175.61C734.067 189.456 777.736 212.454 815.673 243.276C834.881 258.572 852.553 275.704 868.436 294.429V264.623H870.45L870.853 300.067Z" fill="url(#paint21_radial_2272_1532)" fill-opacity="0.6"/>
<path d="M258.238 397.741H256.225C265.142 376.605 276.067 356.374 288.849 337.324C314.468 299.529 347.155 267.046 385.111 241.665C404.17 228.957 424.401 218.1 445.527 209.242C466.882 200.329 489.079 193.582 511.782 189.103C533.922 184.558 556.445 182.131 579.045 181.853L546.219 163.728C522.419 166.005 498.887 170.523 475.936 177.221V175.409C499.131 168.547 522.94 163.961 547.025 161.714V161.714L585.892 183.464H582.066C558.318 183.453 534.631 185.882 511.38 190.714C466.189 199.693 423.255 217.634 385.111 243.478C347.81 268.767 315.627 300.882 290.258 338.13C277.675 356.913 266.951 376.878 258.238 397.741Z" fill="url(#paint22_radial_2272_1532)" fill-opacity="0.6"/>
<path d="M222.392 640.815C215.494 617.629 210.907 593.816 208.698 569.726C206.382 545.884 206.382 521.874 208.698 498.032C210.925 474.142 215.512 450.532 222.392 427.546C229.302 404.378 238.405 381.923 249.579 360.484C260.98 339.066 274.471 318.829 289.856 300.068C305.83 280.369 323.705 262.291 343.223 246.096L344.633 247.707C306.197 279.331 274.433 318.283 251.19 362.296C240.073 383.342 230.97 405.391 224.003 428.15C217.124 450.999 212.536 474.475 210.309 498.233C205.651 545.654 210.233 593.528 223.802 639.204L222.392 640.815Z" fill="url(#paint23_radial_2272_1532)" fill-opacity="0.6"/>
<path d="M808.02 219.311C806.148 219.311 804.318 218.756 802.761 217.716C801.205 216.676 799.992 215.198 799.275 213.468C798.559 211.739 798.371 209.836 798.737 207.999C799.102 206.163 800.003 204.477 801.327 203.153C802.651 201.829 804.337 200.928 806.173 200.563C808.009 200.198 809.912 200.385 811.642 201.101C813.371 201.818 814.85 203.031 815.89 204.588C816.93 206.144 817.485 207.974 817.485 209.846C817.485 212.356 816.488 214.764 814.713 216.539C812.937 218.314 810.53 219.311 808.02 219.311V219.311ZM808.02 202.395C806.546 202.395 805.105 202.832 803.88 203.65C802.655 204.469 801.7 205.633 801.136 206.995C800.572 208.356 800.424 209.854 800.712 211.3C800.999 212.745 801.709 214.073 802.751 215.115C803.793 216.157 805.121 216.867 806.566 217.154C808.011 217.442 809.51 217.294 810.871 216.73C812.233 216.166 813.397 215.211 814.215 213.986C815.034 212.76 815.471 211.32 815.471 209.846C815.42 207.886 814.619 206.02 813.232 204.634C811.846 203.247 809.98 202.446 808.02 202.395V202.395Z" fill="url(#paint24_radial_2272_1532)" fill-opacity="0.6"/>
<path d="M710.549 216.491C708.677 216.491 706.847 215.936 705.29 214.896C703.734 213.856 702.521 212.378 701.804 210.648C701.088 208.919 700.901 207.016 701.266 205.18C701.631 203.344 702.533 201.657 703.856 200.333C705.18 199.01 706.867 198.108 708.703 197.743C710.539 197.378 712.442 197.565 714.171 198.282C715.901 198.998 717.379 200.211 718.419 201.768C719.459 203.324 720.014 205.154 720.014 207.026C720.014 209.537 719.017 211.944 717.242 213.719C715.467 215.494 713.059 216.491 710.549 216.491V216.491ZM710.549 199.575C708.573 199.575 706.678 200.36 705.28 201.757C703.883 203.155 703.098 205.05 703.098 207.026C703.098 209.002 703.883 210.898 705.28 212.295C706.678 213.693 708.573 214.478 710.549 214.478C712.525 214.478 714.421 213.693 715.818 212.295C717.215 210.898 718 209.002 718 207.026C718 205.05 717.215 203.155 715.818 201.757C714.421 200.36 712.525 199.575 710.549 199.575V199.575Z" fill="url(#paint25_radial_2272_1532)" fill-opacity="0.6"/>
<path d="M752.639 159.298C750.767 159.298 748.937 158.743 747.38 157.702C745.824 156.662 744.611 155.184 743.894 153.455C743.178 151.725 742.99 149.822 743.356 147.986C743.721 146.15 744.622 144.463 745.946 143.14C747.27 141.816 748.956 140.914 750.792 140.549C752.628 140.184 754.531 140.371 756.261 141.088C757.99 141.804 759.469 143.017 760.509 144.574C761.549 146.13 762.104 147.96 762.104 149.832C762.104 152.343 761.107 154.75 759.332 156.525C757.557 158.3 755.149 159.298 752.639 159.298V159.298ZM752.639 142.381C750.663 142.381 748.767 143.166 747.37 144.564C745.973 145.961 745.188 147.856 745.188 149.832C745.188 151.809 745.973 153.704 747.37 155.101C748.767 156.499 750.663 157.284 752.639 157.284C753.617 157.284 754.586 157.091 755.49 156.717C756.394 156.342 757.216 155.793 757.908 155.101C758.6 154.409 759.149 153.588 759.523 152.684C759.898 151.78 760.09 150.811 760.09 149.832C760.09 148.854 759.898 147.885 759.523 146.981C759.149 146.077 758.6 145.255 757.908 144.564C757.216 143.872 756.394 143.323 755.49 142.948C754.586 142.574 753.617 142.381 752.639 142.381V142.381Z" fill="url(#paint26_radial_2272_1532)" fill-opacity="0.6"/>
<path d="M410.082 159.096C408.21 159.096 406.38 158.541 404.824 157.501C403.267 156.461 402.054 154.982 401.337 153.253C400.621 151.523 400.434 149.62 400.799 147.784C401.164 145.948 402.066 144.262 403.389 142.938C404.713 141.614 406.399 140.713 408.236 140.347C410.072 139.982 411.975 140.17 413.704 140.886C415.434 141.602 416.912 142.816 417.952 144.372C418.992 145.929 419.547 147.759 419.547 149.631C419.547 152.141 418.55 154.549 416.775 156.324C415 158.099 412.593 159.096 410.082 159.096V159.096ZM410.082 142.179C408.106 142.179 406.211 142.964 404.813 144.362C403.416 145.759 402.631 147.655 402.631 149.631C402.631 151.607 403.416 153.502 404.813 154.9C406.211 156.297 408.106 157.082 410.082 157.082C412.059 157.082 413.954 156.297 415.351 154.9C416.749 153.502 417.534 151.607 417.534 149.631C417.534 147.655 416.749 145.759 415.351 144.362C413.954 142.964 412.059 142.179 410.082 142.179V142.179Z" fill="url(#paint27_radial_2272_1532)" fill-opacity="0.6"/>
<path d="M689.606 174.402C689.606 176.075 689.11 177.71 688.181 179.101C687.251 180.492 685.93 181.576 684.385 182.216C682.839 182.856 681.138 183.024 679.497 182.697C677.857 182.371 676.35 181.565 675.167 180.383C673.984 179.2 673.178 177.693 672.852 176.052C672.526 174.411 672.693 172.71 673.333 171.165C673.973 169.619 675.058 168.298 676.449 167.369C677.839 166.439 679.475 165.943 681.148 165.943C682.258 165.943 683.358 166.162 684.385 166.587C685.411 167.012 686.343 167.635 687.128 168.421C687.914 169.206 688.537 170.139 688.962 171.165C689.387 172.191 689.606 173.291 689.606 174.402V174.402Z" fill="url(#paint28_radial_2272_1532)" fill-opacity="0.6"/>
<path d="M476.944 178.228C476.943 179.91 476.442 181.553 475.503 182.948C474.565 184.343 473.231 185.426 471.674 186.06C470.117 186.694 468.406 186.849 466.76 186.506C465.114 186.163 463.608 185.337 462.433 184.134C461.259 182.931 460.469 181.405 460.166 179.751C459.863 178.098 460.059 176.391 460.731 174.849C461.402 173.308 462.517 172.001 463.934 171.097C465.352 170.192 467.006 169.73 468.687 169.77C469.788 169.77 470.879 169.99 471.894 170.417C472.909 170.845 473.828 171.471 474.598 172.259C475.367 173.047 475.971 173.981 476.374 175.007C476.777 176.032 476.971 177.127 476.944 178.228V178.228Z" fill="url(#paint29_radial_2272_1532)" fill-opacity="0.6"/>
<path d="M596.364 140.166C596.364 141.839 595.868 143.474 594.938 144.865C594.009 146.256 592.688 147.34 591.142 147.98C589.597 148.62 587.896 148.788 586.255 148.462C584.615 148.135 583.107 147.33 581.925 146.147C580.742 144.964 579.936 143.457 579.61 141.816C579.283 140.175 579.451 138.474 580.091 136.929C580.731 135.383 581.815 134.062 583.206 133.133C584.597 132.204 586.233 131.708 587.906 131.708C590.149 131.708 592.3 132.599 593.886 134.185C595.473 135.771 596.364 137.923 596.364 140.166V140.166Z" fill="url(#paint30_radial_2272_1532)" fill-opacity="0.6"/>
<path d="M354.903 244.283C354.902 245.965 354.401 247.608 353.462 249.003C352.524 250.398 351.19 251.481 349.633 252.115C348.076 252.749 346.365 252.904 344.719 252.561C343.073 252.218 341.567 251.393 340.392 250.189C339.218 248.986 338.428 247.46 338.125 245.807C337.822 244.153 338.018 242.446 338.69 240.905C339.361 239.363 340.476 238.056 341.893 237.152C343.311 236.247 344.965 235.785 346.646 235.825C347.747 235.825 348.838 236.045 349.853 236.472C350.868 236.9 351.787 237.526 352.557 238.314C353.326 239.102 353.93 240.037 354.333 241.062C354.736 242.087 354.93 243.182 354.903 244.283V244.283Z" fill="url(#paint31_radial_2272_1532)" fill-opacity="0.6"/>
<path d="M582.267 89.6174C581.67 89.7643 581.049 89.7854 580.444 89.6794C579.838 89.5734 579.262 89.3426 578.75 89.0017C578.239 88.6607 577.804 88.2171 577.473 87.699C577.142 87.181 576.923 86.5998 576.829 85.9924C576.616 84.7639 576.899 83.5009 577.616 82.4812C578.334 81.4614 579.427 80.7685 580.656 80.5549C581.884 80.3413 583.147 80.6244 584.167 81.342C585.186 82.0595 585.879 83.1528 586.093 84.3813C586.267 85.5812 585.964 86.8017 585.249 87.7807C584.534 88.7597 583.463 89.4191 582.267 89.6174Z" fill="url(#paint32_radial_2272_1532)" fill-opacity="0.6"/>
<path d="M520.441 93.8465C519.569 94.1205 518.635 94.13 517.757 93.8739C516.879 93.6178 516.096 93.1075 515.508 92.4072C514.919 91.707 514.551 90.8483 514.45 89.9393C514.349 89.0303 514.52 88.1117 514.94 87.2993C515.36 86.4869 516.011 85.8171 516.811 85.3743C517.612 84.9316 518.525 84.7357 519.437 84.8113C520.348 84.8869 521.217 85.2306 521.933 85.7992C522.649 86.3678 523.182 87.1357 523.462 88.0062C523.65 88.588 523.72 89.2011 523.67 89.8102C523.619 90.4193 523.449 91.0124 523.168 91.5553C522.887 92.0982 522.501 92.5802 522.034 92.9734C521.566 93.3666 521.025 93.6633 520.441 93.8465V93.8465Z" fill="url(#paint33_radial_2272_1532)" fill-opacity="0.6"/>
<path d="M459.825 107.743C458.693 108.191 457.436 108.214 456.288 107.806C455.14 107.399 454.178 106.589 453.582 105.527C453.31 104.973 453.152 104.37 453.117 103.754C453.082 103.138 453.17 102.521 453.376 101.94C453.582 101.358 453.903 100.824 454.319 100.368C454.734 99.9116 455.237 99.5433 455.797 99.2843C456.351 99.0127 456.954 98.8545 457.57 98.8191C458.186 98.7838 458.803 98.8718 459.385 99.0782C459.966 99.2846 460.501 99.6051 460.957 100.021C461.413 100.437 461.781 100.939 462.04 101.5C462.536 102.627 462.582 103.9 462.17 105.06C461.759 106.22 460.92 107.18 459.825 107.743V107.743Z" fill="url(#paint34_radial_2272_1532)" fill-opacity="0.6"/>
<path d="M401.625 127.881C400.611 128.575 399.361 128.838 398.153 128.612C396.944 128.385 395.875 127.688 395.181 126.673C394.487 125.658 394.224 124.409 394.451 123.2C394.677 121.992 395.374 120.923 396.389 120.228C397.404 119.534 398.653 119.271 399.862 119.498C401.07 119.724 402.139 120.422 402.834 121.437C403.528 122.452 403.791 123.701 403.564 124.909C403.338 126.118 402.64 127.187 401.625 127.881V127.881Z" fill="url(#paint35_radial_2272_1532)" fill-opacity="0.6"/>
<path d="M346.849 156.679C346.417 157.124 345.9 157.477 345.329 157.719C344.759 157.96 344.145 158.084 343.526 158.084C342.906 158.084 342.293 157.96 341.722 157.719C341.151 157.477 340.635 157.124 340.203 156.679C339.366 155.816 338.898 154.66 338.898 153.457C338.898 152.255 339.366 151.099 340.203 150.235C340.635 149.791 341.151 149.437 341.722 149.196C342.293 148.954 342.906 148.83 343.526 148.83C344.145 148.83 344.759 148.954 345.329 149.196C345.9 149.437 346.417 149.791 346.849 150.235C347.685 151.099 348.153 152.255 348.153 153.457C348.153 154.66 347.685 155.816 346.849 156.679Z" fill="url(#paint36_radial_2272_1532)" fill-opacity="0.6"/>
<path d="M296.703 193.131C295.806 193.98 294.617 194.454 293.381 194.454C292.144 194.454 290.955 193.98 290.058 193.131C289.619 192.716 289.269 192.217 289.03 191.663C288.791 191.109 288.668 190.512 288.668 189.908C288.668 189.305 288.791 188.708 289.03 188.154C289.269 187.6 289.619 187.1 290.058 186.686C290.454 186.21 290.941 185.817 291.49 185.529C292.038 185.241 292.638 185.064 293.255 185.008C293.872 184.952 294.494 185.018 295.086 185.202C295.678 185.386 296.227 185.685 296.703 186.082C297.179 186.479 297.573 186.965 297.861 187.514C298.149 188.063 298.326 188.663 298.382 189.28C298.438 189.897 298.372 190.519 298.187 191.111C298.003 191.702 297.704 192.252 297.307 192.728L296.703 193.131Z" fill="url(#paint37_radial_2272_1532)" fill-opacity="0.6"/>
<path d="M251.996 236.026C251.498 236.792 250.784 237.393 249.945 237.754C249.107 238.115 248.179 238.22 247.281 238.055C246.383 237.891 245.553 237.465 244.896 236.83C244.239 236.196 243.785 235.381 243.589 234.489C243.394 233.597 243.467 232.667 243.799 231.816C244.131 230.965 244.707 230.231 245.455 229.707C246.202 229.182 247.089 228.891 248.002 228.869C248.915 228.846 249.814 229.095 250.586 229.582C251.106 229.91 251.554 230.337 251.907 230.84C252.259 231.342 252.508 231.91 252.639 232.509C252.77 233.109 252.781 233.729 252.67 234.332C252.56 234.936 252.331 235.512 251.996 236.026V236.026Z" fill="url(#paint38_radial_2272_1532)" fill-opacity="0.6"/>
<path d="M213.732 284.762C213.245 285.878 212.338 286.758 211.207 287.21C210.076 287.662 208.813 287.651 207.69 287.179C206.56 286.651 205.677 285.707 205.226 284.543C204.776 283.38 204.793 282.087 205.274 280.936C205.525 280.38 205.883 279.88 206.328 279.463C206.773 279.046 207.295 278.721 207.865 278.506C208.436 278.29 209.043 278.19 209.652 278.209C210.261 278.229 210.861 278.368 211.416 278.62C211.971 278.871 212.472 279.229 212.889 279.674C213.306 280.118 213.631 280.641 213.846 281.211C214.061 281.782 214.162 282.389 214.142 282.998C214.123 283.607 213.983 284.207 213.732 284.762V284.762Z" fill="url(#paint39_radial_2272_1532)" fill-opacity="0.6"/>
<path d="M949.997 286.172C949.148 285.274 948.674 284.085 948.674 282.849C948.674 281.613 949.148 280.423 949.997 279.526C950.411 279.087 950.911 278.737 951.465 278.498C952.019 278.259 952.616 278.136 953.22 278.136C953.823 278.136 954.42 278.259 954.974 278.498C955.528 278.737 956.027 279.087 956.441 279.526C956.878 279.962 957.224 280.48 957.46 281.05C957.696 281.621 957.818 282.232 957.818 282.849C957.818 283.466 957.696 284.077 957.46 284.647C957.224 285.217 956.878 285.735 956.441 286.172C956.005 286.608 955.487 286.954 954.917 287.19C954.347 287.426 953.736 287.548 953.119 287.548C952.502 287.548 951.891 287.426 951.321 287.19C950.75 286.954 950.232 286.608 949.796 286.172H949.997Z" fill="url(#paint40_radial_2272_1532)" fill-opacity="0.6"/>
<path d="M911.936 237.235C911.234 236.57 910.747 235.709 910.539 234.765C910.331 233.82 910.411 232.835 910.769 231.936C911.127 231.038 911.746 230.267 912.547 229.725C913.347 229.182 914.292 228.892 915.259 228.892C916.226 228.892 917.171 229.182 917.972 229.725C918.772 230.267 919.392 231.038 919.749 231.936C920.107 232.835 920.187 233.82 919.979 234.765C919.771 235.709 919.284 236.57 918.582 237.235C917.684 238.085 916.495 238.558 915.259 238.558C914.023 238.558 912.834 238.085 911.936 237.235Z" fill="url(#paint41_radial_2272_1532)" fill-opacity="0.6"/>
<path d="M868.436 194.138C867.901 193.827 867.433 193.411 867.061 192.916C866.689 192.421 866.419 191.857 866.269 191.256C866.119 190.655 866.091 190.03 866.186 189.418C866.282 188.806 866.499 188.22 866.825 187.693C867.116 187.164 867.513 186.701 867.99 186.33C868.467 185.96 869.014 185.691 869.599 185.54C870.184 185.39 870.793 185.36 871.39 185.453C871.986 185.546 872.557 185.76 873.068 186.082C873.614 186.356 874.097 186.739 874.488 187.208C874.878 187.677 875.168 188.222 875.338 188.808C875.508 189.394 875.555 190.009 875.477 190.614C875.398 191.219 875.195 191.802 874.881 192.325C874.248 193.401 873.224 194.19 872.023 194.528C870.822 194.865 869.537 194.726 868.436 194.138V194.138Z" fill="url(#paint42_radial_2272_1532)" fill-opacity="0.6"/>
<path d="M817.486 157.485C816.897 157.287 816.357 156.968 815.9 156.548C815.443 156.128 815.079 155.616 814.832 155.047C814.585 154.477 814.461 153.862 814.467 153.241C814.473 152.62 814.61 152.008 814.868 151.443C815.355 150.327 816.262 149.448 817.393 148.995C818.523 148.543 819.787 148.554 820.909 149.027C821.57 149.168 822.192 149.453 822.731 149.861C823.27 150.268 823.714 150.789 824.031 151.386C824.347 151.983 824.529 152.642 824.564 153.317C824.599 153.992 824.485 154.667 824.232 155.293C823.978 155.92 823.591 156.483 823.096 156.944C822.602 157.405 822.012 157.752 821.369 157.961C820.726 158.17 820.046 158.235 819.375 158.153C818.704 158.071 818.059 157.843 817.486 157.485Z" fill="url(#paint43_radial_2272_1532)" fill-opacity="0.6"/>
<path d="M762.709 127.881C761.568 127.509 760.606 126.726 760.01 125.683C759.414 124.641 759.228 123.414 759.487 122.242C759.602 121.63 759.844 121.05 760.198 120.538C760.552 120.026 761.01 119.595 761.542 119.272C762.074 118.949 762.668 118.742 763.286 118.663C763.903 118.585 764.53 118.638 765.126 118.819C765.719 118.957 766.278 119.216 766.767 119.581C767.256 119.945 767.664 120.406 767.967 120.935C768.269 121.465 768.459 122.051 768.525 122.657C768.59 123.263 768.53 123.876 768.348 124.457C768.206 125.055 767.948 125.618 767.587 126.114C767.225 126.611 766.77 127.03 766.245 127.349C765.72 127.667 765.137 127.878 764.531 127.97C763.924 128.061 763.304 128.031 762.709 127.881Z" fill="url(#paint44_radial_2272_1532)" fill-opacity="0.6"/>
<path d="M704.71 107.742C703.463 107.59 702.324 106.959 701.534 105.981C700.745 105.004 700.367 103.757 700.481 102.506C700.632 101.312 701.243 100.224 702.182 99.4725C703.122 98.7207 704.317 98.3642 705.515 98.4784C706.744 98.4784 707.922 98.9664 708.791 99.8351C709.659 100.704 710.147 101.882 710.147 103.11C710.147 104.339 709.659 105.517 708.791 106.386C707.922 107.254 706.744 107.742 705.515 107.742H704.71Z" fill="url(#paint45_radial_2272_1532)" fill-opacity="0.6"/>
<path d="M644.092 94.0482C643.477 94.1043 642.857 94.0313 642.272 93.8339C641.687 93.6366 641.15 93.3191 640.695 92.902C640.24 92.4848 639.877 91.9772 639.63 91.4116C639.383 90.846 639.256 90.235 639.258 89.6176C639.231 89.0092 639.325 88.4015 639.533 87.8291C639.741 87.2568 640.06 86.7311 640.471 86.2822C640.883 85.8332 641.379 85.4698 641.931 85.2128C642.483 84.9558 643.081 84.8102 643.689 84.7844C644.297 84.7573 644.905 84.8505 645.477 85.0586C646.05 85.2668 646.576 85.5857 647.025 85.9972C647.474 86.4088 647.837 86.9048 648.094 87.4569C648.351 88.009 648.496 88.6064 648.522 89.2149C648.578 89.8296 648.506 90.4493 648.308 91.0343C648.111 91.6192 647.793 92.1564 647.376 92.6115C646.959 93.0666 646.451 93.4294 645.886 93.6768C645.32 93.9242 644.709 94.0507 644.092 94.0482V94.0482Z" fill="url(#paint46_radial_2272_1532)" fill-opacity="0.6"/>
<path d="M69.5409 283.151C69.0746 284.621 68.0642 285.857 66.7163 286.605C65.3684 287.354 63.7852 287.559 62.291 287.179C60.7686 286.711 59.4825 285.678 58.6963 284.293C57.9102 282.908 57.6832 281.275 58.0618 279.728C58.2685 278.963 58.6289 278.248 59.1207 277.626C59.6125 277.005 60.2256 276.49 60.9227 276.114C61.6197 275.737 62.3862 275.506 63.1754 275.435C63.9646 275.364 64.76 275.454 65.5133 275.7C66.2782 275.907 66.9929 276.267 67.6142 276.759C68.2355 277.25 68.7502 277.864 69.127 278.561C69.5038 279.258 69.7346 280.024 69.8058 280.813C69.8769 281.602 69.7869 282.398 69.5409 283.151Z" fill="url(#paint47_radial_2272_1532)" fill-opacity="0.6"/>
<path d="M1094.19 284.963C1093.72 284.316 1093.39 283.584 1093.21 282.808C1093.03 282.031 1093 281.227 1093.13 280.441C1093.26 279.654 1093.55 278.902 1093.97 278.226C1094.4 277.551 1094.95 276.966 1095.6 276.505C1096.89 275.627 1098.47 275.284 1100.01 275.547C1101.55 275.809 1102.93 276.658 1103.86 277.915C1104.33 278.533 1104.67 279.239 1104.86 279.992C1105.06 280.744 1105.1 281.528 1104.99 282.297C1104.87 283.066 1104.61 283.805 1104.21 284.47C1103.81 285.136 1103.28 285.714 1102.65 286.172C1101.37 287.133 1099.75 287.546 1098.17 287.319C1096.58 287.093 1095.15 286.245 1094.19 284.963V284.963Z" fill="url(#paint48_radial_2272_1532)" fill-opacity="0.6"/>
<path d="M1054.52 216.089C1053.41 214.96 1052.79 213.441 1052.79 211.86C1052.79 210.279 1053.41 208.76 1054.52 207.631C1055.06 207.058 1055.72 206.602 1056.44 206.291C1057.17 205.979 1057.95 205.818 1058.75 205.818C1059.54 205.818 1060.32 205.979 1061.05 206.291C1061.77 206.602 1062.43 207.058 1062.97 207.631C1064.1 208.779 1064.72 210.326 1064.7 211.931C1064.68 213.536 1064.02 215.068 1062.87 216.19C1061.73 217.311 1060.18 217.931 1058.57 217.912C1056.97 217.893 1055.44 217.238 1054.31 216.089H1054.52Z" fill="url(#paint49_radial_2272_1532)" fill-opacity="0.6"/>
<path d="M1005.78 153.256C1004.67 152.127 1004.05 150.608 1004.05 149.027C1004.05 147.445 1004.67 145.927 1005.78 144.798C1006.25 144.185 1006.84 143.672 1007.51 143.289C1008.19 142.906 1008.93 142.661 1009.7 142.567C1010.47 142.473 1011.25 142.533 1011.99 142.743C1012.73 142.953 1013.43 143.309 1014.04 143.791C1014.61 144.336 1015.07 144.992 1015.38 145.719C1015.69 146.446 1015.85 147.229 1015.85 148.02C1015.85 148.811 1015.69 149.593 1015.38 150.32C1015.07 151.047 1014.61 151.704 1014.04 152.249C1013.56 152.862 1012.97 153.375 1012.3 153.758C1011.63 154.141 1010.89 154.386 1010.12 154.48C1009.35 154.574 1008.57 154.514 1007.83 154.303C1007.08 154.093 1006.39 153.737 1005.78 153.256V153.256Z" fill="url(#paint50_radial_2272_1532)" fill-opacity="0.6"/>
</g>
<defs>
<radialGradient id="paint0_radial_2272_1532" cx="0" cy="0" r="1" gradientUnits="userSpaceOnUse" gradientTransform="translate(566.328 243.145) rotate(87.0491) scale(101.05 4.32941)">
<stop/>
<stop offset="0.163606" stop-opacity="0.714005"/>
<stop offset="0.99269" stop-opacity="0"/>
</radialGradient>
<radialGradient id="paint1_radial_2272_1532" cx="0" cy="0" r="1" gradientUnits="userSpaceOnUse" gradientTransform="translate(535.75 245.791) rotate(81.0391) scale(101.05 4.32975)">
<stop/>
<stop offset="0.163606" stop-opacity="0.714005"/>
<stop offset="0.99269" stop-opacity="0"/>
</radialGradient>
<radialGradient id="paint2_radial_2272_1532" cx="0" cy="0" r="1" gradientUnits="userSpaceOnUse" gradientTransform="translate(505.928 252.782) rotate(75.0492) scale(101.05 4.32942)">
<stop/>
<stop offset="0.163606" stop-opacity="0.714005"/>
<stop offset="0.99269" stop-opacity="0"/>
</radialGradient>
<radialGradient id="paint3_radial_2272_1532" cx="0" cy="0" r="1" gradientUnits="userSpaceOnUse" gradientTransform="translate(476.997 261.692) rotate(69.0593) scale(101.05 4.32942)">
<stop/>
<stop offset="0.163606" stop-opacity="0.714005"/>
<stop offset="0.99269" stop-opacity="0"/>
</radialGradient>
<radialGradient id="paint4_radial_2272_1532" cx="0" cy="0" r="1" gradientUnits="userSpaceOnUse" gradientTransform="translate(449.099 274.212) rotate(63.0393) scale(101.05 4.32942)">
<stop/>
<stop offset="0.163606" stop-opacity="0.714005"/>
<stop offset="0.99269" stop-opacity="0"/>
</radialGradient>
<radialGradient id="paint5_radial_2272_1532" cx="0" cy="0" r="1" gradientUnits="userSpaceOnUse" gradientTransform="translate(422.761 289.991) rotate(57.0693) scale(101.049 4.32976)">
<stop/>
<stop offset="0.163606" stop-opacity="0.714005"/>
<stop offset="0.99269" stop-opacity="0"/>
</radialGradient>
<radialGradient id="paint6_radial_2272_1532" cx="0" cy="0" r="1" gradientUnits="userSpaceOnUse" gradientTransform="translate(397.756 307.292) rotate(51.0394) scale(101.049 4.32943)">
<stop/>
<stop offset="0.163606" stop-opacity="0.714005"/>
<stop offset="0.99269" stop-opacity="0"/>
</radialGradient>
<radialGradient id="paint7_radial_2272_1532" cx="0" cy="0" r="1" gradientUnits="userSpaceOnUse" gradientTransform="translate(765.322 307.295) rotate(129.049) scale(101.049 4.32943)">
<stop/>
<stop offset="0.163606" stop-opacity="0.714005"/>
<stop offset="0.99269" stop-opacity="0"/>
</radialGradient>
<radialGradient id="paint8_radial_2272_1532" cx="0" cy="0" r="1" gradientUnits="userSpaceOnUse" gradientTransform="translate(740.332 289.802) rotate(123.049) scale(101.049 4.32976)">
<stop/>
<stop offset="0.163606" stop-opacity="0.714005"/>
<stop offset="0.99269" stop-opacity="0"/>
</radialGradient>
<radialGradient id="paint9_radial_2272_1532" cx="0" cy="0" r="1" gradientUnits="userSpaceOnUse" gradientTransform="translate(714.102 273.923) rotate(117.039) scale(101.05 4.32942)">
<stop/>
<stop offset="0.163606" stop-opacity="0.714005"/>
<stop offset="0.99269" stop-opacity="0"/>
</radialGradient>
<radialGradient id="paint10_radial_2272_1532" cx="0" cy="0" r="1" gradientUnits="userSpaceOnUse" gradientTransform="translate(685.922 262.127) rotate(111.049) scale(101.05 4.32942)">
<stop/>
<stop offset="0.163606" stop-opacity="0.714005"/>
<stop offset="0.99269" stop-opacity="0"/>
</radialGradient>
<radialGradient id="paint11_radial_2272_1532" cx="0" cy="0" r="1" gradientUnits="userSpaceOnUse" gradientTransform="translate(657.172 252.08) rotate(105.049) scale(101.05 4.32942)">
<stop/>
<stop offset="0.163606" stop-opacity="0.714005"/>
<stop offset="0.99269" stop-opacity="0"/>
</radialGradient>
<radialGradient id="paint12_radial_2272_1532" cx="0" cy="0" r="1" gradientUnits="userSpaceOnUse" gradientTransform="translate(627.259 246.032) rotate(99.0589) scale(101.05 4.32975)">
<stop/>
<stop offset="0.163606" stop-opacity="0.714005"/>
<stop offset="0.99269" stop-opacity="0"/>
</radialGradient>
<radialGradient id="paint13_radial_2272_1532" cx="0" cy="0" r="1" gradientUnits="userSpaceOnUse" gradientTransform="translate(596.818 242.786) rotate(93.049) scale(101.05 4.32941)">
<stop/>
<stop offset="0.163606" stop-opacity="0.714005"/>
<stop offset="0.99269" stop-opacity="0"/>
</radialGradient>
<radialGradient id="paint14_radial_2272_1532" cx="0" cy="0" r="1" gradientUnits="userSpaceOnUse" gradientTransform="translate(576.876 470.333) rotate(91.1447) scale(1013.73 1013.6)">
<stop/>
<stop offset="0.163606" stop-opacity="0.714005"/>
<stop offset="0.99269" stop-opacity="0"/>
</radialGradient>
<radialGradient id="paint15_radial_2272_1532" cx="0" cy="0" r="1" gradientUnits="userSpaceOnUse" gradientTransform="translate(577.12 467.88) rotate(91.1452) scale(1054.2 1054.5)">
<stop/>
<stop offset="0.163606" stop-opacity="0.714005"/>
<stop offset="0.99269" stop-opacity="0"/>
</radialGradient>
<radialGradient id="paint16_radial_2272_1532" cx="0" cy="0" r="1" gradientUnits="userSpaceOnUse" gradientTransform="translate(575.584 461.841) rotate(91.1442) scale(1148.35 1147.73)">
<stop/>
<stop offset="0.163606" stop-opacity="0.714005"/>
<stop offset="0.99269" stop-opacity="0"/>
</radialGradient>
<radialGradient id="paint17_radial_2272_1532" cx="0" cy="0" r="1" gradientUnits="userSpaceOnUse" gradientTransform="translate(580.552 128.123) rotate(100.616) scale(38.3068 347.239)">
<stop/>
<stop offset="0.163606" stop-opacity="0.714005"/>
<stop offset="0.99269" stop-opacity="0"/>
</radialGradient>
<radialGradient id="paint18_radial_2272_1532" cx="0" cy="0" r="1" gradientUnits="userSpaceOnUse" gradientTransform="translate(840.847 236.271) rotate(91.2885) scale(55.1911 62.1123)">
<stop/>
<stop offset="0.163606" stop-opacity="0.714005"/>
<stop offset="0.99269" stop-opacity="0"/>
</radialGradient>
<radialGradient id="paint19_radial_2272_1532" cx="0" cy="0" r="1" gradientUnits="userSpaceOnUse" gradientTransform="translate(573.011 481.092) rotate(91.157) scale(851.957 861.023)">
<stop/>
<stop offset="0.163606" stop-opacity="0.714005"/>
<stop offset="0.99269" stop-opacity="0"/>
</radialGradient>
<radialGradient id="paint20_radial_2272_1532" cx="0" cy="0" r="1" gradientUnits="userSpaceOnUse" gradientTransform="translate(795.023 264.948) rotate(91.3827) scale(138.524 167.286)">
<stop/>
<stop offset="0.163606" stop-opacity="0.714005"/>
<stop offset="0.99269" stop-opacity="0"/>
</radialGradient>
<radialGradient id="paint21_radial_2272_1532" cx="0" cy="0" r="1" gradientUnits="userSpaceOnUse" gradientTransform="translate(778.062 229.401) rotate(91.6892) scale(133.781 197.339)">
<stop/>
<stop offset="0.163606" stop-opacity="0.714005"/>
<stop offset="0.99269" stop-opacity="0"/>
</radialGradient>
<radialGradient id="paint22_radial_2272_1532" cx="0" cy="0" r="1" gradientUnits="userSpaceOnUse" gradientTransform="translate(419.337 263.727) rotate(91.5989) scale(253.697 354.23)">
<stop/>
<stop offset="0.163606" stop-opacity="0.714005"/>
<stop offset="0.99269" stop-opacity="0"/>
</radialGradient>
<radialGradient id="paint23_radial_2272_1532" cx="0" cy="0" r="1" gradientUnits="userSpaceOnUse" gradientTransform="translate(275.078 416.697) rotate(90.3994) scale(424.117 147.984)">
<stop/>
<stop offset="0.163606" stop-opacity="0.714005"/>
<stop offset="0.99269" stop-opacity="0"/>
</radialGradient>
<radialGradient id="paint24_radial_2272_1532" cx="0" cy="0" r="1" gradientUnits="userSpaceOnUse" gradientTransform="translate(807.921 208.563) rotate(91.1449) scale(20.3439 20.3445)">
<stop/>
<stop offset="0.163606" stop-opacity="0.714005"/>
<stop offset="0.99269" stop-opacity="0"/>
</radialGradient>
<radialGradient id="paint25_radial_2272_1532" cx="0" cy="0" r="1" gradientUnits="userSpaceOnUse" gradientTransform="translate(710.45 205.743) rotate(91.1449) scale(20.3439 20.3446)">
<stop/>
<stop offset="0.163606" stop-opacity="0.714005"/>
<stop offset="0.99269" stop-opacity="0"/>
</radialGradient>
<radialGradient id="paint26_radial_2272_1532" cx="0" cy="0" r="1" gradientUnits="userSpaceOnUse" gradientTransform="translate(752.54 148.549) rotate(91.1449) scale(20.3439 20.3445)">
<stop/>
<stop offset="0.163606" stop-opacity="0.714005"/>
<stop offset="0.99269" stop-opacity="0"/>
</radialGradient>
<radialGradient id="paint27_radial_2272_1532" cx="0" cy="0" r="1" gradientUnits="userSpaceOnUse" gradientTransform="translate(409.983 148.347) rotate(91.1449) scale(20.3439 20.3446)">
<stop/>
<stop offset="0.163606" stop-opacity="0.714005"/>
<stop offset="0.99269" stop-opacity="0"/>
</radialGradient>
<radialGradient id="paint28_radial_2272_1532" cx="0" cy="0" r="1" gradientUnits="userSpaceOnUse" gradientTransform="translate(681.059 173.255) rotate(91.1449) scale(18.1796 18.1801)">
<stop/>
<stop offset="0.163606" stop-opacity="0.714005"/>
<stop offset="0.99269" stop-opacity="0"/>
</radialGradient>
<radialGradient id="paint29_radial_2272_1532" cx="0" cy="0" r="1" gradientUnits="userSpaceOnUse" gradientTransform="translate(468.398 177.079) rotate(91.145) scale(18.1796 18.1829)">
<stop/>
<stop offset="0.163606" stop-opacity="0.714005"/>
<stop offset="0.99269" stop-opacity="0"/>
</radialGradient>
<radialGradient id="paint30_radial_2272_1532" cx="0" cy="0" r="1" gradientUnits="userSpaceOnUse" gradientTransform="translate(587.817 139.019) rotate(91.1449) scale(18.1796 18.1804)">
<stop/>
<stop offset="0.163606" stop-opacity="0.714005"/>
<stop offset="0.99269" stop-opacity="0"/>
</radialGradient>
<radialGradient id="paint31_radial_2272_1532" cx="0" cy="0" r="1" gradientUnits="userSpaceOnUse" gradientTransform="translate(346.357 243.134) rotate(91.145) scale(18.1796 18.1829)">
<stop/>
<stop offset="0.163606" stop-opacity="0.714005"/>
<stop offset="0.99269" stop-opacity="0"/>
</radialGradient>
<radialGradient id="paint32_radial_2272_1532" cx="0" cy="0" r="1" gradientUnits="userSpaceOnUse" gradientTransform="translate(581.401 84.4878) rotate(91.1598) scale(9.95189 10.0822)">
<stop/>
<stop offset="0.163606" stop-opacity="0.714005"/>
<stop offset="0.99269" stop-opacity="0"/>
</radialGradient>
<radialGradient id="paint33_radial_2272_1532" cx="0" cy="0" r="1" gradientUnits="userSpaceOnUse" gradientTransform="translate(519.005 88.7993) rotate(91.1449) scale(9.95549 9.95592)">
<stop/>
<stop offset="0.163606" stop-opacity="0.714005"/>
<stop offset="0.99269" stop-opacity="0"/>
</radialGradient>
<radialGradient id="paint34_radial_2272_1532" cx="0" cy="0" r="1" gradientUnits="userSpaceOnUse" gradientTransform="translate(457.73 102.824) rotate(91.1516) scale(9.97791 10.037)">
<stop/>
<stop offset="0.163606" stop-opacity="0.714005"/>
<stop offset="0.99269" stop-opacity="0"/>
</radialGradient>
<radialGradient id="paint35_radial_2272_1532" cx="0" cy="0" r="1" gradientUnits="userSpaceOnUse" gradientTransform="translate(398.959 123.426) rotate(91.1449) scale(9.96496 9.96522)">
<stop/>
<stop offset="0.163606" stop-opacity="0.714005"/>
<stop offset="0.99269" stop-opacity="0"/>
</radialGradient>
<radialGradient id="paint36_radial_2272_1532" cx="0" cy="0" r="1" gradientUnits="userSpaceOnUse" gradientTransform="translate(343.477 152.83) rotate(91.1449) scale(9.94537 9.94606)">
<stop/>
<stop offset="0.163606" stop-opacity="0.714005"/>
<stop offset="0.99269" stop-opacity="0"/>
</radialGradient>
<radialGradient id="paint37_radial_2272_1532" cx="0" cy="0" r="1" gradientUnits="userSpaceOnUse" gradientTransform="translate(293.484 189.079) rotate(91.1772) scale(10.1726 10.4602)">
<stop/>
<stop offset="0.163606" stop-opacity="0.714005"/>
<stop offset="0.99269" stop-opacity="0"/>
</radialGradient>
<radialGradient id="paint38_radial_2272_1532" cx="0" cy="0" r="1" gradientUnits="userSpaceOnUse" gradientTransform="translate(248.066 232.871) rotate(91.1448) scale(9.95553 9.95575)">
<stop/>
<stop offset="0.163606" stop-opacity="0.714005"/>
<stop offset="0.99269" stop-opacity="0"/>
</radialGradient>
<radialGradient id="paint39_radial_2272_1532" cx="0" cy="0" r="1" gradientUnits="userSpaceOnUse" gradientTransform="translate(209.474 282.241) rotate(91.1339) scale(10.031 9.93493)">
<stop/>
<stop offset="0.163606" stop-opacity="0.714005"/>
<stop offset="0.99269" stop-opacity="0"/>
</radialGradient>
<radialGradient id="paint40_radial_2272_1532" cx="0" cy="0" r="1" gradientUnits="userSpaceOnUse" gradientTransform="translate(953.198 282.204) rotate(91.1123) scale(10.1144 9.82728)">
<stop/>
<stop offset="0.163606" stop-opacity="0.714005"/>
<stop offset="0.99269" stop-opacity="0"/>
</radialGradient>
<radialGradient id="paint41_radial_2272_1532" cx="0" cy="0" r="1" gradientUnits="userSpaceOnUse" gradientTransform="translate(915.209 233.07) rotate(91.1449) scale(10.3883 10.3886)">
<stop/>
<stop offset="0.163606" stop-opacity="0.714005"/>
<stop offset="0.99269" stop-opacity="0"/>
</radialGradient>
<radialGradient id="paint42_radial_2272_1532" cx="0" cy="0" r="1" gradientUnits="userSpaceOnUse" gradientTransform="translate(870.773 189.423) rotate(91.154) scale(10.0033 10.0836)">
<stop/>
<stop offset="0.163606" stop-opacity="0.714005"/>
<stop offset="0.99269" stop-opacity="0"/>
</radialGradient>
<radialGradient id="paint43_radial_2272_1532" cx="0" cy="0" r="1" gradientUnits="userSpaceOnUse" gradientTransform="translate(819.466 152.78) rotate(91.2146) scale(10.2348 10.8581)">
<stop/>
<stop offset="0.163606" stop-opacity="0.714005"/>
<stop offset="0.99269" stop-opacity="0"/>
</radialGradient>
<radialGradient id="paint44_radial_2272_1532" cx="0" cy="0" r="1" gradientUnits="userSpaceOnUse" gradientTransform="translate(763.914 122.688) rotate(91.1186) scale(10.0943 9.86309)">
<stop/>
<stop offset="0.163606" stop-opacity="0.714005"/>
<stop offset="0.99269" stop-opacity="0"/>
</radialGradient>
<radialGradient id="paint45_radial_2272_1532" cx="0" cy="0" r="1" gradientUnits="userSpaceOnUse" gradientTransform="translate(705.254 102.47) rotate(91.1944) scale(9.97815 10.4098)">
<stop/>
<stop offset="0.163606" stop-opacity="0.714005"/>
<stop offset="0.99269" stop-opacity="0"/>
</radialGradient>
<radialGradient id="paint46_radial_2272_1532" cx="0" cy="0" r="1" gradientUnits="userSpaceOnUse" gradientTransform="translate(643.849 88.7936) rotate(91.1449) scale(9.98011 9.98059)">
<stop/>
<stop offset="0.163606" stop-opacity="0.714005"/>
<stop offset="0.99269" stop-opacity="0"/>
</radialGradient>
<radialGradient id="paint47_radial_2272_1532" cx="0" cy="0" r="1" gradientUnits="userSpaceOnUse" gradientTransform="translate(63.7937 280.578) rotate(91.1441) scale(12.8472 12.8391)">
<stop/>
<stop offset="0.163606" stop-opacity="0.714005"/>
<stop offset="0.99269" stop-opacity="0"/>
</radialGradient>
<radialGradient id="paint48_radial_2272_1532" cx="0" cy="0" r="1" gradientUnits="userSpaceOnUse" gradientTransform="translate(1098.99 280.612) rotate(91.1523) scale(12.8095 12.8934)">
<stop/>
<stop offset="0.163606" stop-opacity="0.714005"/>
<stop offset="0.99269" stop-opacity="0"/>
</radialGradient>
<radialGradient id="paint49_radial_2272_1532" cx="0" cy="0" r="1" gradientUnits="userSpaceOnUse" gradientTransform="translate(1058.68 211.046) rotate(91.1272) scale(12.9971 12.7976)">
<stop/>
<stop offset="0.163606" stop-opacity="0.714005"/>
<stop offset="0.99269" stop-opacity="0"/>
</radialGradient>
<radialGradient id="paint50_radial_2272_1532" cx="0" cy="0" r="1" gradientUnits="userSpaceOnUse" gradientTransform="translate(1009.89 147.71) rotate(91.1256) scale(12.8946 12.678)">
<stop/>
<stop offset="0.163606" stop-opacity="0.714005"/>
<stop offset="0.99269" stop-opacity="0"/>
</radialGradient>
</defs>
</svg>
