<svg width="74" height="127" viewBox="0 0 74 127" fill="none" xmlns="http://www.w3.org/2000/svg">
<path d="M15.4447 73.2971C15.3902 72.9378 15.3223 72.4699 15.2465 71.9033C15.0553 70.475 14.8132 68.4183 14.6076 65.8903C14.1967 60.8379 13.9296 53.8853 14.51 46.2963C15.6632 31.2159 20.1953 13.2153 34.0736 2.908C34.7483 2.35315 35.5886 2.03755 36.4627 2.01149L36.5407 2.00917L36.6184 2.01539C37.4801 2.08435 38.2977 2.42284 38.9556 2.98232C52.8785 13.8041 57.5424 31.9552 58.8048 47.0941C59.4397 54.7068 59.2225 61.6506 58.8476 66.6891C58.6601 69.2101 58.4327 71.2582 58.2517 72.6798C58.1785 73.2543 58.1129 73.7266 58.0604 74.0867C67.5581 81.8173 71.7914 86.7186 71.7323 93.2833C71.7031 96.5312 70.6202 100.05 68.9467 104.325C68.1169 106.445 67.1237 108.794 66.012 111.423L65.9612 111.543C64.8265 114.227 63.5643 117.214 62.2074 120.59C61.0638 123.435 59.1521 125.128 56.7843 124.846C54.6434 124.591 52.9369 122.762 51.9631 120.642L15.4447 73.2971ZM15.4447 73.2971C6.0216 80.6492 1.80421 85.408 1.90905 91.9908C1.96075 95.2371 3.06645 98.7928 4.76914 103.131C5.60024 105.249 6.6218 107.665 7.77196 110.386C8.94438 113.159 10.2504 116.248 11.6246 119.659L15.4447 73.2971ZM31.3184 42.4053C32.74 43.8498 34.6674 44.6851 36.6934 44.7349L31.3184 42.4053ZM31.3184 42.4053C29.8967 40.9609 29.0922 39.0205 29.0746 36.9939M31.3184 42.4053L29.0746 36.9939M29.0746 36.9939C29.0676 36.0142 29.2574 35.0431 29.6327 34.1381C30.008 33.2332 30.5611 32.4127 31.2594 31.7255C31.9576 31.0383 32.7868 30.4983 33.6976 30.1374C34.6079 29.7768 35.5812 29.6025 36.56 29.6248C38.5867 29.6742 40.5149 30.5095 41.9369 31.9544C43.359 33.3993 44.1636 35.3405 44.1807 37.3677C44.1875 38.3468 43.9977 39.3172 43.6226 40.2216C43.2473 41.1266 42.6942 41.947 41.9959 42.6343C41.2977 43.3215 40.4686 43.8615 39.5577 44.2224C38.6475 44.583 37.6741 44.7573 36.6953 44.735L29.0746 36.9939ZM46.6752 109.153L51.9627 120.641L21.8624 120.01C21.8625 120.009 21.8627 120.009 21.8628 120.009L27.0449 108.779L46.6752 109.153Z" fill="#A9FF1C" stroke="black" stroke-width="2.84272"/>
</svg>
