<svg width="30" height="31" viewBox="0 0 30 31" fill="none" xmlns="http://www.w3.org/2000/svg">
<path d="M5.9375 2.70898C4.47049 2.70898 3.28125 3.89822 3.28125 5.36523C3.28125 6.83223 4.47049 8.02148 5.9375 8.02148C7.4045 8.02148 8.59375 6.83223 8.59375 5.36523C8.59375 3.89822 7.4045 2.70898 5.9375 2.70898Z" fill="#1D1D1D"/>
<path d="M3.4375 10.209C3.3512 10.209 3.28125 10.2789 3.28125 10.3652V26.6152C3.28125 26.7015 3.3512 26.7715 3.4375 26.7715H8.4375C8.5238 26.7715 8.59375 26.7015 8.59375 26.6152V10.3652C8.59375 10.2789 8.5238 10.209 8.4375 10.209H3.4375Z" fill="#1D1D1D"/>
<path d="M11.5625 10.209C11.4762 10.209 11.4062 10.2789 11.4062 10.3652V26.6152C11.4062 26.7015 11.4762 26.7715 11.5625 26.7715H16.5625C16.6487 26.7715 16.7188 26.7015 16.7188 26.6152V17.8652C16.7188 17.2436 16.9656 16.6475 17.4053 16.208C17.8447 15.7684 18.4409 15.5215 19.0625 15.5215C19.6841 15.5215 20.2802 15.7684 20.7197 16.208C21.1594 16.6475 21.4062 17.2436 21.4062 17.8652V26.6152C21.4062 26.7015 21.4762 26.7715 21.5625 26.7715H26.5625C26.6488 26.7715 26.7188 26.7015 26.7188 26.6152V15.8405C26.7188 12.8071 24.0805 10.434 21.0623 10.7084C20.1315 10.793 19.2113 11.0244 18.3519 11.3927L16.7188 12.0926V10.3652C16.7188 10.2789 16.6487 10.209 16.5625 10.209H11.5625Z" fill="#1D1D1D"/>
</svg>
