<svg width="30" height="31" viewBox="0 0 30 31" fill="none" xmlns="http://www.w3.org/2000/svg">
<path d="M25.7331 7.73367C22.2408 5.12067 18.8952 5.19387 18.8952 5.19387L18.5532 5.58447C22.7049 6.83007 24.6342 8.66157 24.6342 8.66157C18.6945 5.39127 11.1285 5.41467 4.9503 8.66157C4.9503 8.66157 6.9528 6.73227 11.3487 5.48667L11.1045 5.19357C11.1045 5.19357 7.7832 5.12037 4.2666 7.73337C4.2666 7.73337 0.75 14.0586 0.75 21.849C0.75 21.849 2.8014 25.3656 8.1987 25.5366C8.1987 25.5366 9.1023 24.462 9.8349 23.5341C6.7332 22.6062 5.5611 20.6769 5.5611 20.6769C7.5096 21.8961 9.48 22.6593 11.9352 23.1435C15.93 23.9658 20.8989 23.1204 24.6099 20.6769C24.6099 20.6769 23.3889 22.6551 20.1897 23.5587C20.9223 24.4623 21.8016 25.5123 21.8016 25.5123C27.1983 25.3416 29.2497 21.825 29.2497 21.8493C29.2497 14.0589 25.7331 7.73367 25.7331 7.73367ZM10.4451 19.5783C9.0774 19.5783 7.9542 18.3816 7.9542 16.8918C8.0541 13.3242 12.8613 13.3353 12.9363 16.8918C12.936 18.3816 11.8371 19.5783 10.4451 19.5783ZM19.359 19.5783C17.9913 19.5783 16.8681 18.3816 16.8681 16.8918C16.9779 13.3311 21.7251 13.3296 21.8502 16.8918C21.8499 18.3816 20.751 19.5783 19.359 19.5783Z" fill="#1D1D1D"/>
</svg>
