<svg width="30" height="31" viewBox="0 0 30 31" fill="none" xmlns="http://www.w3.org/2000/svg">
<path d="M17.75 3.95898C16.2167 3.95898 14.7462 4.56808 13.662 5.65227C12.5779 6.73647 11.9687 8.20695 11.9687 9.74023V12.959H8.875C8.71967 12.959 8.59375 13.0849 8.59375 13.2402V17.4902C8.59375 17.6456 8.71967 17.7715 8.875 17.7715H11.9687V26.4902C11.9687 26.6456 12.0947 26.7715 12.25 26.7715H16.5C16.6554 26.7715 16.7813 26.6456 16.7813 26.4902V17.7715H19.9024C20.0315 17.7715 20.144 17.6836 20.1752 17.5585L21.2378 13.3085C21.2821 13.131 21.1479 12.959 20.9649 12.959H16.7813V9.74023C16.7813 9.48331 16.8834 9.2369 17.065 9.05522C17.2466 8.87355 17.4931 8.77148 17.75 8.77148H21C21.1554 8.77148 21.2812 8.64556 21.2812 8.49023V4.24023C21.2812 4.08491 21.1554 3.95898 21 3.95898H17.75Z" fill="#1D1D1D"/>
</svg>
