<svg width="22" height="22" viewBox="0 0 22 22" fill="none" xmlns="http://www.w3.org/2000/svg">
<circle cx="11" cy="11" r="11" fill="#444444"/>
<path d="M4.8031 13.7179C5.25429 15.0227 6.09714 16.1568 7.21683 16.9657C8.33652 17.7747 9.67862 18.2191 11.0603 18.2385C12.442 18.258 13.7961 17.8514 14.9381 17.0742C16.0801 16.2971 16.9546 15.1871 17.4423 13.8956C17.9301 12.604 18.0074 11.1936 17.6638 9.85653C17.3202 8.51945 16.5724 7.3207 15.5222 6.42356C14.472 5.52642 13.1705 4.97452 11.7949 4.84303C10.4194 4.71154 9.03674 5.00686 7.83528 5.68876" stroke="#33E9E9" stroke-width="2.08644"/>
<g filter="url(#filter0_f_488_868)">
<path d="M5.55789 9.45049H5.28637V9.72201V11.4013C5.28637 11.7121 5.03423 11.9643 4.72337 11.9643C4.41242 11.9643 4.16037 11.7122 4.16037 11.4013V9.72201V9.45049H3.88884H2.20953C1.8986 9.45049 1.64652 9.19837 1.64652 8.88747C1.64652 8.57651 1.89858 8.32446 2.20953 8.32446H3.88884H4.16037V8.05294V6.3736C4.16037 6.06264 4.41242 5.81059 4.72337 5.81059C5.03425 5.81059 5.28637 6.06266 5.28637 6.3736V8.05294V8.32446H5.55789H7.23721C7.54809 8.32446 7.80021 8.57653 7.80021 8.88747C7.80021 9.19835 7.54808 9.45049 7.23721 9.45049H5.55789Z" stroke="#05FFFF" stroke-width="0.543046"/>
</g>
<path d="M12.7142 16.7235V13.4001H13.3007L13.3495 13.6395H13.3691C13.4636 13.5548 13.5695 13.4848 13.6868 13.4294C13.8073 13.3707 13.9311 13.3414 14.0582 13.3414C14.3515 13.3414 14.5828 13.4538 14.7522 13.6786C14.9217 13.9002 15.0064 14.1983 15.0064 14.573C15.0064 14.85 14.9575 15.0862 14.8597 15.2817C14.762 15.4772 14.6349 15.6271 14.4785 15.7314C14.3254 15.8324 14.1608 15.8829 13.9849 15.8829C13.8806 15.8829 13.7796 15.8617 13.6819 15.8193C13.5841 15.7737 13.4929 15.7102 13.4082 15.6287L13.4326 16.0148V16.7235H12.7142ZM13.8187 15.2964C13.9425 15.2964 14.0484 15.2394 14.1364 15.1253C14.2244 15.0113 14.2684 14.8304 14.2684 14.5828C14.2684 14.1462 14.1283 13.9279 13.848 13.9279C13.7079 13.9279 13.5695 14.0012 13.4326 14.1478V15.14C13.4978 15.1986 13.5629 15.2394 13.6281 15.2622C13.6933 15.285 13.7568 15.2964 13.8187 15.2964Z" fill="#33E9E9"/>
<defs>
<filter id="filter0_f_488_868" x="1.34936" y="5.51342" width="6.748" height="6.74807" filterUnits="userSpaceOnUse" color-interpolation-filters="sRGB">
<feFlood flood-opacity="0" result="BackgroundImageFix"/>
<feBlend mode="normal" in="SourceGraphic" in2="BackgroundImageFix" result="shape"/>
<feGaussianBlur stdDeviation="0.0128219" result="effect1_foregroundBlur_488_868"/>
</filter>
</defs>
</svg>
