<svg width="159" height="43" viewBox="0 0 159 43" fill="none" xmlns="http://www.w3.org/2000/svg">
<mask id="mask0_655_86" style="mask-type:alpha" maskUnits="userSpaceOnUse" x="73" y="11" width="86" height="19">
<path fill-rule="evenodd" clip-rule="evenodd" d="M111.072 11.8476C111.072 11.8919 110.841 11.9251 110.533 11.9251C110.225 11.9251 109.994 11.9584 109.994 12.0027C109.994 12.0453 109.874 12.0802 109.729 12.0802C109.583 12.0802 109.442 12.1151 109.416 12.1578C109.39 12.2004 109.286 12.2353 109.185 12.2353C109.084 12.2353 108.98 12.2702 108.954 12.3129C108.927 12.3555 108.821 12.3904 108.718 12.3904C108.614 12.3904 108.53 12.4253 108.53 12.468C108.53 12.5106 108.461 12.5455 108.376 12.5455C108.291 12.5455 108.222 12.5761 108.222 12.6134C108.222 12.6507 108.122 12.7013 108 12.7259C107.878 12.7505 107.724 12.8246 107.659 12.8907C107.593 12.9568 107.485 13.0108 107.418 13.0108C107.352 13.0108 107.297 13.0415 107.297 13.079C107.297 13.1165 107.193 13.1905 107.066 13.2435C106.939 13.2965 106.835 13.3682 106.835 13.4028C106.835 13.4374 106.77 13.4863 106.692 13.5114C106.498 13.5734 105.129 14.9348 104.992 15.2017C104.932 15.3189 104.854 15.4149 104.819 15.4149C104.784 15.4149 104.755 15.4673 104.755 15.5312C104.755 15.5952 104.72 15.6476 104.678 15.6476C104.635 15.6476 104.601 15.697 104.601 15.7575C104.601 15.8179 104.575 15.8789 104.543 15.8932C104.511 15.9074 104.399 16.0935 104.294 16.3068C104.188 16.52 104.084 16.712 104.062 16.7333C103.986 16.806 103.667 17.7784 103.465 18.5557C103.214 19.5202 103.173 21.8831 103.391 22.7823C103.642 23.8172 103.973 24.8149 104.081 24.8632C104.113 24.8775 104.139 24.9559 104.139 25.0377C104.139 25.1194 104.173 25.1864 104.216 25.1864C104.258 25.1864 104.293 25.2561 104.293 25.3415C104.293 25.4268 104.327 25.4966 104.37 25.4966C104.412 25.4966 104.447 25.5587 104.447 25.6345C104.447 25.7104 104.516 25.8228 104.601 25.8843C104.686 25.9458 104.755 26.0401 104.755 26.0939C104.755 26.334 106.773 28.3659 107.012 28.3659C107.065 28.3659 107.159 28.4357 107.22 28.521C107.281 28.6063 107.393 28.6761 107.468 28.6761C107.544 28.6761 107.605 28.711 107.605 28.7537C107.605 28.7963 107.675 28.8312 107.759 28.8312C107.844 28.8312 107.914 28.8661 107.914 28.9088C107.914 28.9515 107.983 28.9863 108.068 28.9863C108.152 28.9863 108.222 29.015 108.222 29.0499C108.222 29.0848 108.397 29.1615 108.612 29.2203C108.826 29.2792 109.019 29.3553 109.04 29.3895C109.061 29.4237 109.156 29.4517 109.251 29.4517C109.346 29.4517 109.456 29.4812 109.497 29.5173C109.825 29.8113 112.945 29.9073 114 29.6556C114.318 29.5798 114.664 29.4983 114.77 29.4744C114.876 29.4504 114.997 29.4057 115.04 29.375C115.082 29.3442 115.282 29.2715 115.483 29.2133C115.684 29.1552 115.849 29.0803 115.849 29.047C115.849 29.0137 115.918 28.9863 116.003 28.9863C116.087 28.9863 116.157 28.9515 116.157 28.9088C116.157 28.8661 116.226 28.8312 116.311 28.8312C116.396 28.8312 116.465 28.7963 116.465 28.7537C116.465 28.711 116.517 28.6761 116.581 28.6761C116.644 28.6761 116.696 28.6412 116.696 28.5986C116.696 28.5559 116.748 28.521 116.812 28.521C116.875 28.521 116.927 28.4861 116.927 28.4435C116.927 28.4008 116.979 28.3659 117.043 28.3659C117.106 28.3659 117.158 28.331 117.158 28.2884C117.158 28.2457 117.193 28.2108 117.235 28.2108C117.367 28.2108 118.853 26.8212 118.853 26.6975C118.853 26.6135 118.638 26.4272 118.54 26.4272C118.489 26.4272 118.392 26.3658 118.323 26.2909C118.254 26.216 118.103 26.1054 117.987 26.0451C117.87 25.985 117.775 25.9066 117.775 25.8712C117.775 25.8358 117.723 25.8068 117.659 25.8068C117.596 25.8068 117.544 25.7719 117.544 25.7292C117.544 25.6866 117.492 25.6517 117.428 25.6517C117.364 25.6517 117.312 25.6253 117.312 25.593C117.312 25.5608 117.217 25.4915 117.101 25.4391C116.984 25.3866 116.787 25.255 116.662 25.1465C116.263 24.7985 116.13 24.8137 115.702 25.2561C115.492 25.4737 115.282 25.6517 115.237 25.6517C115.192 25.6517 115.155 25.6866 115.155 25.7292C115.155 25.7719 115.103 25.8068 115.04 25.8068C114.976 25.8068 114.924 25.8351 114.924 25.8698C114.924 25.9045 114.803 25.9809 114.655 26.0394C114.506 26.098 114.385 26.1743 114.385 26.209C114.385 26.2437 114.298 26.2721 114.192 26.2721C114.086 26.2721 114 26.307 114 26.3496C114 26.3923 113.903 26.4272 113.784 26.4272C113.665 26.4272 113.535 26.4589 113.495 26.4976C113.315 26.6704 111.695 26.7325 110.995 26.5932C110.762 26.5468 110.441 26.4866 110.283 26.4595C110.124 26.4324 109.994 26.3791 109.994 26.3412C109.994 26.3032 109.924 26.2721 109.84 26.2721C109.755 26.2721 109.685 26.2372 109.685 26.1945C109.685 26.1519 109.616 26.117 109.531 26.117C109.447 26.117 109.377 26.0821 109.377 26.0394C109.377 25.9968 109.325 25.9619 109.262 25.9619C109.198 25.9619 109.146 25.927 109.146 25.8843C109.146 25.8417 109.095 25.8068 109.034 25.8068C108.904 25.8068 107.759 24.7271 107.759 24.6044C107.759 24.5594 107.69 24.4723 107.605 24.4108C107.521 24.3493 107.451 24.237 107.451 24.161C107.451 24.0852 107.417 24.0231 107.374 24.0231C107.332 24.0231 107.297 23.9533 107.297 23.868C107.297 23.7827 107.263 23.7129 107.22 23.7129C107.178 23.7129 107.143 23.6431 107.143 23.5578C107.143 23.4725 107.108 23.4027 107.066 23.4027C107.024 23.4027 106.989 23.3329 106.989 23.2476C106.989 23.1623 106.958 23.0925 106.92 23.0925C106.883 23.0925 106.833 22.9791 106.809 22.8404C106.786 22.7018 106.722 22.379 106.667 22.1231C106.503 21.3614 106.575 19.2127 106.768 19.0924C106.805 19.0694 106.835 18.9481 106.835 18.8226C106.835 18.6971 106.87 18.5945 106.912 18.5945C106.954 18.5945 106.989 18.5268 106.989 18.444C106.989 18.3612 107.024 18.2719 107.066 18.2455C107.108 18.2192 107.143 18.1364 107.143 18.0617C107.143 17.987 107.212 17.8509 107.297 17.7593C107.382 17.6678 107.451 17.539 107.451 17.4733C107.451 17.4075 107.486 17.3537 107.528 17.3537C107.571 17.3537 107.605 17.3013 107.605 17.2374C107.605 17.1734 107.64 17.121 107.682 17.121C107.725 17.121 107.759 17.0854 107.759 17.0418C107.759 16.7709 109.322 15.5322 109.782 15.4386C109.898 15.4149 109.994 15.365 109.994 15.3277C109.994 15.2904 110.098 15.2598 110.225 15.2598C110.352 15.2598 110.456 15.2249 110.456 15.1823C110.456 15.1396 110.622 15.1047 110.826 15.1047C111.029 15.1047 111.233 15.0673 111.278 15.0214C111.41 14.8884 113.411 15.0352 113.572 15.1898C113.612 15.2283 113.708 15.2598 113.785 15.2598C113.862 15.2598 113.985 15.2906 114.059 15.3283C114.132 15.366 114.296 15.4436 114.423 15.5007C114.789 15.665 115.518 16.1725 115.809 16.4654C116.059 16.7175 116.416 16.8253 116.478 16.6674C116.492 16.6312 116.816 16.3957 117.197 16.144C117.578 15.8922 117.902 15.6601 117.916 15.6282C117.93 15.5962 117.984 15.57 118.036 15.57C118.088 15.57 118.198 15.509 118.28 15.4343C118.362 15.3596 118.525 15.249 118.641 15.1885C119.071 14.9654 118.03 13.8312 116.719 13.0931C116.6 13.0266 116.486 12.9546 116.465 12.9333C116.373 12.8407 116.072 12.7006 115.965 12.7006C115.901 12.7006 115.849 12.6657 115.849 12.6231C115.849 12.5804 115.779 12.5455 115.695 12.5455C115.61 12.5455 115.541 12.5106 115.541 12.468C115.541 12.4253 115.437 12.3904 115.309 12.3904C115.182 12.3904 115.078 12.3555 115.078 12.3129C115.078 12.2702 114.974 12.2353 114.847 12.2353C114.72 12.2353 114.616 12.2004 114.616 12.1578C114.616 12.1151 114.497 12.0802 114.351 12.0802C114.205 12.0802 114.064 12.0453 114.038 12.0027C114.012 11.96 113.767 11.9251 113.494 11.9251C113.215 11.9251 112.998 11.8912 112.998 11.8476C112.998 11.8 112.626 11.77 112.035 11.77C111.445 11.77 111.072 11.8 111.072 11.8476ZM144.199 11.8476C144.199 11.8902 144.145 11.9251 144.078 11.9251C143.897 11.9251 143.351 12.5327 143.299 12.7904C143.275 12.9134 143.225 13.0329 143.188 13.0558C143.043 13.1457 143.211 14.1741 143.371 14.1741C143.403 14.1741 143.429 14.228 143.429 14.2939C143.429 14.4491 143.772 14.7945 143.926 14.7945C143.992 14.7945 144.045 14.8294 144.045 14.8721C144.045 14.9147 144.115 14.9496 144.199 14.9496C144.284 14.9496 144.353 14.9845 144.353 15.0272C144.353 15.0698 144.544 15.1047 144.777 15.1047C145.01 15.1047 145.201 15.0698 145.201 15.0272C145.201 14.9845 145.282 14.9496 145.381 14.9496C145.591 14.9496 146.279 14.3314 146.279 14.143C146.279 14.0748 146.314 14.019 146.357 14.019C146.401 14.019 146.434 13.7734 146.434 13.4374C146.434 13.1013 146.401 12.8557 146.357 12.8557C146.314 12.8557 146.279 12.8019 146.279 12.7362C146.279 12.6093 146.178 12.4622 145.943 12.2493C145.865 12.1776 145.754 12.0754 145.699 12.0221C145.643 11.9688 145.543 11.9251 145.476 11.9251C145.409 11.9251 145.355 11.8902 145.355 11.8476C145.355 11.8027 145.111 11.77 144.777 11.77C144.443 11.77 144.199 11.8027 144.199 11.8476ZM73.4186 20.8241L73.4381 29.568L78.4793 29.5879C82.4614 29.6037 83.5335 29.5874 83.5821 29.5104C83.6534 29.3972 83.6688 26.7326 83.5992 26.5498C83.5575 26.4405 83.1799 26.4272 80.1324 26.4272H76.7123V24.3721V22.317H79.7939H82.8755V20.859C82.8755 19.0072 83.2768 19.2149 79.7002 19.2149H76.7097L76.7303 17.218L76.7509 15.221L80.0443 15.2008L83.3378 15.1806V13.6304V12.0802H78.3684H73.3989L73.4186 20.8241ZM119.161 20.8451V29.61L120.683 29.589L122.204 29.568L122.245 25.6129L122.286 21.6578L122.483 21.2304C122.68 20.8043 123.303 20.068 123.466 20.068C123.514 20.068 123.553 20.0331 123.553 19.9904C123.553 19.9478 123.62 19.9129 123.702 19.9129C123.784 19.9129 123.871 19.8819 123.894 19.8439C124.036 19.6122 125.842 19.6122 125.985 19.8439C126.008 19.8819 126.078 19.9129 126.14 19.9129C126.31 19.9129 127.097 20.74 127.097 20.9193C127.097 21.0056 127.131 21.0761 127.174 21.0761C127.216 21.0761 127.251 21.1983 127.251 21.3476C127.251 21.4969 127.285 21.619 127.328 21.619C127.378 21.619 127.405 23.0025 127.405 25.6145V29.6099L128.965 29.589L130.525 29.568L130.52 25.419C130.516 21.4585 130.469 20.2231 130.322 20.2231C130.285 20.2231 130.255 20.1205 130.255 19.995C130.255 19.8695 130.22 19.7454 130.178 19.719C130.136 19.6926 130.101 19.5859 130.101 19.4818C130.101 19.3776 130.066 19.2925 130.024 19.2925C129.982 19.2925 129.947 19.2227 129.947 19.1374C129.947 19.0521 129.921 18.9823 129.889 18.9823C129.857 18.9823 129.781 18.8689 129.721 18.7302C129.661 18.5916 129.549 18.4217 129.471 18.3528C129.394 18.2838 129.331 18.2025 129.331 18.1722C129.331 18.0861 128.73 17.5088 128.64 17.5088C128.596 17.5088 128.56 17.4739 128.56 17.4312C128.56 17.3886 128.508 17.3537 128.445 17.3537C128.381 17.3537 128.329 17.3188 128.329 17.2761C128.329 17.2335 128.277 17.1986 128.214 17.1986C128.15 17.1986 128.098 17.1637 128.098 17.121C128.098 17.0784 128.036 17.0435 127.959 17.0435C127.883 17.0435 127.788 17.0146 127.747 16.9794C127.434 16.7051 124.783 16.55 124.542 16.7919C124.489 16.845 124.367 16.8884 124.269 16.8884C124.172 16.8884 124.092 16.9233 124.092 16.9659C124.092 17.0086 124.023 17.0435 123.938 17.0435C123.853 17.0435 123.784 17.0784 123.784 17.121C123.784 17.1637 123.714 17.1986 123.63 17.1986C123.545 17.1986 123.476 17.2335 123.476 17.2761C123.476 17.3188 123.431 17.3537 123.377 17.3537C123.323 17.3537 123.229 17.4235 123.167 17.5088C123.106 17.5941 123.012 17.6639 122.958 17.6639C122.904 17.6639 122.859 17.6936 122.859 17.73C122.859 17.8488 122.393 18.2907 122.317 18.2436C122.272 18.2155 122.243 17.0074 122.243 15.1389V12.0802H120.702H119.161V20.8451ZM135.841 16.6923C135.417 16.7483 134.931 16.8357 134.762 16.8864C134.593 16.9372 134.359 16.9973 134.242 17.0199C134.125 17.0426 134.03 17.092 134.03 17.1298C134.03 17.1677 133.963 17.1986 133.881 17.1986C133.798 17.1986 133.71 17.2335 133.683 17.2761C133.657 17.3188 133.569 17.3537 133.486 17.3537C133.404 17.3537 133.337 17.3886 133.337 17.4312C133.337 17.4739 133.285 17.5088 133.221 17.5088C133.158 17.5088 133.106 17.5437 133.106 17.5863C133.106 17.629 133.036 17.6639 132.952 17.6639C132.867 17.6639 132.797 17.6929 132.797 17.7283C132.797 17.7638 132.702 17.8421 132.586 17.9023C132.469 17.9625 132.318 18.0731 132.249 18.1481C132.181 18.223 132.091 18.2843 132.051 18.2843C132.01 18.2843 131.9 18.3671 131.805 18.4683L131.633 18.6523L131.965 18.9131C132.147 19.0566 132.343 19.218 132.398 19.272C132.454 19.3259 132.531 19.37 132.569 19.37C132.607 19.37 132.752 19.4834 132.892 19.6221C133.031 19.7607 133.24 19.9237 133.357 19.9841C133.473 20.0446 133.568 20.1232 133.568 20.1586C133.568 20.2389 133.931 20.2446 133.966 20.1649C134.003 20.0812 134.641 19.7578 134.769 19.7578C134.829 19.7578 134.878 19.7229 134.878 19.6802C134.878 19.6376 134.957 19.6027 135.055 19.6027C135.152 19.6027 135.275 19.5595 135.327 19.5067C135.449 19.3845 137.481 19.3767 137.56 19.4981C137.589 19.5425 137.705 19.6015 137.818 19.6294C138.066 19.6904 138.653 20.2397 138.653 20.4109C138.653 20.4782 138.687 20.5333 138.73 20.5333C138.772 20.5333 138.807 20.6533 138.807 20.8001C138.807 20.9469 138.841 21.0886 138.884 21.1149C138.926 21.1413 138.961 21.3527 138.961 21.5848V22.0068H137.665C136.452 22.0068 135.167 22.1289 134.338 22.3229C134.148 22.3675 133.896 22.4233 133.78 22.4469C133.663 22.4704 133.568 22.5206 133.568 22.5584C133.568 22.5962 133.483 22.6272 133.38 22.6272C133.276 22.6272 133.17 22.6621 133.144 22.7047C133.118 22.7474 133.029 22.7823 132.947 22.7823C132.865 22.7823 132.797 22.8113 132.797 22.8467C132.797 22.8822 132.702 22.9605 132.586 23.0207C132.469 23.0809 132.318 23.1915 132.249 23.2664C132.181 23.3413 132.098 23.4027 132.067 23.4027C131.975 23.4027 131.578 23.8746 131.355 24.2486C130.726 25.3024 130.767 27.2977 131.434 28.105C131.79 28.5361 132.268 28.9863 132.369 28.9863C132.435 28.9863 132.489 29.015 132.489 29.0502C132.489 29.2289 133.801 29.7 134.646 29.8248C135.325 29.9249 136.98 29.7262 137.223 29.515C137.264 29.4802 137.359 29.4517 137.435 29.4517C137.512 29.4517 137.574 29.4168 137.574 29.3741C137.574 29.3315 137.643 29.2966 137.728 29.2966C137.813 29.2966 137.882 29.264 137.882 29.2242C137.882 29.1844 137.954 29.1291 138.041 29.1012C138.128 29.0733 138.353 28.8965 138.54 28.7083C138.975 28.2694 138.961 28.2596 138.961 28.9863V29.6068H140.501H142.042L142.037 25.2833C142.032 21.3612 142.009 20.7099 141.849 19.9517C141.77 19.5797 141.36 18.6557 141.253 18.6075C141.221 18.5932 141.195 18.5322 141.195 18.4717C141.195 18.4113 141.16 18.3619 141.118 18.3619C141.075 18.3619 141.041 18.3258 141.041 18.2817C141.041 18.1718 140.528 17.6639 140.417 17.6639C140.367 17.6639 140.271 17.6022 140.202 17.5269C140.134 17.4515 139.904 17.3081 139.693 17.2081C139.481 17.1082 139.247 16.9954 139.174 16.9575C139.1 16.9195 138.955 16.8884 138.851 16.8884C138.747 16.8884 138.643 16.8581 138.62 16.821C138.598 16.7839 138.292 16.73 137.942 16.7012C137.591 16.6723 137.148 16.6357 136.958 16.6197C136.767 16.6037 136.264 16.6364 135.841 16.6923ZM90.1173 16.7011C89.7959 16.759 89.3129 16.9114 89.2352 16.9794C89.1949 17.0146 89.0996 17.0435 89.0233 17.0435C88.9471 17.0435 88.8847 17.0725 88.8847 17.1079C88.8847 17.1434 88.7894 17.2219 88.6728 17.2824C88.5562 17.3429 88.2985 17.5582 88.1 17.7608C87.6388 18.2315 87.652 18.239 87.652 17.5072V16.8852L86.092 16.9061L84.5319 16.9272V23.2476V29.568L86.092 29.589L87.652 29.6099V25.5803C87.652 22.9775 87.6793 21.5336 87.7291 21.5027C87.7714 21.4763 87.8061 21.3521 87.8061 21.2267C87.8061 21.1012 87.8408 20.9986 87.8831 20.9986C87.9255 20.9986 87.9602 20.9465 87.9602 20.8829C87.9602 20.7368 88.2768 20.3497 88.6267 20.068C89.0666 19.714 90.174 19.4588 90.3099 19.6802C90.3361 19.7229 90.4594 19.7578 90.5841 19.7578C90.7087 19.7578 90.8107 19.7927 90.8107 19.8353C90.8107 19.878 90.8661 19.9129 90.9339 19.9129C91.1342 19.9129 91.7009 20.5787 91.8075 20.9392C91.8613 21.1211 91.9363 21.3502 91.9743 21.4482C92.0123 21.5461 92.0433 23.4219 92.0433 25.6165V29.6068H93.5815H95.1196L95.1418 25.5935C95.1674 20.9597 95.1506 21.0827 95.8627 20.3366C96.0852 20.1036 96.3222 19.9129 96.3894 19.9129C96.4566 19.9129 96.5116 19.878 96.5116 19.8353C96.5116 19.7927 96.6136 19.7578 96.7382 19.7578C96.8629 19.7578 96.9862 19.7229 97.0124 19.6802C97.0386 19.6376 97.2119 19.6027 97.3976 19.6027C97.5833 19.6027 97.7566 19.6376 97.7828 19.6802C97.809 19.7229 97.9155 19.7578 98.0195 19.7578C98.3496 19.7578 99.208 20.4564 99.208 20.7251C99.208 20.7902 99.2427 20.8435 99.2851 20.8435C99.3274 20.8435 99.3621 20.9635 99.3621 21.1103C99.3621 21.2571 99.3968 21.3988 99.4391 21.4251C99.4889 21.4561 99.5162 22.9129 99.5162 25.5415V29.6099L101.076 29.589L102.636 29.568L102.63 25.2639C102.624 21.1578 102.585 20.1168 102.434 20.0232C102.397 20.0001 102.367 19.8807 102.367 19.7578C102.367 19.6349 102.332 19.5127 102.29 19.4863C102.247 19.46 102.213 19.3707 102.213 19.2879C102.213 19.2051 102.178 19.1374 102.136 19.1374C102.093 19.1374 102.059 19.0676 102.059 18.9823C102.059 18.897 102.024 18.8272 101.981 18.8272C101.939 18.8272 101.904 18.7748 101.904 18.7108C101.904 18.6469 101.87 18.5945 101.827 18.5945C101.785 18.5945 101.75 18.5415 101.75 18.4767C101.75 18.3466 100.798 17.3537 100.673 17.3537C100.63 17.3537 100.595 17.3188 100.595 17.2761C100.595 17.2335 100.543 17.1986 100.479 17.1986C100.416 17.1986 100.364 17.1637 100.364 17.121C100.364 17.0784 100.301 17.0435 100.225 17.0435C100.149 17.0435 100.053 17.0146 100.013 16.9794C99.6709 16.6799 97.5179 16.5783 96.8162 16.8284C96.3122 17.0082 95.8953 17.2174 95.8953 17.2905C95.8953 17.3252 95.8418 17.3537 95.7763 17.3537C95.7108 17.3537 95.5773 17.4322 95.4796 17.5282C95.3819 17.6242 95.2166 17.7725 95.1121 17.8578C95.0077 17.9431 94.8248 18.144 94.7058 18.3044L94.4893 18.5958L94.3449 18.4282C94.2655 18.336 94.2004 18.2308 94.2004 18.1943C94.2004 18.0836 93.2702 17.1986 93.1537 17.1986C93.0938 17.1986 93.0448 17.1637 93.0448 17.121C93.0448 17.0784 92.9755 17.0435 92.8907 17.0435C92.806 17.0435 92.7367 17.0086 92.7367 16.9659C92.7367 16.9233 92.6569 16.8884 92.5595 16.8884C92.462 16.8884 92.3441 16.8499 92.2975 16.803C92.2112 16.7161 90.4819 16.6353 90.1173 16.7011ZM153.406 16.7073C153.236 16.7273 153.065 16.7762 153.024 16.816C152.984 16.8558 152.871 16.8884 152.774 16.8884C152.677 16.8884 152.597 16.9233 152.597 16.9659C152.597 17.0086 152.527 17.0435 152.443 17.0435C152.358 17.0435 152.289 17.0784 152.289 17.121C152.289 17.1637 152.219 17.1986 152.135 17.1986C152.05 17.1986 151.98 17.2335 151.98 17.2761C151.98 17.3188 151.928 17.3537 151.865 17.3537C151.801 17.3537 151.749 17.3886 151.749 17.4312C151.749 17.4739 151.712 17.5088 151.666 17.5088C151.567 17.5088 150.979 18.1113 150.979 18.2131C150.979 18.7224 150.75 18.1597 150.732 17.6057L150.709 16.9272L149.188 16.9061L147.666 16.8851V23.2476V29.61L149.188 29.589L150.709 29.568L150.748 25.6129C150.784 21.8885 150.795 21.6353 150.94 21.2727C151.154 20.7397 151.915 19.9805 152.37 19.8473C152.558 19.7923 152.819 19.7147 152.949 19.675C153.261 19.5795 153.808 19.5826 153.868 19.6802C153.894 19.7229 154.033 19.7578 154.176 19.7578C154.319 19.7578 154.458 19.7927 154.484 19.8353C154.51 19.878 154.583 19.9129 154.645 19.9129C154.822 19.9129 155.426 20.5659 155.592 20.9359C155.853 21.5192 155.861 21.6601 155.887 25.671L155.912 29.6068H157.456H159L158.976 25.0506C158.96 21.9027 158.926 20.4346 158.866 20.3006C158.819 20.194 158.738 19.9672 158.688 19.7966C158.577 19.426 158.283 18.7989 158.201 18.7626C158.17 18.7483 158.144 18.6775 158.144 18.6051C158.144 18.5329 158.074 18.4234 157.99 18.3619C157.905 18.3004 157.835 18.2137 157.835 18.1694C157.835 18.125 157.727 18.0019 157.595 17.8957C157.463 17.7895 157.274 17.6242 157.175 17.5282C157.076 17.4322 156.959 17.3537 156.914 17.3537C156.87 17.3537 156.834 17.3188 156.834 17.2761C156.834 17.2335 156.782 17.1986 156.718 17.1986C156.655 17.1986 156.603 17.1637 156.603 17.121C156.603 17.0784 156.536 17.0435 156.453 17.0435C156.371 17.0435 156.282 17.0086 156.256 16.9659C156.23 16.9233 156.131 16.8884 156.036 16.8884C155.941 16.8884 155.826 16.8512 155.781 16.8056C155.694 16.7179 153.934 16.645 153.406 16.7073ZM143.31 16.9853C143.29 17.0387 143.283 19.8916 143.294 23.3251L143.313 29.568L144.873 29.589L146.434 29.6099V23.2492V16.8884H144.89C143.727 16.8884 143.338 16.9122 143.31 16.9853ZM138.943 25.0861C138.962 26.046 138.947 26.2099 138.828 26.3598C137.315 28.2606 134.089 27.9377 134.078 25.8843C134.073 24.9238 134.51 24.478 135.764 24.1641C136.084 24.0839 137.866 23.9634 138.537 23.9767L138.922 23.9843L138.943 25.0861Z" fill="#000CCC"/>
</mask>
<g mask="url(#mask0_655_86)">
<rect x="69" y="7" width="94" height="27" fill="#000CCC"/>
</g>
<mask id="mask1_655_86" style="mask-type:alpha" maskUnits="userSpaceOnUse" x="0" y="0" width="63" height="43">
<path d="M15.2197 0.131869C15.3761 0.128844 15.5734 0.0951869 15.6581 0.0570318C15.9684 -0.0827152 18.717 0.0582727 18.89 0.222758C18.9302 0.261069 19.0581 0.292399 19.1743 0.292399C19.2905 0.292399 19.4069 0.327297 19.4331 0.36995C19.4593 0.412603 19.5653 0.447501 19.6688 0.447501C19.7722 0.447501 19.8568 0.482399 19.8568 0.525052C19.8568 0.567705 19.9435 0.602603 20.0494 0.602603C20.1553 0.602603 20.242 0.637501 20.242 0.680154C20.242 0.722807 20.3287 0.757705 20.4346 0.757705C20.5405 0.757705 20.6272 0.792603 20.6272 0.835256C20.6272 0.877909 20.6727 0.912807 20.7282 0.912807C20.7838 0.912807 20.9037 0.982603 20.9947 1.06791C21.0856 1.15322 21.2135 1.22301 21.2788 1.22301C21.3441 1.22301 21.3976 1.25202 21.3976 1.28746C21.3976 1.3229 21.4919 1.40146 21.6071 1.46195C22.0982 1.71996 23.7858 3.41484 23.7858 3.65005C23.7858 3.70387 23.8552 3.79825 23.9399 3.85975C24.0247 3.92124 24.094 4.03362 24.094 4.10954C24.094 4.18538 24.1287 4.2475 24.171 4.2475C24.2134 4.2475 24.2481 4.3173 24.2481 4.4026C24.2481 4.48791 24.2828 4.55771 24.3251 4.55771C24.3675 4.55771 24.4022 4.59004 24.4022 4.6296C24.4022 4.66907 24.5687 4.97447 24.7721 5.30817C24.9755 5.64187 25.244 6.10679 25.3686 6.34138C25.4931 6.57597 25.6153 6.78536 25.64 6.80669C25.6646 6.82801 25.7689 7.0025 25.8717 7.19444C25.9745 7.38638 26.0786 7.56087 26.1032 7.5822C26.1278 7.60352 26.197 7.73443 26.2568 7.87301C26.3168 8.0116 26.392 8.12505 26.424 8.12505C26.4561 8.12505 26.4822 8.1774 26.4822 8.24138C26.4822 8.30536 26.5169 8.35771 26.5593 8.35771C26.6017 8.35771 26.6363 8.41005 26.6363 8.47403C26.6363 8.53801 26.671 8.59036 26.7134 8.59036C26.7557 8.59036 26.7904 8.66016 26.7904 8.74546C26.7904 8.83077 26.8208 8.90056 26.8581 8.90056C26.8953 8.90056 26.9689 9.00526 27.0215 9.13322C27.0741 9.26118 27.1477 9.36587 27.1849 9.36587C27.2222 9.36587 27.2526 9.4328 27.2526 9.51454C27.2526 9.59627 27.2797 9.67476 27.3128 9.68903C27.3689 9.71314 27.8143 10.4686 28.3567 11.4597C28.4851 11.6943 28.6099 11.9037 28.634 11.9251C28.7083 11.9907 28.9546 12.4215 28.9998 12.5649C29.0233 12.6395 29.0732 12.7006 29.1106 12.7006C29.148 12.7006 29.1786 12.7704 29.1786 12.8557C29.1786 12.941 29.2133 13.0108 29.2557 13.0108C29.2981 13.0108 29.3327 13.0631 29.3327 13.1271C29.3327 13.1911 29.3674 13.2434 29.4098 13.2434C29.4521 13.2434 29.4868 13.2958 29.4868 13.3597C29.4868 13.4237 29.515 13.4761 29.5494 13.4761C29.584 13.4761 29.6598 13.5982 29.7179 13.7475C29.7761 13.8968 29.8433 14.0189 29.8672 14.0189C29.8912 14.0189 29.9966 14.1847 30.1014 14.3873C30.2062 14.5899 30.3143 14.7731 30.3415 14.7944C30.3688 14.8158 30.4867 15.0252 30.6037 15.2597C30.7206 15.4943 30.8771 15.7735 30.9513 15.8802C31.162 16.1825 31.492 16.7578 31.5408 16.9077C31.565 16.9823 31.6155 17.0434 31.6529 17.0434C31.6903 17.0434 31.721 17.1132 31.721 17.1985C31.721 17.2838 31.7556 17.3536 31.798 17.3536C31.8404 17.3536 31.875 17.4157 31.875 17.4916C31.875 17.5675 31.9444 17.6799 32.0291 17.7414C32.1139 17.8029 32.1832 17.9153 32.1832 17.9912C32.1832 18.067 32.2179 18.1291 32.2603 18.1291C32.3026 18.1291 32.3373 18.1815 32.3373 18.2455C32.3373 18.3094 32.372 18.3618 32.4143 18.3618C32.4567 18.3618 32.4914 18.4141 32.4914 18.4781C32.4914 18.5421 32.5176 18.5944 32.5496 18.5944C32.5817 18.5944 32.6569 18.7078 32.7168 18.8465C32.7766 18.9851 32.8458 19.116 32.8704 19.1373C32.895 19.1586 32.9982 19.3331 33.0999 19.5251C33.2015 19.717 33.3266 19.9264 33.3779 19.9904C33.4291 20.0543 33.5878 20.3335 33.7305 20.6108C33.8732 20.888 34.0108 21.1323 34.0361 21.1536C34.0614 21.175 34.1663 21.3494 34.2691 21.5414C34.3718 21.7333 34.4818 21.902 34.5137 21.9162C34.5455 21.9305 34.5714 21.9915 34.5714 22.0519C34.5714 22.1124 34.6061 22.1618 34.6485 22.1618C34.6909 22.1618 34.7255 22.2316 34.7255 22.3169C34.7255 22.4022 34.7602 22.472 34.8026 22.472C34.8449 22.472 34.8796 22.5178 34.8796 22.5737C34.8796 22.6297 34.9489 22.7503 35.0337 22.8419C35.1184 22.9334 35.1878 23.0622 35.1878 23.1279C35.1878 23.1937 35.2224 23.2475 35.2648 23.2475C35.3072 23.2475 35.3419 23.3173 35.3419 23.4026C35.3419 23.4879 35.3707 23.5577 35.4059 23.5577C35.4411 23.5577 35.506 23.6363 35.5502 23.7322L35.791 24.2557C36.713 26.2602 36.6823 29.113 35.718 31.0209C35.6806 31.095 35.65 31.2084 35.65 31.273C35.65 31.3376 35.6196 31.3904 35.5823 31.3904C35.5451 31.3904 35.4715 31.4951 35.4189 31.623C35.3663 31.751 35.2927 31.8557 35.2555 31.8557C35.2182 31.8557 35.1878 31.9178 35.1878 31.9936C35.1878 32.0696 35.1184 32.1819 35.0337 32.2434C34.9489 32.3049 34.8796 32.382 34.8796 32.4147C34.8796 32.5582 33.4035 34.1047 33.2665 34.1047C33.2216 34.1047 33.1847 34.1395 33.1847 34.1822C33.1847 34.2249 33.1486 34.2598 33.1045 34.2598C33.0603 34.2598 32.9498 34.3296 32.8589 34.4149C32.7679 34.5002 32.648 34.57 32.5924 34.57C32.5368 34.57 32.4914 34.6049 32.4914 34.6475C32.4914 34.6902 32.422 34.7251 32.3373 34.7251C32.2525 34.7251 32.1832 34.7552 32.1832 34.792C32.1832 34.8288 31.9839 34.9483 31.7402 35.0575C29.9606 35.8552 28.0059 36.0702 26.3667 35.6485C25.6708 35.4695 24.7109 35.1478 24.7106 35.0934C24.7105 35.0614 24.641 35.0353 24.5562 35.0353C24.4715 35.0353 24.4022 35.0004 24.4022 34.9577C24.4022 34.9151 24.3328 34.8802 24.2481 34.8802C24.1633 34.8802 24.094 34.8453 24.094 34.8026C24.094 34.76 24.0323 34.7251 23.957 34.7251C23.8815 34.7251 23.7699 34.6553 23.7088 34.57C23.6477 34.4846 23.5534 34.4149 23.4992 34.4149C23.445 34.4149 23.4006 34.38 23.4006 34.3373C23.4006 34.2947 23.3563 34.2598 23.3021 34.2598C23.2479 34.2598 23.1536 34.19 23.0925 34.1047C23.0314 34.0193 22.9519 33.9496 22.9158 33.9496C22.8327 33.9496 21.7058 32.8116 21.7058 32.7277C21.7058 32.6935 21.6364 32.6151 21.5517 32.5536C21.4669 32.4921 21.3976 32.3972 21.3976 32.3426C21.3976 32.2881 21.3629 32.2434 21.3206 32.2434C21.2782 32.2434 21.2435 32.1911 21.2435 32.1271C21.2435 32.0631 21.2089 32.0108 21.1665 32.0108C21.1241 32.0108 21.0894 31.9487 21.0894 31.8728C21.0894 31.7969 21.0201 31.6845 20.9354 31.623C20.8506 31.5615 20.7813 31.4491 20.7813 31.3732C20.7813 31.2974 20.7506 31.2353 20.7133 31.2353C20.6758 31.2353 20.6251 31.1742 20.6006 31.0995C20.5761 31.0249 20.442 30.7708 20.3027 30.5349C20.1634 30.299 19.9122 29.8628 19.7446 29.5655C19.5768 29.2683 19.4024 28.9865 19.3569 28.9395C19.3114 28.8924 19.2092 28.7092 19.13 28.5324C19.0508 28.3555 18.9566 28.2108 18.9206 28.2108C18.8847 28.2108 18.8553 28.141 18.8553 28.0557C18.8553 27.9704 18.8206 27.9006 18.7782 27.9006C18.7359 27.9006 18.7012 27.8482 18.7012 27.7842C18.7012 27.7203 18.6665 27.6679 18.6242 27.6679C18.5818 27.6679 18.5471 27.6156 18.5471 27.5516C18.5471 27.4876 18.5125 27.4353 18.4701 27.4353C18.4277 27.4353 18.393 27.3655 18.393 27.2802C18.393 27.1949 18.3584 27.1251 18.316 27.1251C18.2736 27.1251 18.239 27.0757 18.239 27.0152C18.239 26.9548 18.213 26.8937 18.1812 26.8795C18.1494 26.8653 18.0394 26.6966 17.9366 26.5046C17.8338 26.3127 17.7271 26.1382 17.6995 26.1169C17.6718 26.0956 17.528 25.8513 17.3797 25.574C17.2316 25.2968 16.9309 24.7618 16.7116 24.3853C16.4924 24.0087 16.313 23.6685 16.313 23.6291C16.313 23.5899 16.2825 23.5577 16.2452 23.5577C16.208 23.5577 16.1345 23.453 16.0818 23.3251C16.0292 23.1971 15.9557 23.0924 15.9184 23.0924C15.8812 23.0924 15.8507 23.0226 15.8507 22.9373C15.8507 22.852 15.8161 22.7822 15.7737 22.7822C15.7313 22.7822 15.6966 22.7284 15.6966 22.6626C15.6966 22.5969 15.6273 22.4681 15.5426 22.3766C15.4578 22.285 15.3885 22.1644 15.3885 22.1084C15.3885 22.0524 15.3538 22.0067 15.3114 22.0067C15.2691 22.0067 15.2344 21.9543 15.2344 21.8904C15.2344 21.8264 15.2037 21.774 15.1664 21.774C15.1289 21.774 15.0779 21.713 15.0529 21.6383C15.0279 21.5637 14.9045 21.3281 14.7786 21.1149C14.6528 20.9016 14.4615 20.5701 14.3535 20.3781C14.2455 20.1862 14.0514 19.8546 13.922 19.6414C13.7926 19.4281 13.6669 19.1926 13.6427 19.1179C13.6184 19.0433 13.5744 18.9822 13.5449 18.9822C13.5154 18.9822 13.4436 18.8601 13.3854 18.7108C13.3273 18.5615 13.2515 18.4393 13.217 18.4393C13.1825 18.4393 13.1543 18.3936 13.1543 18.3377C13.1543 18.2817 13.085 18.161 13.0002 18.0694C12.9155 17.9779 12.8462 17.8492 12.8462 17.7834C12.8462 17.7177 12.8115 17.6638 12.7691 17.6638C12.7268 17.6638 12.6921 17.6017 12.6921 17.5259C12.6921 17.4499 12.6227 17.3376 12.538 17.2761C12.4533 17.2146 12.3839 17.1022 12.3839 17.0263C12.3839 16.9504 12.3533 16.8883 12.3159 16.8883C12.2785 16.8883 12.228 16.8272 12.2037 16.7526C12.1795 16.6779 12.0533 16.4424 11.9232 16.2291C11.7933 16.0159 11.645 15.7541 11.594 15.6475C11.5429 15.5409 11.4805 15.4362 11.4553 15.4149C11.4301 15.3935 11.3253 15.219 11.2225 15.0271C11.1198 14.8352 11 14.6396 10.9562 14.5926C10.9125 14.5455 10.8118 14.3623 10.7326 14.1854C10.6535 14.0085 10.5592 13.8638 10.5233 13.8638C10.4874 13.8638 10.4579 13.794 10.4579 13.7087C10.4579 13.6234 10.4233 13.5536 10.3809 13.5536C10.3385 13.5536 10.3038 13.5013 10.3038 13.4373C10.3038 13.3733 10.2692 13.321 10.2268 13.321C10.1844 13.321 10.1498 13.2512 10.1498 13.1659C10.1498 13.0806 10.1151 13.0108 10.0727 13.0108C10.0304 13.0108 9.99568 12.9584 9.99568 12.8944C9.99568 12.8305 9.96101 12.7781 9.91864 12.7781C9.87627 12.7781 9.8416 12.7258 9.8416 12.6618C9.8416 12.5978 9.80694 12.5455 9.76456 12.5455C9.72219 12.5455 9.68752 12.4757 9.68752 12.3904C9.68752 12.3051 9.65285 12.2353 9.61048 12.2353C9.56811 12.2353 9.53344 12.1655 9.53344 12.0802C9.53344 11.9949 9.49878 11.9251 9.4564 11.9251C9.41403 11.9251 9.37936 11.8582 9.37936 11.7764C9.37936 11.6947 9.35278 11.6162 9.32035 11.6019C9.24547 11.5692 8.88846 10.4819 8.75156 9.86995C8.59825 9.18456 8.62214 7.14209 8.79093 6.49648C9.12059 5.23604 9.6403 4.04726 10.0149 3.69635C10.0891 3.62694 10.1498 3.53116 10.1498 3.48362C10.1498 3.28843 11.4071 1.9924 11.972 1.60542C12.1774 1.46474 12.3627 1.3298 12.3839 1.30568C12.4051 1.28156 12.5052 1.21487 12.6063 1.15756L13.0516 0.905517C13.1955 0.824244 13.364 0.757705 13.4263 0.757705C13.4886 0.757705 13.5395 0.722807 13.5395 0.680154C13.5395 0.637501 13.6262 0.602603 13.7321 0.602603C13.8381 0.602603 13.9247 0.567705 13.9247 0.525052C13.9247 0.482399 14.0093 0.447501 14.1128 0.447501C14.2162 0.447501 14.3223 0.412603 14.3484 0.36995C14.3746 0.327297 14.496 0.292399 14.6181 0.292399C14.7402 0.292399 14.8615 0.257501 14.8877 0.214848C14.9139 0.172195 15.0633 0.134816 15.2197 0.131869Z" fill="#000CCC"/>
<path d="M39.7762 3.62709C40.0068 3.62709 40.1954 3.5922 40.1954 3.54954C40.1954 3.50131 40.632 3.47199 41.351 3.47199C41.9914 3.47199 42.5066 3.5034 42.5066 3.54233C42.5066 3.58111 42.6885 3.63136 42.911 3.65408C43.5321 3.71752 43.8904 3.79243 43.937 3.86828C43.9604 3.90628 44.062 3.9373 44.1629 3.9373C44.2639 3.9373 44.3679 3.9722 44.3941 4.01485C44.4202 4.0575 44.5053 4.0924 44.583 4.0924C44.7248 4.0924 46.2093 4.83604 46.2815 4.94329C46.3027 4.97478 46.4123 5.04915 46.5249 5.10871C46.9883 5.35354 48.3087 6.60001 48.5622 7.03213C48.6397 7.16404 48.7302 7.27199 48.7635 7.27199C48.7967 7.27199 48.8239 7.32434 48.8239 7.38832C48.8239 7.4523 48.8585 7.50464 48.9009 7.50464C48.9433 7.50464 48.9779 7.55699 48.9779 7.62097C48.9779 7.68495 49.0126 7.7373 49.055 7.7373C49.0973 7.7373 49.132 7.78965 49.132 7.85363C49.132 7.9176 49.158 7.97049 49.1898 7.97119C49.2216 7.97181 49.3324 8.1463 49.4361 8.35895C49.5398 8.57152 49.6524 8.74546 49.6865 8.74546C49.7205 8.74546 49.7483 8.81526 49.7483 8.90056C49.7483 8.98587 49.7758 9.05567 49.8093 9.05567C49.8428 9.05567 49.9655 9.23892 50.082 9.46281C50.1985 9.6867 50.4311 10.0916 50.5989 10.3624C50.7666 10.6333 50.9039 10.8863 50.9039 10.9246C50.9039 10.963 50.9386 10.9944 50.981 10.9944C51.0233 10.9944 51.058 11.0483 51.058 11.114C51.058 11.1798 51.1273 11.3085 51.2121 11.4C51.2968 11.4916 51.3662 11.6123 51.3662 11.6683C51.3662 11.7242 51.4008 11.77 51.4432 11.77C51.4856 11.77 51.5203 11.8397 51.5203 11.9251C51.5203 12.0104 51.5549 12.0802 51.5973 12.0802C51.6397 12.0802 51.6743 12.1325 51.6743 12.1965C51.6743 12.2605 51.709 12.3128 51.7514 12.3128C51.7937 12.3128 51.8284 12.3652 51.8284 12.4291C51.8284 12.4931 51.8631 12.5455 51.9055 12.5455C51.9478 12.5455 51.9825 12.6153 51.9825 12.7006C51.9825 12.7859 52.0172 12.8557 52.0595 12.8557C52.1019 12.8557 52.1366 12.908 52.1366 12.972C52.1366 13.036 52.1631 13.0883 52.1954 13.0883C52.2278 13.0883 52.3135 13.2192 52.3857 13.3791C52.5333 13.7057 52.7669 14.1153 52.8391 14.174C52.8653 14.1954 52.9788 14.3873 53.0912 14.6006C53.2037 14.8138 53.3822 15.1279 53.4881 15.2985C53.594 15.4691 53.7034 15.6611 53.7311 15.7251C53.759 15.789 53.8016 15.8588 53.8258 15.8802C53.9002 15.9455 54.1465 16.3761 54.1918 16.52C54.2154 16.5946 54.2653 16.6557 54.3027 16.6557C54.3401 16.6557 54.3707 16.708 54.3707 16.772C54.3707 16.836 54.4054 16.8883 54.4478 16.8883C54.4901 16.8883 54.5248 16.9581 54.5248 17.0434C54.5248 17.1287 54.5552 17.1985 54.5925 17.1985C54.6297 17.1985 54.7033 17.3032 54.7559 17.4312C54.8086 17.5591 54.8821 17.6638 54.9193 17.6638C54.9566 17.6638 54.9871 17.7336 54.9871 17.8189C54.9871 17.9042 55.0217 17.974 55.0641 17.974C55.1065 17.974 55.1411 18.0071 55.1411 18.0474C55.1411 18.1084 55.4777 18.7136 55.7952 19.2235C55.838 19.2922 55.9729 19.5365 56.095 19.7663C56.2171 19.9962 56.3393 20.2017 56.3665 20.223C56.3937 20.2443 56.5018 20.4275 56.6067 20.6302C56.7114 20.8328 56.8233 20.9985 56.8551 20.9985C56.887 20.9985 56.9131 21.0683 56.9131 21.1536C56.9131 21.2389 56.9477 21.3087 56.9901 21.3087C57.0325 21.3087 57.0671 21.3611 57.0671 21.4251C57.0671 21.489 57.1018 21.5414 57.1442 21.5414C57.1865 21.5414 57.2212 21.5937 57.2212 21.6577C57.2212 21.7217 57.2559 21.774 57.2983 21.774C57.3406 21.774 57.3753 21.8264 57.3753 21.8904C57.3753 21.9543 57.41 22.0067 57.4523 22.0067C57.4947 22.0067 57.5294 22.0765 57.5294 22.1618C57.5294 22.2471 57.5553 22.3174 57.5872 22.3181C57.619 22.3188 57.7298 22.4932 57.8335 22.7059C57.9371 22.9185 58.0498 23.0924 58.0838 23.0924C58.1179 23.0924 58.1457 23.1593 58.1457 23.2411C58.1457 23.3228 58.1729 23.4013 58.2061 23.4156C58.2393 23.4298 58.5062 23.8602 58.7991 24.372C59.092 24.8838 59.3595 25.3142 59.3935 25.3284C59.4276 25.3427 59.4554 25.4212 59.4554 25.5029C59.4554 25.5847 59.4858 25.6516 59.5231 25.6516C59.5603 25.6516 59.6339 25.7563 59.6865 25.8842C59.7391 26.0122 59.8127 26.1169 59.8499 26.1169C59.8872 26.1169 59.9176 26.1867 59.9176 26.272C59.9176 26.3573 59.9523 26.4271 59.9947 26.4271C60.037 26.4271 60.0717 26.4794 60.0717 26.5434C60.0717 26.6074 60.1064 26.6597 60.1487 26.6597C60.1911 26.6597 60.2258 26.7121 60.2258 26.7761C60.2258 26.8401 60.2604 26.8924 60.3028 26.8924C60.3452 26.8924 60.3799 26.9622 60.3799 27.0475C60.3799 27.1328 60.4145 27.2026 60.4569 27.2026C60.4993 27.2026 60.5339 27.252 60.5339 27.3125C60.5339 27.3729 60.5602 27.4339 60.5923 27.4482C60.6245 27.4624 60.769 27.7009 60.9134 27.9781C61.0578 28.2554 61.1993 28.4996 61.228 28.521C61.3181 28.5881 62.1518 30.2416 62.1518 30.3533C62.1518 30.4118 62.1864 30.4598 62.2288 30.4598C62.2712 30.4598 62.3059 30.5449 62.3059 30.6491C62.3059 30.7532 62.3405 30.8599 62.3829 30.8863C62.4253 30.9126 62.4599 31.0368 62.4599 31.1623C62.4599 31.2878 62.4946 31.3904 62.537 31.3904C62.5793 31.3904 62.614 31.5104 62.614 31.6572C62.614 31.804 62.6487 31.9456 62.6911 31.972C62.7334 31.9984 62.7681 32.2078 62.7681 32.4373C62.7681 32.6669 62.8028 32.8762 62.8451 32.9026C62.8892 32.9301 62.9222 33.3299 62.9222 33.8378C62.9222 34.3776 62.892 34.7251 62.8451 34.7251C62.8017 34.7251 62.7681 34.9448 62.7681 35.2291C62.7681 35.5135 62.7345 35.7332 62.6911 35.7332C62.6487 35.7332 62.614 35.8728 62.614 36.0434C62.614 36.214 62.5793 36.3536 62.537 36.3536C62.4946 36.3536 62.4599 36.4583 62.4599 36.5863C62.4599 36.7142 62.4315 36.8189 62.3968 36.8189C62.3621 36.8189 62.2865 36.9934 62.2288 37.2067C62.1711 37.42 62.0955 37.5944 62.0608 37.5944C62.0261 37.5944 61.9977 37.6449 61.9977 37.7066C61.9977 37.9312 61.1617 39.268 60.7265 39.7391C60.5994 39.8768 60.3723 40.1223 60.2218 40.2848C59.7628 40.7805 58.4278 41.7822 58.2262 41.7822C58.1819 41.7822 58.1457 41.8171 58.1457 41.8598C58.1457 41.9024 58.0764 41.9373 57.9916 41.9373C57.9069 41.9373 57.8375 41.9722 57.8375 42.0149C57.8375 42.0575 57.7682 42.0924 57.6835 42.0924C57.5987 42.0924 57.5294 42.1273 57.5294 42.17C57.5294 42.2126 57.4621 42.2475 57.3798 42.2475C57.2976 42.2475 57.2089 42.2824 57.1827 42.3251C57.1565 42.3677 57.0505 42.4026 56.947 42.4026C56.8436 42.4026 56.759 42.4375 56.759 42.4802C56.759 42.5228 56.655 42.5577 56.5279 42.5577C56.4007 42.5577 56.2967 42.5926 56.2967 42.6353C56.2967 42.6779 56.1581 42.7128 55.9886 42.7128C55.8191 42.7128 55.6804 42.7448 55.6804 42.784C55.6804 42.9197 53.0086 43.0788 52.8813 42.9507C52.8361 42.9051 52.5807 42.8679 52.3138 42.8679C52.0416 42.8679 51.8284 42.8339 51.8284 42.7904C51.8284 42.7477 51.6897 42.7128 51.5203 42.7128C51.3508 42.7128 51.2121 42.6779 51.2121 42.6353C51.2121 42.5926 51.1081 42.5577 50.981 42.5577C50.8539 42.5577 50.7499 42.5228 50.7499 42.4802C50.7499 42.4375 50.6632 42.4026 50.5573 42.4026C50.4513 42.4026 50.3647 42.3677 50.3647 42.3251C50.3647 42.2824 50.278 42.2475 50.1721 42.2475C50.0661 42.2475 49.9795 42.2126 49.9795 42.17C49.9795 42.1273 49.9336 42.0924 49.8776 42.0924C49.7822 42.0924 48.9548 41.6694 48.7853 41.5339C48.743 41.5001 48.4559 41.2799 48.1474 41.0448C47.4916 40.5447 46.5897 39.6579 46.5897 39.513C46.5897 39.4577 46.5204 39.3621 46.4356 39.3006C46.3509 39.2391 46.2815 39.1441 46.2815 39.0896C46.2815 39.035 46.2469 38.9904 46.2045 38.9904C46.1621 38.9904 46.1275 38.938 46.1275 38.874C46.1275 38.8101 46.0928 38.7577 46.0504 38.7577C46.008 38.7577 45.9734 38.7054 45.9734 38.6414C45.9734 38.5774 45.9427 38.5251 45.9053 38.5251C45.8679 38.5251 45.8174 38.464 45.7932 38.3893C45.7689 38.3147 45.6433 38.0791 45.514 37.8659C45.3847 37.6526 45.2051 37.3385 45.115 37.1679C45.0249 36.9973 44.9298 36.8403 44.9038 36.8189C44.8293 36.7581 44.5816 36.3292 44.5344 36.1791C44.5108 36.1045 44.461 36.0434 44.4236 36.0434C44.3862 36.0434 44.3555 35.9736 44.3555 35.8883C44.3555 35.803 44.3209 35.7332 44.2785 35.7332C44.2361 35.7332 44.2015 35.6809 44.2015 35.6169C44.2015 35.5529 44.1733 35.5006 44.1388 35.5006C44.1043 35.5006 44.0285 35.3784 43.9703 35.2291C43.9122 35.0799 43.8364 34.9577 43.8018 34.9577C43.7674 34.9577 43.7392 34.9054 43.7392 34.8414C43.7392 34.7774 43.7045 34.7251 43.6622 34.7251C43.6198 34.7251 43.5851 34.6553 43.5851 34.57C43.5851 34.4846 43.5505 34.4149 43.5081 34.4149C43.4657 34.4149 43.4311 34.3691 43.4311 34.3132C43.4311 34.2572 43.3617 34.1365 43.277 34.0449C43.1922 33.9534 43.1229 33.8247 43.1229 33.7589C43.1229 33.6932 43.0922 33.6393 43.0549 33.6393C43.0174 33.6393 42.9663 33.5783 42.9414 33.5036C42.9164 33.429 42.8336 33.2632 42.7573 33.1353C42.6811 33.0073 42.464 32.6409 42.2751 32.321C42.0862 32.0011 41.905 31.7277 41.8725 31.7135C41.8399 31.6993 41.8132 31.6208 41.8132 31.539C41.8132 31.4573 41.7828 31.3904 41.7455 31.3904C41.7083 31.3904 41.6347 31.2857 41.5821 31.1577C41.5295 31.0298 41.4559 30.9251 41.4187 30.9251C41.3814 30.9251 41.351 30.8553 41.351 30.77C41.351 30.6846 41.3203 30.6149 41.2829 30.6149C41.2455 30.6149 41.1957 30.5537 41.1721 30.4791C41.1149 30.2977 40.8648 29.8846 40.7924 29.8523C40.7606 29.838 40.7346 29.777 40.7346 29.7166C40.7346 29.6561 40.7 29.6067 40.6576 29.6067C40.6152 29.6067 40.5806 29.5369 40.5806 29.4516C40.5806 29.3663 40.5459 29.2965 40.5035 29.2965C40.4612 29.2965 40.4265 29.2267 40.4265 29.1414C40.4265 29.0561 40.3961 28.9863 40.3588 28.9863C40.3216 28.9863 40.248 28.8816 40.1954 28.7536C40.1427 28.6257 40.0692 28.521 40.032 28.521C39.9947 28.521 39.9642 28.4541 39.9642 28.3723C39.9642 28.2906 39.9376 28.2121 39.905 28.1978C39.8724 28.1836 39.6912 27.9103 39.5023 27.5904C39.3134 27.2705 39.0964 26.904 39.0201 26.7761C38.9439 26.6481 38.861 26.4823 38.8361 26.4077C38.8111 26.3331 38.76 26.272 38.7226 26.272C38.6852 26.272 38.6546 26.2262 38.6546 26.1703C38.6546 26.1143 38.5852 25.9937 38.5005 25.9021C38.4157 25.8106 38.3464 25.6818 38.3464 25.6161C38.3464 25.5503 38.3117 25.4965 38.2694 25.4965C38.227 25.4965 38.1923 25.4267 38.1923 25.3414C38.1923 25.2561 38.1577 25.1863 38.1153 25.1863C38.0729 25.1863 38.0382 25.1339 38.0382 25.07C38.0382 25.006 38.0036 24.9536 37.9612 24.9536C37.9188 24.9536 37.8842 24.9013 37.8842 24.8373C37.8842 24.7733 37.8495 24.721 37.8071 24.721C37.7648 24.721 37.7301 24.6512 37.7301 24.5659C37.7301 24.4806 37.6954 24.4108 37.653 24.4108C37.6107 24.4108 37.576 24.3584 37.576 24.2944C37.576 24.2305 37.55 24.1778 37.5182 24.1775C37.4864 24.1772 37.4243 24.0986 37.3802 24.003C37.2669 23.7575 36.9328 23.1471 36.8608 23.0541C36.729 22.8838 36.2663 22.0613 36.2663 21.9973C36.2663 21.9598 36.2357 21.9291 36.1983 21.9291C36.1609 21.9291 36.111 21.868 36.0874 21.7934C36.0303 21.612 35.7801 21.1989 35.7078 21.1666C35.676 21.1523 35.65 21.0815 35.65 21.0091C35.65 20.9369 35.5807 20.8274 35.4959 20.7659C35.4112 20.7044 35.3419 20.592 35.3419 20.5161C35.3419 20.4402 35.3072 20.3781 35.2648 20.3781C35.2224 20.3781 35.1878 20.3083 35.1878 20.223C35.1878 20.1377 35.1573 20.0679 35.12 20.0679C35.0828 20.0679 35.0093 19.9632 34.9566 19.8353C34.904 19.7073 34.8305 19.6026 34.7933 19.6026C34.756 19.6026 34.7255 19.5328 34.7255 19.4475C34.7255 19.3622 34.6909 19.2924 34.6485 19.2924C34.6061 19.2924 34.5714 19.2611 34.5714 19.2228C34.5714 19.1659 34.2313 18.5533 33.8782 17.974C33.6221 17.5539 33.4158 17.1691 33.4158 17.1112C33.4158 17.0739 33.3812 17.0434 33.3388 17.0434C33.2964 17.0434 33.2618 16.9736 33.2618 16.8883C33.2618 16.803 33.2271 16.7332 33.1847 16.7332C33.1424 16.7332 33.1077 16.6634 33.1077 16.5781C33.1077 16.4928 33.073 16.423 33.0306 16.423C32.9883 16.423 32.9536 16.3532 32.9536 16.2679C32.9536 16.1826 32.9189 16.1128 32.8766 16.1128C32.8342 16.1128 32.7995 16.0256 32.7995 15.9189C32.7995 15.8123 32.7649 15.7251 32.7225 15.7251C32.6801 15.7251 32.6454 15.6204 32.6454 15.4924C32.6454 15.3644 32.6108 15.2597 32.5684 15.2597C32.526 15.2597 32.4914 15.1202 32.4914 14.9495C32.4914 14.7789 32.4567 14.6393 32.4143 14.6393C32.372 14.6393 32.3373 14.4649 32.3373 14.2516C32.3373 14.0383 32.3026 13.8638 32.2603 13.8638C32.2121 13.8638 32.1832 13.3985 32.1832 12.623C32.1832 11.8475 32.2121 11.3822 32.2603 11.3822C32.3026 11.3822 32.3373 11.2077 32.3373 10.9944C32.3373 10.7812 32.372 10.6067 32.4143 10.6067C32.4567 10.6067 32.4914 10.4671 32.4914 10.2965C32.4914 10.1259 32.526 9.98628 32.5684 9.98628C32.6108 9.98628 32.6454 9.88158 32.6454 9.75362C32.6454 9.62567 32.6801 9.52097 32.7225 9.52097C32.7649 9.52097 32.7995 9.46645 32.7995 9.39976C32.7995 9.09816 33.7229 7.45044 34.1652 6.96256C34.2615 6.8564 34.3403 6.74364 34.3403 6.712C34.3403 6.63693 35.3273 5.64342 35.4019 5.64342C35.4333 5.64342 35.5453 5.56323 35.6508 5.46521C36.1052 5.04302 37.7843 4.0924 38.0757 4.0924C38.1349 4.0924 38.2047 4.0575 38.2309 4.01485C38.257 3.9722 38.3804 3.9373 38.505 3.9373C38.6297 3.9373 38.7316 3.9024 38.7316 3.85975C38.7316 3.81709 38.8509 3.7822 38.9967 3.7822C39.1425 3.7822 39.2832 3.7473 39.3094 3.70464C39.3356 3.66199 39.5456 3.62709 39.7762 3.62709Z" fill="#000CCC"/>
<path d="M2.92179 16.8661C3.23588 16.5583 4.36206 16.1527 5.33476 15.9968C6.14607 15.8668 6.08976 15.8681 6.83905 15.9614C7.93255 16.0975 9.41719 16.6518 9.77358 17.0569C9.84214 17.1348 9.94014 17.1985 9.99137 17.1985C10.2391 17.1985 11.7676 19.0621 11.7676 19.3641C11.7676 19.41 11.8023 19.4475 11.8446 19.4475C11.887 19.4475 11.9217 19.4933 11.9217 19.5492C11.9217 19.6052 11.991 19.7258 12.0758 19.8174C12.1605 19.9089 12.2298 20.0377 12.2298 20.1034C12.2298 20.1692 12.2645 20.223 12.3069 20.223C12.3493 20.223 12.3839 20.2688 12.3839 20.3247C12.3839 20.3807 12.4533 20.5013 12.538 20.5929C12.6227 20.6844 12.6921 20.8132 12.6921 20.8789C12.6921 20.9447 12.7268 20.9985 12.7691 20.9985C12.8115 20.9985 12.8462 21.0683 12.8462 21.1536C12.8462 21.2389 12.8808 21.3087 12.9232 21.3087C12.9656 21.3087 13.0002 21.3611 13.0002 21.4251C13.0002 21.489 13.0349 21.5414 13.0773 21.5414C13.1197 21.5414 13.1543 21.5937 13.1543 21.6577C13.1543 21.7217 13.1805 21.774 13.2126 21.774C13.2446 21.774 13.3198 21.8874 13.3797 22.0261C13.4396 22.1647 13.509 22.2956 13.534 22.3169C13.5589 22.3382 13.6805 22.5476 13.8042 22.7822C13.928 23.0168 14.0869 23.296 14.1573 23.4026C14.4246 23.8071 14.7722 24.424 14.7722 24.4934C14.7722 24.5333 14.8068 24.5659 14.8492 24.5659C14.8916 24.5659 14.9262 24.6116 14.9262 24.6675C14.9262 24.7235 14.9956 24.8442 15.0803 24.9358C15.1651 25.0273 15.2344 25.156 15.2344 25.2218C15.2344 25.2876 15.2691 25.3414 15.3114 25.3414C15.3538 25.3414 15.3885 25.4035 15.3885 25.4793C15.3885 25.5553 15.4578 25.6676 15.5426 25.7291C15.6273 25.7906 15.6966 25.903 15.6966 25.9789C15.6966 26.0548 15.7313 26.1169 15.7737 26.1169C15.8161 26.1169 15.8507 26.1867 15.8507 26.272C15.8507 26.3573 15.8854 26.4271 15.9278 26.4271C15.9701 26.4271 16.0048 26.4653 16.0048 26.5121C16.0048 26.5588 16.0701 26.6897 16.1499 26.8029C16.2297 26.9161 16.364 27.1309 16.4486 27.2802C16.5331 27.4294 16.7278 27.7731 16.8814 28.0437C17.0348 28.3144 17.1604 28.5674 17.1604 28.606C17.1604 28.6445 17.1908 28.6761 17.2281 28.6761C17.2653 28.6761 17.3389 28.7808 17.3915 28.9087C17.4441 29.0367 17.5177 29.1414 17.5549 29.1414C17.5922 29.1414 17.6226 29.2112 17.6226 29.2965C17.6226 29.3818 17.6573 29.4516 17.6997 29.4516C17.7421 29.4516 17.7767 29.5039 17.7767 29.5679C17.7767 29.6319 17.8114 29.6842 17.8538 29.6842C17.8961 29.6842 17.9308 29.7366 17.9308 29.8006C17.9308 29.8645 17.9655 29.9169 18.0078 29.9169C18.0502 29.9169 18.0849 29.9867 18.0849 30.072C18.0849 30.1573 18.1196 30.2271 18.1619 30.2271C18.2043 30.2271 18.239 30.2794 18.239 30.3434C18.239 30.4074 18.2736 30.4598 18.316 30.4598C18.3584 30.4598 18.393 30.5295 18.393 30.6149C18.393 30.7002 18.4277 30.77 18.4701 30.77C18.5125 30.77 18.5471 30.8223 18.5471 30.8863C18.5471 30.9503 18.5818 31.0026 18.6242 31.0026C18.6665 31.0026 18.7012 31.055 18.7012 31.1189C18.7012 31.1829 18.7359 31.2353 18.7782 31.2353C18.8206 31.2353 18.8553 31.3051 18.8553 31.3904C18.8553 31.4757 18.8836 31.5455 18.9181 31.5455C18.9526 31.5455 19.0393 31.6687 19.1106 31.8194C19.1819 31.9701 19.4484 32.44 19.7026 32.8638C19.957 33.2874 20.165 33.6702 20.165 33.7143C20.165 33.7584 20.1996 33.7944 20.242 33.7944C20.2844 33.7944 20.319 33.8642 20.319 33.9496C20.319 34.0349 20.3537 34.1047 20.3961 34.1047C20.4385 34.1047 20.4731 34.1724 20.4731 34.2552C20.4731 34.338 20.5078 34.4273 20.5502 34.4536C20.5925 34.48 20.6272 34.5847 20.6272 34.6863C20.6272 34.7879 20.6619 34.8926 20.7042 34.9189C20.7466 34.9453 20.7813 35.0869 20.7813 35.2337C20.7813 35.3805 20.816 35.5006 20.8583 35.5006C20.9064 35.5006 20.9354 35.9529 20.9354 36.7026C20.9354 37.4523 20.9064 37.9047 20.8583 37.9047C20.816 37.9047 20.7813 38.0273 20.7813 38.1772C20.7813 38.327 20.7507 38.5102 20.7133 38.5843C20.6758 38.6584 20.6022 38.8236 20.5497 38.9516C20.0565 40.153 18.9609 41.5604 18.2732 41.8758C18.1696 41.9233 18.0849 41.9915 18.0849 42.0273C18.0849 42.0631 18.0155 42.0924 17.9308 42.0924C17.8461 42.0924 17.7764 42.1185 17.7761 42.1506C17.7754 42.2202 17.4023 42.4026 17.2606 42.4026C17.2055 42.4026 17.1604 42.4375 17.1604 42.4802C17.1604 42.5228 17.0737 42.5577 16.9678 42.5577C16.8619 42.5577 16.7752 42.5926 16.7752 42.6353C16.7752 42.6779 16.6712 42.7128 16.5441 42.7128C16.417 42.7128 16.313 42.7445 16.313 42.7831C16.313 42.9234 14.1067 43.0821 13.9767 42.9512C13.9311 42.9054 13.7275 42.8679 13.5241 42.8679C13.3207 42.8679 13.1543 42.833 13.1543 42.7904C13.1543 42.7477 13.0524 42.7128 12.9277 42.7128C12.8031 42.7128 12.6798 42.6779 12.6536 42.6353C12.6274 42.5926 12.5214 42.5577 12.4179 42.5577C12.3144 42.5577 12.2298 42.5228 12.2298 42.4802C12.2298 42.4375 12.1605 42.4026 12.0758 42.4026C11.991 42.4026 11.9217 42.3677 11.9217 42.3251C11.9217 42.2824 11.8523 42.2475 11.7676 42.2475C11.6829 42.2475 11.6135 42.2126 11.6135 42.17C11.6135 42.1273 11.5615 42.0924 11.498 42.0924C11.4344 42.0924 11.3824 42.0575 11.3824 42.0149C11.3824 41.9722 11.3391 41.9368 11.2861 41.9363C11.0751 41.9342 9.68752 40.6165 9.68752 40.4183C9.68752 40.3581 9.65871 40.3087 9.6235 40.3087C9.5883 40.3087 9.51025 40.2128 9.45016 40.0955C9.39007 39.9781 9.31272 39.8473 9.27836 39.8046C9.15148 39.6471 8.22376 38.0333 8.22376 37.9701C8.22376 37.9341 8.18909 37.9047 8.14672 37.9047C8.10435 37.9047 8.06968 37.8349 8.06968 37.7495C8.06968 37.6642 8.03925 37.5944 8.00197 37.5944C7.96476 37.5944 7.89118 37.4898 7.83856 37.3618C7.78594 37.2338 7.71237 37.1291 7.67516 37.1291C7.63787 37.1291 7.60744 37.0593 7.60744 36.974C7.60744 36.8887 7.57277 36.8189 7.5304 36.8189C7.48803 36.8189 7.45336 36.7666 7.45336 36.7026C7.45336 36.6386 7.4187 36.5863 7.37632 36.5863C7.33395 36.5863 7.29928 36.5339 7.29928 36.47C7.29928 36.406 7.26462 36.3536 7.22224 36.3536C7.17987 36.3536 7.1452 36.2838 7.1452 36.1985C7.1452 36.1132 7.11054 36.0434 7.06816 36.0434C7.02579 36.0434 6.99112 35.9911 6.99112 35.9271C6.99112 35.8631 6.95646 35.8108 6.91408 35.8108C6.87171 35.8108 6.83704 35.741 6.83704 35.6557C6.83704 35.5704 6.80238 35.5006 6.76 35.5006C6.71763 35.5006 6.68296 35.4548 6.68296 35.3989C6.68296 35.3429 6.61363 35.2222 6.52888 35.1307C6.44414 35.0391 6.3748 34.9104 6.3748 34.8446C6.3748 34.7789 6.34707 34.7251 6.31309 34.7251C6.2792 34.7251 6.17596 34.5768 6.08375 34.3955C5.99145 34.2142 5.80971 33.8914 5.67975 33.6781C5.54978 33.4649 5.42367 33.2293 5.3994 33.1546C5.37513 33.08 5.32467 33.0189 5.28723 33.0189C5.24986 33.0189 5.2192 32.9666 5.2192 32.9026C5.2192 32.8386 5.19101 32.7863 5.15657 32.7863C5.12206 32.7863 5.04625 32.6641 4.98808 32.5149C4.92992 32.3656 4.85411 32.2434 4.8196 32.2434C4.78516 32.2434 4.75696 32.1911 4.75696 32.1271C4.75696 32.0631 4.72229 32.0108 4.67992 32.0108C4.63755 32.0108 4.60288 31.941 4.60288 31.8557C4.60288 31.7704 4.56821 31.7006 4.52584 31.7006C4.48347 31.7006 4.4488 31.6467 4.4488 31.581C4.4488 31.5152 4.37947 31.3865 4.29472 31.295C4.20998 31.2034 4.14064 31.0827 4.14064 31.0267C4.14064 30.9708 4.11445 30.9251 4.0824 30.9251C4.05035 30.9251 3.97539 30.8117 3.91576 30.673C3.85613 30.5344 3.70906 30.2751 3.5888 30.0968C3.46862 29.9185 3.37024 29.7353 3.37024 29.6897C3.37024 29.644 3.3442 29.6066 3.31246 29.6065C3.28072 29.6064 3.15199 29.4058 3.02649 29.1606C2.90091 28.9154 2.77958 28.6974 2.75685 28.6761C2.68204 28.606 2.43713 28.1749 2.39353 28.0363C2.36995 27.9617 2.32658 27.9006 2.29708 27.9006C2.26757 27.9006 2.19577 27.7784 2.1376 27.6291C2.07944 27.4799 2.00363 27.3577 1.96912 27.3577C1.93468 27.3577 1.90648 27.3054 1.90648 27.2414C1.90648 27.1774 1.87181 27.1251 1.82944 27.1251C1.78707 27.1251 1.7524 27.0553 1.7524 26.97C1.7524 26.8846 1.71773 26.8149 1.67536 26.8149C1.63299 26.8149 1.59832 26.7625 1.59832 26.6985C1.59832 26.6345 1.56365 26.5822 1.52128 26.5822C1.47891 26.5822 1.44424 26.5124 1.44424 26.4271C1.44424 26.3418 1.41381 26.272 1.37652 26.272C1.33931 26.272 1.26574 26.1673 1.21312 26.0393C1.1605 25.9114 1.08693 25.8067 1.04972 25.8067C1.01243 25.8067 0.982001 25.7398 0.982001 25.658C0.982001 25.5763 0.956039 25.4978 0.924221 25.4835C0.81937 25.4367 0.460671 24.6927 0.238642 24.0618C-0.342394 22.4105 0.197272 19.2967 1.21312 18.4393C1.23839 18.418 1.34332 18.2784 1.44624 18.1291C1.68653 17.7808 1.9544 17.5087 2.0571 17.5087C2.10139 17.5087 2.1376 17.4738 2.1376 17.4312C2.1376 17.3885 2.17381 17.3536 2.21811 17.3536C2.26241 17.3536 2.38536 17.2664 2.49129 17.1597C2.59722 17.0531 2.71448 16.9659 2.75192 16.9659C2.78936 16.9659 2.86578 16.921 2.92179 16.8661Z" fill="#000CCC"/>
</mask>
<g mask="url(#mask1_655_86)">
<rect x="-1" y="-1" width="65" height="46" fill="#000CCC"/>
</g>
</svg>
