<svg width="21" height="20" viewBox="0 0 21 20" fill="none" xmlns="http://www.w3.org/2000/svg">
<path d="M10.396 20C16.1376 20 20.7921 15.5228 20.7921 10C20.7921 4.47715 16.1376 0 10.396 0C4.65447 0 0 4.47715 0 10C0 15.5228 4.65447 20 10.396 20Z" fill="#F5EEE5"/>
<path d="M13.5149 15.1802L19.3158 16.7202C19.9812 16.9402 20.501 17.4202 20.7921 18.0402V20.0002H0V18.0402C0.270297 17.4202 0.810891 16.9402 1.47624 16.7202L7.27723 15.1802V12.2002H13.5149V15.1802Z" fill="#D4B08C"/>
<path d="M10.4376 16H8.94059L7.94257 15H0V20H10.4376H20.8545V15H12.9327L11.9347 16H10.4376Z" fill="#1E1E23"/>
<path d="M10.3962 16H10.6041L13.6605 14.46L12.4546 20.24L10.3962 20.02L8.33778 20.24L7.13184 14.46L10.1883 16H10.3962Z" fill="#C1CAD4"/>
<path d="M9.87661 17.7998H10.9162L11.7479 20.1998H9.04492L9.87661 17.7998Z" fill="#216DD9"/>
<path d="M8.21289 16H12.5792L10.9159 17.8H9.87626L8.21289 16Z" fill="#249CF2"/>
<path d="M13.6188 14L10.6248 16L12.8703 18.2L13.7228 14.2L13.6188 14ZM7.1733 14L10.1674 16L7.92181 18.2L7.06934 14.2L7.1733 14Z" fill="white"/>
<path d="M10.3957 14.8002C10.0838 14.8002 9.668 14.7402 9.3977 14.6202C9.06503 14.4802 7.90067 13.7002 7.50562 13.3602C6.98582 12.9002 6.71552 12.3402 6.63235 11.3602C6.54919 10.3802 6.2373 6.9002 6.2373 6.1002C6.2373 4.9602 7.2977 3.2002 10.3957 3.2002C13.4937 3.2002 14.5541 4.9602 14.5541 6.1002C14.5541 6.9002 14.2423 10.4002 14.1591 11.3802C14.0759 12.3602 13.8264 12.9202 13.2858 13.3802C12.8908 13.7202 11.7056 14.5002 11.3937 14.6402C11.1234 14.7402 10.7076 14.8002 10.3957 14.8002Z" fill="#F2CEA5"/>
<path d="M11.8512 12H8.9403C8.85713 12 8.81555 12.08 8.85713 12.16C9.12743 12.62 9.62644 12.86 10.2502 12.9C10.8948 12.94 11.6017 12.64 11.9344 12.16C11.9759 12.1 11.9344 12 11.8512 12Z" fill="#A3705F"/>
<path d="M12.2674 9.4001C12.4971 9.4001 12.6832 9.22101 12.6832 9.0001C12.6832 8.77918 12.4971 8.6001 12.2674 8.6001C12.0377 8.6001 11.8516 8.77918 11.8516 9.0001C11.8516 9.22101 12.0377 9.4001 12.2674 9.4001Z" fill="#262626"/>
<path d="M8.52522 9.4001C8.75488 9.4001 8.94106 9.22101 8.94106 9.0001C8.94106 8.77918 8.75488 8.6001 8.52522 8.6001C8.29555 8.6001 8.10938 8.77918 8.10938 9.0001C8.10938 9.22101 8.29555 9.4001 8.52522 9.4001Z" fill="#262626"/>
<path d="M7.27734 8.3998C7.27734 8.3998 7.50606 7.7998 8.54566 7.7998C9.25259 7.7998 9.66843 8.0998 9.87635 8.3998" stroke="#CC9872" stroke-width="2"/>
<path d="M13.5353 8.3998C13.5353 8.3998 13.3066 7.7998 12.267 7.7998C11.2689 7.7998 10.8115 8.3998 10.8115 8.7998C10.8115 9.1798 10.8115 10.5998 10.8115 10.5998" stroke="#BB8660" stroke-width="2"/>
<path d="M14.3051 9.63978C14.3051 9.63978 14.4715 8.37979 15.0744 8.19978C15.1576 7.83979 15.3863 6.79978 15.3863 6.21978C15.3863 5.63978 15.3239 5.07978 14.9913 4.59978C14.617 4.07978 13.8269 3.77979 13.4111 3.77979C12.9329 4.05979 11.8101 4.69979 11.4566 5.07979C11.2695 5.27979 11.5398 5.43979 11.5398 5.43979C11.5398 5.43979 11.7893 5.33978 11.8933 5.31978C12.4131 5.17978 13.5566 5.07979 13.9101 5.57979C14.3467 6.17979 14.3467 7.93979 14.3467 8.19978C14.3467 8.43979 14.3051 9.63978 14.3051 9.63978Z" fill="#D98C21"/>
<path d="M5.71813 8.20004C6.3211 8.40004 6.48744 9.64004 6.48744 9.64004C6.48744 9.64004 6.44585 8.44004 6.44585 8.20004C6.44585 7.88004 6.48744 6.38004 7.15278 5.66004C7.9013 4.86004 8.89932 4.60004 9.46071 4.96004C9.75179 5.14004 10.729 6.06004 11.7686 5.30004C12.3924 4.84004 13.536 3.80004 13.536 3.80004C13.536 3.80004 12.933 2.02004 10.1884 2.22004C9.02407 2.32004 7.73496 2.04004 7.73496 2.04004C7.73496 2.04004 7.71417 2.54004 7.92209 2.80004C6.19635 3.28004 5.63496 4.48004 5.46863 5.40004C5.42704 5.58004 5.40625 5.76004 5.40625 5.94004C5.40625 6.04004 5.40625 6.14004 5.40625 6.22004C5.40625 6.80004 5.63496 7.82004 5.71813 8.20004Z" fill="#E6A422"/>
</svg>
