<svg width="30" height="31" viewBox="0 0 30 31" fill="none" xmlns="http://www.w3.org/2000/svg">
<path d="M27.2624 8.14928C27.3349 8.04832 27.2279 7.91796 27.112 7.96287C26.2887 8.28203 25.428 8.49737 24.5503 8.60348C25.5277 8.01958 26.2819 7.13073 26.7002 6.0784C26.7427 5.9712 26.6257 5.87547 26.5247 5.93123C25.6163 6.43291 24.6365 6.79415 23.6189 7.0022C23.5763 7.01091 23.5324 6.99641 23.5025 6.96485C22.7388 6.15901 21.7334 5.62246 20.6375 5.43705C19.5185 5.24775 18.3684 5.43518 17.3675 5.96997C16.3665 6.50476 15.5714 7.35665 15.1068 8.39203C14.665 9.37648 14.5459 10.4739 14.7638 11.5278C14.7807 11.6095 14.7167 11.6867 14.6333 11.6816C12.6533 11.5586 10.7186 11.0319 8.94859 10.1333C7.18308 9.23697 5.61967 7.99002 4.35358 6.46936C4.29739 6.40187 4.19089 6.4106 4.14994 6.4883C3.75599 7.23587 3.54972 8.06912 3.55028 8.91598C3.54868 9.75896 3.75554 10.5893 4.15247 11.3329C4.54939 12.0766 5.12406 12.7106 5.82528 13.1785C5.08162 13.1582 4.35247 12.9744 3.68934 12.6411C3.60388 12.5981 3.50137 12.6593 3.50582 12.7548C3.55753 13.8664 3.96559 14.9822 4.67192 15.8385C5.42357 16.7495 6.46684 17.373 7.62528 17.6035C7.17934 17.7392 6.71637 17.8107 6.25028 17.816C5.99661 17.813 5.74342 17.7944 5.49219 17.76C5.39904 17.7472 5.32299 17.8357 5.35559 17.9239C5.70112 18.8582 6.31152 19.6736 7.11412 20.2687C7.97218 20.905 9.00724 21.258 10.0753 21.2785C8.27178 22.6976 6.04513 23.4721 3.75028 23.4785C3.51447 23.4792 3.27877 23.4716 3.04363 23.4556C2.91112 23.4466 2.85018 23.6231 2.96439 23.6909C5.20036 25.0179 7.75602 25.7191 10.3628 25.716C12.2874 25.736 14.1967 25.3722 15.9792 24.6461C17.7617 23.9199 19.3815 22.8459 20.7443 21.4866C22.107 20.1274 23.1853 18.5102 23.916 16.7296C24.6467 14.949 25.0153 13.0406 25.0003 11.116V10.5162C25.0003 10.4767 25.0189 10.4396 25.0504 10.4158C25.8983 9.77566 26.6439 9.01137 27.2624 8.14928Z" fill="#1D1D1D"/>
</svg>
