<svg width="22" height="18" viewBox="0 0 22 18" fill="none" xmlns="http://www.w3.org/2000/svg">
<path d="M21.3155 2.28431C20.5434 2.62643 19.714 2.8576 18.842 2.96208C19.7417 2.42374 20.4148 1.57646 20.7357 0.578326C19.8905 1.0804 18.9653 1.43381 18.0006 1.62318C17.3519 0.930494 16.4926 0.471367 15.5561 0.317087C14.6197 0.162807 13.6585 0.322004 12.8218 0.769963C11.9852 1.21792 11.3198 1.92958 10.929 2.79445C10.5382 3.65931 10.4439 4.629 10.6607 5.55296C8.94796 5.46696 7.27244 5.02179 5.74287 4.24634C4.21331 3.47088 2.86389 2.38247 1.78219 1.05175C1.41233 1.68976 1.19966 2.42948 1.19966 3.21729C1.19925 3.92649 1.37389 4.62483 1.7081 5.25035C2.04232 5.87587 2.52576 6.40922 3.11554 6.80309C2.43155 6.78133 1.76265 6.59651 1.16452 6.26402V6.3195C1.16445 7.31419 1.50852 8.27826 2.13835 9.04815C2.76818 9.81803 3.64497 10.3463 4.61995 10.5433C3.98544 10.715 3.3202 10.7403 2.67448 10.6173C2.94956 11.4732 3.4854 12.2216 4.20697 12.7578C4.92854 13.294 5.79973 13.5911 6.69857 13.6076C5.17274 14.8054 3.28835 15.4552 1.34853 15.4523C1.00491 15.4524 0.66158 15.4323 0.320312 15.3922C2.28934 16.6582 4.58143 17.3301 6.92234 17.3275C14.8466 17.3275 19.1786 10.7643 19.1786 5.07214C19.1786 4.88721 19.174 4.70043 19.1657 4.5155C20.0083 3.90613 20.7356 3.15154 21.3136 2.28709L21.3155 2.28431Z" fill="white"/>
</svg>
