<svg width="14" height="10" viewBox="0 0 14 10" fill="none" xmlns="http://www.w3.org/2000/svg">
<path d="M0.741374 2.03451C1.15082 2.03451 1.48275 1.70258 1.48275 1.29313C1.48275 0.883682 1.15082 0.551758 0.741374 0.551758C0.331924 0.551758 0 0.883682 0 1.29313C0 1.70258 0.331924 2.03451 0.741374 2.03451Z" fill="white" fill-opacity="0.5"/>
<path d="M0.741374 5.74129C1.15082 5.74129 1.48275 5.40937 1.48275 4.99992C1.48275 4.59047 1.15082 4.25854 0.741374 4.25854C0.331924 4.25854 0 4.59047 0 4.99992C0 5.40937 0.331924 5.74129 0.741374 5.74129Z" fill="white" fill-opacity="0.5"/>
<path d="M0.741374 9.4482C1.15082 9.4482 1.48275 9.11628 1.48275 8.70683C1.48275 8.29738 1.15082 7.96545 0.741374 7.96545C0.331924 7.96545 0 8.29738 0 8.70683C0 9.11628 0.331924 9.4482 0.741374 9.4482Z" fill="white" fill-opacity="0.5"/>
<path d="M12.6478 4.25854H3.66235C3.27746 4.25854 2.96545 4.57055 2.96545 4.95544V5.0444C2.96545 5.42928 3.27746 5.74129 3.66235 5.74129H12.6478C13.0327 5.74129 13.3447 5.42928 13.3447 5.0444V4.95544C13.3447 4.57055 13.0327 4.25854 12.6478 4.25854Z" fill="white" fill-opacity="0.5"/>
<path d="M12.6478 7.96545H3.66235C3.27746 7.96545 2.96545 8.27746 2.96545 8.66235V8.75131C2.96545 9.13619 3.27746 9.4482 3.66235 9.4482H12.6478C13.0327 9.4482 13.3447 9.13619 13.3447 8.75131V8.66235C13.3447 8.27746 13.0327 7.96545 12.6478 7.96545Z" fill="white" fill-opacity="0.5"/>
<path d="M12.6478 0.551758H3.66235C3.27746 0.551758 2.96545 0.863767 2.96545 1.24865V1.33761C2.96545 1.7225 3.27746 2.03451 3.66235 2.03451H12.6478C13.0327 2.03451 13.3447 1.7225 13.3447 1.33761V1.24865C13.3447 0.863767 13.0327 0.551758 12.6478 0.551758Z" fill="white" fill-opacity="0.5"/>
</svg>
