<svg width="22" height="21" viewBox="0 0 22 21" fill="none" xmlns="http://www.w3.org/2000/svg">
<path d="M10.8946 7.40202C9.02707 7.40202 7.50299 8.9261 7.50299 10.7937C7.50299 12.6612 9.02707 14.1853 10.8946 14.1853C12.7622 14.1853 14.2863 12.6612 14.2863 10.7937C14.2863 8.9261 12.7622 7.40202 10.8946 7.40202ZM21.0671 10.7937C21.0671 9.38917 21.0798 7.9974 21.0009 6.59545C20.922 4.96705 20.5505 3.52185 19.3598 2.33108C18.1665 1.13777 16.7238 0.768833 15.0954 0.689957C13.6909 0.611082 12.2991 0.623804 10.8972 0.623804C9.49269 0.623804 8.10092 0.611082 6.69897 0.689957C5.07057 0.768833 3.62536 1.14031 2.43459 2.33108C1.24128 3.52439 0.872349 4.96705 0.793473 6.59545C0.714597 7.99994 0.727319 9.39172 0.727319 10.7937C0.727319 12.1956 0.714597 13.5899 0.793473 14.9919C0.872349 16.6203 1.24383 18.0655 2.43459 19.2563C3.62791 20.4496 5.07057 20.8185 6.69897 20.8974C8.10346 20.9763 9.49523 20.9635 10.8972 20.9635C12.3017 20.9635 13.6935 20.9763 15.0954 20.8974C16.7238 20.8185 18.169 20.447 19.3598 19.2563C20.5531 18.0629 20.922 16.6203 21.0009 14.9919C21.0823 13.5899 21.0671 12.1982 21.0671 10.7937ZM10.8946 16.0122C8.00678 16.0122 5.67613 13.6815 5.67613 10.7937C5.67613 7.9058 8.00678 5.57516 10.8946 5.57516C13.7825 5.57516 16.1132 7.9058 16.1132 10.7937C16.1132 13.6815 13.7825 16.0122 10.8946 16.0122ZM16.3269 6.58018C15.6526 6.58018 15.1081 6.03569 15.1081 5.36143C15.1081 4.68717 15.6526 4.14267 16.3269 4.14267C17.0011 4.14267 17.5456 4.68717 17.5456 5.36143C17.5458 5.52153 17.5145 5.68011 17.4533 5.82806C17.3921 5.97602 17.3023 6.11046 17.1891 6.22367C17.0759 6.33688 16.9415 6.42664 16.7935 6.48782C16.6456 6.549 16.487 6.58038 16.3269 6.58018Z" fill="white"/>
</svg>
