<svg width="28" height="28" viewBox="0 0 28 28" fill="none" xmlns="http://www.w3.org/2000/svg">
<g clip-path="url(#clip0_2006_16589)">
<rect x="1.0918" y="1" width="26" height="26" rx="13" fill="#282828"/>
<path d="M5.32714 -3.85938L10.0612 0.226454H12.4283L15.9295 -3.85938L19.0856 -1.93953L23.8196 -3.21943L23.3265 3.86924H26.4826L27.4195 8.44734L25.2497 13.5177L29.6386 15.3883L31.3646 28.335H22.0444L20.8115 31.4855H14.0063L10.8502 29.2703L3.60117 32.5685L1.23413 30.2056V24.0522L-1.13291 20.7541L1.23413 15.3883V10.0226L-2.71094 8.44734V0.226454L5.32714 -3.85938Z" stroke="#ECDACD" stroke-opacity="0.4" stroke-width="0.0950061"/>
<path d="M12.5469 12.8435L13.403 12.4062H14.5322L15.3201 13.2333L15.5249 14.2658L15.9924 14.466L16.1762 15.8514H15.1835L13.9913 15.9515L13.2192 16.3044L12.9671 16.0516V15.3931V13.8918L12.5469 13.7232V12.8435Z" stroke="#ECDACD" stroke-opacity="0.4" stroke-width="0.0950061"/>
<path d="M5.91558 -2.60156L10.3184 1.15316H12.5903L15.8525 -2.58657L18.7961 -0.782593L23.1739 -1.92433L22.7265 4.65877L25.6758 4.67417L26.5477 8.95339L24.5519 13.687L28.565 15.4137L30.12 27.3645L21.4709 27.3684L20.287 30.2804L13.9459 30.3075L11.0229 28.253L4.32177 31.2878L2.13681 29.0813V23.376L-0.0481471 20.216L2.12065 15.2565L2.10449 10.2971L-1.53711 8.80913V1.18679L5.91558 -2.60156Z" stroke="#ECDACD" stroke-opacity="0.4" stroke-width="0.0950061"/>
<path d="M6.50597 -1.35156L10.5776 2.07204H12.7542L15.7774 -1.32158L18.5085 0.366529L22.53 -0.63704L22.1285 5.44049L24.8709 5.47128L25.6779 9.45163L23.8561 13.8485L27.4934 15.4313L28.8774 26.3862L20.8994 26.3939L19.7645 29.0674L13.8874 29.1217L11.1975 27.2279L5.04433 29.9992L3.04145 27.9492V22.6918L1.03857 19.6701L3.00913 15.1169L2.97681 10.5637L-0.361328 9.16311V2.13931L6.50597 -1.35156Z" stroke="#ECDACD" stroke-opacity="0.4" stroke-width="0.0950061"/>
<path d="M7.09246 -0.101562L10.8328 2.99093H12.9142L15.6984 -0.0565834L18.2171 1.51565L21.8823 0.650247L21.5266 6.2222L24.0622 6.2684L24.8041 9.94987L23.1563 14.01L26.4178 15.4489L27.6309 25.4079L20.324 25.4195L19.2381 27.8545L13.8251 27.9359L11.3683 26.2028L5.76298 28.7107L3.94218 26.8171V22.0077L2.12138 19.1242L3.8937 14.9773L3.84521 10.8303L0.810547 9.5171V3.09183L7.09246 -0.101562Z" stroke="#ECDACD" stroke-opacity="0.4" stroke-width="0.0950061"/>
<path d="M7.68091 1.14844L11.0901 3.90982H13.0762L15.6214 1.20841L17.9276 2.66477L21.2365 1.93753L20.9266 7.00392L23.2554 7.06551L23.9324 10.4481L22.4585 14.1715L25.3442 15.4665L26.3864 24.4296L19.7505 24.445L18.7136 26.6415L13.7647 26.7501L11.5409 25.1776L6.48358 27.4221L4.84486 25.685V21.3236L3.20614 18.5783L4.78022 14.8377L4.71558 11.097L1.98438 9.87108V4.04435L7.68091 1.14844Z" stroke="#ECDACD" stroke-opacity="0.4" stroke-width="0.0950061"/>
<path d="M8.26935 2.39844L11.3473 4.82871H13.2382L15.5444 2.4734L17.6381 3.81389L20.5907 3.22482L20.3267 7.78563L22.4486 7.86263L23.0606 10.9463L21.7607 14.333L24.2706 15.4842L25.1419 23.4513L19.177 23.4706L18.1891 25.4286L13.7043 25.5644L11.7136 24.1525L7.20419 26.1336L5.74755 24.5528V20.6395L4.29091 18.0324L5.66674 14.698L5.58594 11.3636L3.1582 10.2251V4.99688L8.26935 2.39844Z" stroke="#ECDACD" stroke-opacity="0.4" stroke-width="0.0950061"/>
<path d="M8.85584 3.64844L11.6025 5.7476H13.3983L15.4654 3.7384L17.3466 4.96302L19.943 4.51211L19.7247 8.56735L21.6399 8.65974L22.1868 11.4446L21.0609 14.4945L23.1951 15.5018L23.8954 22.473L18.6016 22.4961L17.6627 24.2157L13.642 24.3786L11.8844 23.1274L7.92284 24.845L6.64828 23.4207V19.9554L5.37372 17.4865L6.55131 14.5584L6.45435 11.6303L4.33008 10.579V5.9494L8.85584 3.64844Z" stroke="#ECDACD" stroke-opacity="0.4" stroke-width="0.0950061"/>
<path d="M9.44624 4.90625L11.8617 6.6743H13.5622L15.3903 5.0112L17.0591 6.11995L19.2992 5.80721L19.1267 9.35688L20.8351 9.46467L21.317 11.9506L20.365 14.6638L22.1234 15.5272L22.6528 21.5026L18.0301 21.5295L17.1401 23.0105L13.5835 23.2006L12.059 22.1101L8.64539 23.5643L7.55291 22.2964V19.2791L6.46043 16.9485L7.43979 14.4266L7.32666 11.9047L5.50586 10.9408V6.90973L9.44624 4.90625Z" stroke="#ECDACD" stroke-opacity="0.4" stroke-width="0.0950061"/>
<path d="M10.0347 6.14844L12.1189 7.58538H13.7242L15.3133 6.26838L16.7696 7.26126L18.6534 7.08668L18.5267 10.1308L20.0283 10.254L20.4452 12.4411L19.6672 14.8175L21.0498 15.537L21.4082 20.5164L17.4567 20.5472L16.6156 21.7898L13.5231 22.007L12.2317 21.0772L9.366 22.2679L8.4556 21.1565V18.5872L7.5452 16.3948L8.32631 14.2792L8.19702 12.1636L6.67969 11.287V7.85444L10.0347 6.14844Z" stroke="#ECDACD" stroke-opacity="0.4" stroke-width="0.0950061"/>
<path d="M10.6212 7.40625L12.3742 8.51208H13.8843L15.2343 7.54119L16.4781 8.4182L18.0056 8.38178L17.9248 10.9203L19.2195 11.0589L19.5715 12.9471L18.9675 14.9868L19.9743 15.5624L20.1617 19.546L16.8812 19.5806L16.0892 20.5846L13.4608 20.829L12.4024 20.0599L10.0846 20.9872L9.35633 20.0322V17.9109L8.62801 15.8567L9.21088 14.1474L9.06543 12.438L7.85156 11.6488V8.81478L10.6212 7.40625Z" stroke="#ECDACD" stroke-opacity="0.4" stroke-width="0.0950061"/>
<path d="M11.2096 8.65625L12.6314 9.43097H14.0463L15.1573 8.80618L16.1886 9.56732L17.3599 9.66907L17.3248 11.702L18.4127 11.856L18.6997 13.4454L18.2697 15.1483L18.9007 15.58L18.9172 18.5677L16.3078 18.6062L15.5647 19.3717L13.4004 19.6432L12.5751 19.0347L10.8052 19.6986L10.259 18.9001V17.2268L9.71277 15.3108L10.0974 14.0077L9.93579 12.7047L9.02539 12.0028V9.7673L11.2096 8.65625Z" stroke="#ECDACD" stroke-opacity="0.4" stroke-width="0.0950061"/>
<path d="M11.8 9.90625L12.8905 10.3499H14.2102L15.0822 10.0712L15.901 10.7164L16.716 10.9564L16.7268 12.4837L17.6079 12.6531L17.8298 13.9436L17.5738 15.3098L17.829 15.5976L17.6746 17.5894L15.7363 17.6317L15.0422 18.1588L13.3419 18.4574L12.7497 18.0096L11.5278 18.4101L11.1636 17.768V16.5427L10.7995 14.7649L10.9859 13.8681L10.8081 12.9713L10.2012 12.3568V10.7198L11.8 9.90625Z" stroke="#ECDACD" stroke-opacity="0.4" stroke-width="0.0950061"/>
<path d="M12.3865 11.1641L13.1458 11.2766H14.3703L15.0032 11.344L15.6096 11.8734L16.0683 12.2515L16.1249 13.2733L16.7992 13.4581L16.9561 14.4496L16.874 15.4791L16.7535 15.623L16.4281 16.6189L15.1609 16.6651L14.5157 16.9536L13.2796 17.2794L12.9204 16.9923L12.2465 17.1293L12.0644 16.6437V15.8664L11.8823 14.2269L11.8704 13.7363L11.6765 13.2458L11.373 12.7186V11.6802L12.3865 11.1641Z" stroke="#ECDACD" stroke-opacity="0.4" stroke-width="0.0950061"/>
<path d="M13.3149 6.17969H24.1298H25.6815L26.7583 8.36483H17.3051L11.7315 24.9117L10.1797 22.5682L14.9775 8.36483H12.7132L13.3149 6.17969Z" fill="white"/>
<path d="M18.1266 11.2812H27.8648L28.3398 13.4347H19.7259L18.9817 15.7624H22.6236L21.1352 17.9475H18.3166L15.2606 27.6065H12.9805L18.1266 11.2812Z" fill="white"/>
<path d="M4.30394 12.3371L2.45132 7.15929L0.962891 9.48693L3.6389 17.0716L6.56825 12.9705L8.24669 21.7269L15.3563 1.30058L13.3137 0.429688L8.88006 13.303L7.75583 7.50764L4.30394 12.3371Z" fill="white"/>
</g>
<rect x="0.743441" y="0.651644" width="26.6967" height="26.6967" rx="13.3484" stroke="url(#paint0_linear_2006_16589)" stroke-width="0.696711"/>
<defs>
<linearGradient id="paint0_linear_2006_16589" x1="14.0918" y1="1" x2="14.0918" y2="28.2192" gradientUnits="userSpaceOnUse">
<stop stop-color="#0F0C00"/>
<stop offset="1" stop-color="#2B2019"/>
</linearGradient>
<clipPath id="clip0_2006_16589">
<rect x="1.0918" y="1" width="26" height="26" rx="13" fill="white"/>
</clipPath>
</defs>
</svg>
