<svg width="169" height="105" viewBox="0 0 169 105" fill="none" xmlns="http://www.w3.org/2000/svg">
<path fill-rule="evenodd" clip-rule="evenodd" d="M94.4711 2.58295C89.1643 2.72531 84.085 3.61678 80.8146 5.33589C75.6741 8.03806 71.6338 12.9502 68.6019 18.6915C68.0992 19.6434 67.6259 20.615 67.1812 21.5994C73.39 18.2386 79.7654 15.7757 86.3672 13.3787C89.6038 12.2035 93.177 11.9462 96.6634 11.9628C98.3885 11.971 100.121 12.0471 101.796 12.1206L101.864 12.1236C103.571 12.1986 105.215 12.2698 106.785 12.2698C109.937 12.2698 112.934 12.9842 115.784 14.1315C115.701 13.8049 115.614 13.4806 115.523 13.1594C114.264 8.70682 112.343 5.30235 108.658 4.16324C105.047 3.04702 99.7543 2.44123 94.4711 2.58295ZM118.743 15.4939C118.525 14.4781 118.281 13.4597 118 12.4646C116.696 7.85298 114.44 3.26746 109.42 1.71577C105.464 0.49283 99.8741 -0.125529 94.4019 0.021266C88.9533 0.167427 83.404 1.07714 79.6137 3.06956C73.8429 6.10306 69.4892 11.5063 66.3247 17.4986C65.2576 19.5194 64.3191 21.6195 63.5023 23.7378C60.7474 25.463 58.1055 27.3805 55.503 29.2694C54.8727 29.727 54.2446 30.1828 53.6179 30.6338C49.5912 33.5313 45.5868 36.2543 41.168 38.1726C29.8621 43.0808 17.0931 45.2896 4.70526 45.2896C3.99769 45.2896 3.4241 45.8623 3.4241 46.5688C3.4241 47.2753 3.99769 47.8481 4.70526 47.8481C17.3807 47.8481 30.5075 45.5905 42.1897 40.5189C46.881 38.4823 51.0765 35.6162 55.116 32.7094C55.7605 32.2456 56.4004 31.7813 57.0377 31.3189C58.7361 30.0866 60.4157 28.8679 62.1145 27.7084C61.2152 30.5612 60.5293 33.3779 60.04 36.0092C59.3279 39.8394 58.6852 43.6217 58.1189 47.3752C40.9236 58.2049 22.6558 67.7916 2.0588 67.7916C1.34473 67.7916 0.765869 68.3852 0.765869 69.1173C0.765869 69.8495 1.34473 70.443 2.0588 70.443C22.6452 70.443 40.8697 61.2039 57.6238 50.7919C56.5865 58.2603 55.8629 65.6368 55.5086 73.073C52.3284 74.5782 49.1932 75.9732 45.8686 76.8658C42.9399 77.6521 40.0853 78.4849 37.266 79.3074C27.8144 82.0647 18.761 84.7059 8.65485 85.0878C7.94224 85.1147 7.38594 85.7259 7.41234 86.4529C7.43873 87.18 8.03782 87.7475 8.75043 87.7206C19.2003 87.3257 28.6509 84.5665 38.1595 81.7903L38.1603 81.7901C40.9351 80.9799 43.7148 80.1684 46.5258 79.4137C49.633 78.5795 52.5597 77.3415 55.3874 76.0297C55.1813 82.0442 55.2203 88.1108 55.5339 94.309C54.4449 94.4412 53.3546 94.5651 52.2624 94.6788C43.2531 95.6173 34.3109 97.2002 25.4777 99.1976C23.9632 99.54 22.3844 99.9714 20.8344 100.395L20.8343 100.395L20.8342 100.395L20.8337 100.395C19.7473 100.692 18.675 100.985 17.6489 101.241C15.0706 101.883 12.5499 102.36 10.0217 102.36C9.31413 102.36 8.74055 102.951 8.74055 103.68C8.74055 104.409 9.31413 105 10.0217 105C12.8503 105 15.6008 104.467 18.2515 103.806C19.4134 103.516 20.5186 103.213 21.6057 102.915L21.606 102.915C23.0814 102.511 24.5232 102.116 26.0271 101.776C34.7846 99.7953 43.6278 98.2312 52.5202 97.3049C53.5762 97.1949 54.6306 97.0756 55.6836 96.9485C55.799 98.7864 55.9387 100.637 56.1033 102.501C56.1655 103.206 56.7897 103.728 57.4974 103.666C58.2052 103.604 58.7285 102.982 58.6663 102.277C58.4987 100.379 58.3573 98.4954 58.2412 96.6249C62.8415 96.0176 67.4144 95.2849 71.9665 94.5555L71.971 94.5548C73.247 94.3503 74.5214 94.1461 75.7942 93.9451C83.5051 92.7269 91.1801 91.6191 98.9585 91.2184C108.583 90.7227 118.153 90.231 127.72 89.8398C127.754 92.6655 127.857 95.3824 128.109 97.5983C128.262 98.948 128.477 100.171 128.788 101.139C128.944 101.624 129.137 102.089 129.387 102.487C129.634 102.88 129.985 103.286 130.486 103.535C131.122 103.852 131.894 103.595 132.212 102.962C132.525 102.339 132.28 101.584 131.666 101.258C131.653 101.245 131.618 101.207 131.569 101.128C131.471 100.972 131.356 100.724 131.238 100.358C131.003 99.6254 130.811 98.5954 130.666 97.3102C130.426 95.1973 130.325 92.5536 130.291 89.7371C141.157 89.3141 152.024 89.0318 162.966 89.0318C163.673 89.0318 164.247 88.441 164.247 87.7121C164.247 86.9832 163.673 86.3924 162.966 86.3924C152.014 86.3924 141.139 86.6741 130.278 87.0963C130.278 85.3539 130.295 83.6206 130.312 81.9545L130.312 81.9508L130.312 81.948V81.9478V81.9474V81.9472V81.947C130.326 80.5354 130.339 79.1721 130.342 77.8923C130.345 76.3953 130.333 75.0294 130.287 73.8896C130.243 72.774 130.164 71.7917 130.011 71.105C129.631 69.3995 129.282 67.6894 128.955 65.9748C129.451 66.1218 129.947 66.2695 130.444 66.4174L130.66 66.4816C139.48 69.1068 148.471 71.7829 157.639 71.7829C158.352 71.7829 158.93 71.1932 158.93 70.4656C158.93 69.7381 158.352 69.1483 157.639 69.1483C148.841 69.1483 140.15 66.5618 131.2 63.8979L131.2 63.8979L131.167 63.8882C130.255 63.6166 129.339 63.3443 128.422 63.0742C127.866 59.9463 127.366 56.8034 126.864 53.6453L126.864 53.6447L126.863 53.644L126.863 53.6439L126.863 53.6438L126.863 53.6436L126.863 53.6435L126.863 53.6433L126.863 53.6432C126.585 51.8966 126.307 50.1454 126.018 48.3896C125.623 45.9909 125.209 43.5874 124.751 41.1844C126.454 42.2795 128.155 43.4167 129.868 44.5632L129.992 44.6459C139.484 50.9984 149.364 57.6109 161.625 57.6109C162.339 57.6109 162.918 57.0174 162.918 56.2852C162.918 55.553 162.339 54.9595 161.625 54.9595C150.203 54.9595 140.926 48.7974 131.281 42.3429L131.121 42.2355C128.792 40.6766 126.44 39.1025 124.035 37.6148C123.18 33.5646 122.165 29.523 120.871 25.515C120.338 23.8624 119.951 21.8094 119.527 19.5167L119.497 19.3544L119.497 19.3541C119.461 19.1604 119.425 18.9653 119.389 18.769C120.244 19.2671 121.093 19.7994 121.937 20.3582C124.346 21.9525 126.681 23.7373 128.98 25.5186C129.22 25.7047 129.46 25.8909 129.7 26.0769L129.7 26.077C131.74 27.6604 133.76 29.2278 135.737 30.5948C140.436 33.8427 145.878 35.7761 151.042 37.611C151.381 37.7312 151.718 37.8511 152.054 37.9708C152.834 38.249 154.128 38.4999 155.511 38.7418C156.156 38.8546 156.819 38.9651 157.497 39.0779L157.498 39.0781L157.498 39.0782C158.362 39.2221 159.249 39.3699 160.153 39.5315C161.737 39.8149 163.215 40.1144 164.337 40.4408C164.9 40.6048 165.327 40.7625 165.617 40.9068C165.76 40.9784 165.833 41.0287 165.863 41.0509C166.208 41.6082 166.928 41.8203 167.526 41.5218C168.159 41.2059 168.415 40.4375 168.099 39.8055C167.791 39.191 167.188 38.8303 166.762 38.6179C166.275 38.375 165.681 38.1671 165.053 37.9845C163.792 37.6174 162.2 37.2984 160.605 37.0131C159.715 36.8541 158.774 36.697 157.878 36.5475L157.878 36.5475C157.195 36.4337 156.54 36.3242 155.953 36.2217C154.513 35.9699 153.45 35.752 152.916 35.5614C152.604 35.4504 152.293 35.3397 151.983 35.2292C146.743 33.366 141.604 31.5386 137.196 28.4912C135.28 27.1671 133.319 25.6452 131.269 24.0543C131.031 23.8695 130.791 23.6838 130.551 23.4974C128.252 21.7163 125.85 19.8783 123.353 18.2255C121.863 17.24 120.327 16.3115 118.743 15.4939ZM116.475 17.2268C113.349 15.7491 110.134 14.8282 106.785 14.8282C105.149 14.8282 103.448 14.7541 101.752 14.6796L101.707 14.6776C100.016 14.6034 98.3258 14.5292 96.6512 14.5212C93.2616 14.5051 90.0504 14.7637 87.2428 15.7831C80.2504 18.322 73.6605 20.8839 67.2813 24.4667C66.7174 24.7835 66.1592 25.1108 65.6055 25.4472C64.2171 29.1989 63.2164 32.9991 62.5699 36.4759C62.0028 39.5263 61.4803 42.5445 61.0059 45.5405C61.5617 45.1843 62.1164 44.8274 62.6701 44.4699C65.1954 42.8397 67.6778 40.9712 70.2164 39.0604C70.6391 38.7423 71.0633 38.423 71.4896 38.1034C74.455 35.88 77.5052 33.654 80.6924 31.8384C83.5716 30.1984 86.8738 29.5829 90.1198 29.359C92.4208 29.2002 94.7928 29.2358 97.0076 29.2691C97.8921 29.2824 98.7515 29.2953 99.5713 29.2953C107.536 29.2953 114.498 32.0999 121.006 35.8104C120.278 32.6158 119.437 29.4435 118.422 26.2992C117.828 24.458 117.413 22.2295 116.997 19.9811L116.976 19.8675C116.814 18.9913 116.65 18.1074 116.475 17.2268ZM123.479 48.8043C122.955 45.6252 122.401 42.4601 121.761 39.3144C114.842 35.1283 107.756 31.9466 99.5713 31.9466C98.6726 31.9466 97.7666 31.933 96.8558 31.9192L96.8555 31.9192C94.6824 31.8865 92.4828 31.8533 90.2934 32.0044C87.2124 32.2169 84.3471 32.7896 81.9482 34.1561C78.9152 35.8839 75.979 38.022 73.0159 40.2436C72.5975 40.5573 72.1783 40.8729 71.7582 41.1891L71.758 41.1893C69.224 43.0969 66.6579 45.0286 64.0479 46.7136C62.8653 47.4771 61.6755 48.2399 60.4784 48.9991C59.3543 56.6701 58.558 64.2188 58.1487 71.8138C61.2124 70.3544 64.3663 68.9049 67.7046 67.9032C69.1642 67.4652 70.4133 66.5834 71.8773 65.55L71.9516 65.4975C73.3883 64.4835 75.0372 63.3311 77.0716 62.8123C79.0047 62.3192 80.8526 61.684 82.7525 61.0309C83.8758 60.6448 85.0172 60.2525 86.205 59.8796C90.9604 58.3868 96.2358 58.4471 101.075 58.5023C101.971 58.5126 102.852 58.5226 103.712 58.5226C111.198 58.5226 118.515 60.2416 125.67 62.2767C125.192 59.5157 124.753 56.7519 124.314 53.9964L124.314 53.9954L124.314 53.9951C124.038 52.2606 123.763 50.5293 123.479 48.8043ZM126.185 65.1621C118.688 62.9926 111.268 61.1572 103.712 61.1572C102.79 61.1572 101.868 61.1476 100.947 61.138L100.946 61.138C96.0964 61.0873 91.2986 61.0372 86.9645 62.3977C85.9181 62.7262 84.8367 63.097 83.736 63.4745C81.7554 64.1537 79.7122 64.8544 77.6979 65.3682C76.182 65.7548 74.8939 66.6245 73.4208 67.6642L73.2239 67.8033C71.8573 68.7696 70.3007 69.8704 68.4333 70.4307C64.9243 71.4836 61.6108 73.0677 58.1868 74.7046L58.0084 74.7899C57.7533 81.1084 57.7704 87.4741 58.0937 93.9834C62.5855 93.3871 67.0607 92.6702 71.5541 91.9503C72.8362 91.7449 74.1199 91.5392 75.4058 91.3361C83.1266 90.1164 90.912 88.9901 98.8306 88.5822C108.48 88.0853 118.089 87.5914 127.705 87.1988C127.705 85.4158 127.723 83.6039 127.739 81.8806C127.753 80.4683 127.766 79.1156 127.769 77.8871C127.772 76.4 127.76 75.0766 127.717 73.9911C127.672 72.8813 127.598 72.1023 127.5 71.6609C127.018 69.5027 126.586 67.3345 126.185 65.1621Z" fill="#005EEC"/>
</svg>
