<svg width="22" height="22" viewBox="0 0 22 22" fill="none" xmlns="http://www.w3.org/2000/svg">
<path d="M19.25 0.5H2.75C2.15326 0.5 1.58097 0.737053 1.15901 1.15901C0.737053 1.58097 0.5 2.15326 0.5 2.75V19.25C0.5 19.8467 0.737053 20.419 1.15901 20.841C1.58097 21.2629 2.15326 21.5 2.75 21.5H19.25C19.8467 21.5 20.419 21.2629 20.841 20.841C21.2629 20.419 21.5 19.8467 21.5 19.25V2.75C21.5 2.15326 21.2629 1.58097 20.841 1.15901C20.419 0.737053 19.8467 0.5 19.25 0.5ZM20 19.25C20 19.4489 19.921 19.6397 19.7803 19.7803C19.6397 19.921 19.4489 20 19.25 20H2.75C2.55109 20 2.36032 19.921 2.21967 19.7803C2.07902 19.6397 2 19.4489 2 19.25V2.75C2 2.55109 2.07902 2.36032 2.21967 2.21967C2.36032 2.07902 2.55109 2 2.75 2H19.25C19.4489 2 19.6397 2.07902 19.7803 2.21967C19.921 2.36032 20 2.55109 20 2.75V19.25Z" fill="white"/>
<path d="M8.75 4.25H5.75C5.35218 4.25 4.97064 4.40804 4.68934 4.68934C4.40804 4.97064 4.25 5.35218 4.25 5.75V12.5C4.25 12.8978 4.40804 13.2794 4.68934 13.5607C4.97064 13.842 5.35218 14 5.75 14H8.75C9.14782 14 9.52936 13.842 9.81066 13.5607C10.092 13.2794 10.25 12.8978 10.25 12.5V5.75C10.25 5.35218 10.092 4.97064 9.81066 4.68934C9.52936 4.40804 9.14782 4.25 8.75 4.25V4.25ZM5.75 12.5V5.75H8.75V12.5H5.75ZM16.25 4.25H13.25C12.8522 4.25 12.4706 4.40804 12.1893 4.68934C11.908 4.97064 11.75 5.35218 11.75 5.75V9.5C11.75 9.89782 11.908 10.2794 12.1893 10.5607C12.4706 10.842 12.8522 11 13.25 11H16.25C16.6478 11 17.0294 10.842 17.3107 10.5607C17.592 10.2794 17.75 9.89782 17.75 9.5V5.75C17.75 5.35218 17.592 4.97064 17.3107 4.68934C17.0294 4.40804 16.6478 4.25 16.25 4.25V4.25ZM13.25 9.5V5.75H16.25V9.5H13.25Z" fill="white"/>
</svg>
